<svg width="64" height="64" viewBox="0 0 64 64" fill="none" xmlns="http://www.w3.org/2000/svg">
<path fill-rule="evenodd" clip-rule="evenodd" d="M50.1905 32.0328C53.7587 31.6047 56.3164 35.4656 58.8625 38.0156C61.0345 40.191 63.0233 42.5942 63.7303 45.5936C64.4015 48.4409 63.7367 51.3733 62.6512 54.0882C61.6271 56.6497 60.0708 59.0007 57.7686 60.505C55.5424 61.9596 52.8048 61.7651 50.1905 62.2301C46.857 62.823 43.5242 64.8526 40.3773 63.5981C36.9871 62.2467 34.6435 58.9478 33.3532 55.5181C32.0234 51.9831 31.2057 47.6767 33.1769 44.4588C35.0975 41.3236 39.9392 42.0945 42.9021 39.9305C45.8644 37.7669 46.555 32.469 50.1905 32.0328Z" fill="#9DA3A5"/>
<path fill-rule="evenodd" clip-rule="evenodd" d="M12.4319 0.299788C11.8551 0.876413 11.98 1.13654 13.6416 2.81716C14.5668 3.75291 15.1322 4.41854 15.0919 4.52391C14.9908 4.78741 4.61425 15.4929 4.46 15.4929C4.38588 15.4929 3.67025 14.846 2.86975 14.0554C1.55325 12.755 1.37112 12.6179 0.962 12.6179C0.4145 12.6179 0 13.0052 0 13.5165C0 13.8018 0.295375 14.1564 1.56875 15.3992C3.14062 16.9335 3.75625 17.3585 4.41612 17.3647C4.69287 17.3672 5.09288 17.6732 6.25863 18.7742C7.52112 19.9665 7.779 20.2754 7.95437 20.8054C8.31012 21.8808 9.081 23.4495 9.78113 24.5232C10.6059 25.7879 11.5592 26.8712 13.1559 28.3582C14.4931 29.6037 14.7878 29.7165 15.3181 29.186C15.9066 28.5977 15.7869 28.3715 13.8329 26.381C11.488 23.9924 10.4444 22.4067 9.74975 20.177C9.48925 19.341 9.41687 19.2459 7.97512 17.8473C7.1485 17.0454 6.49237 16.3337 6.51725 16.2659C6.57525 16.1078 15.9972 6.36791 16.0921 6.36791C16.1314 6.36791 16.7926 6.98866 17.5616 7.74741L18.9597 9.12691L20.8236 9.44116C23.828 9.94779 24.7606 10.2612 26.1893 11.244C26.9566 11.772 32.605 17.2189 32.825 17.6429C33.184 18.3352 32.888 19.1458 32.1662 19.4473C31.441 19.7504 31.1224 19.5857 29.5616 18.1012C28.2106 16.8162 28.0893 16.7307 27.6653 16.7668C27.0986 16.8152 26.677 17.31 26.7966 17.7865C26.8456 17.9818 28.7091 19.8734 31.6879 22.7514C34.3345 25.3085 36.5 27.445 36.5 27.499C36.5 27.5532 36.5341 27.6864 36.5759 27.7952C36.6382 27.9577 36.5504 27.9929 36.084 27.9929C35.7718 27.9929 35.372 28.0478 35.1956 28.1148C34.9285 28.2164 34.8745 28.2007 34.8722 28.021C34.8677 27.6704 34.3862 26.7079 34.0239 26.3252C33.4548 25.7243 32.781 25.4458 31.8379 25.4218L30.9884 25.4002L29.2574 23.6965C27.841 22.3024 27.461 21.9929 27.166 21.9929C26.4389 21.9929 25.9529 22.6877 26.268 23.2768C26.35 23.43 27.0926 24.2052 27.9182 24.9994L29.4193 26.4433L29.1784 26.97C28.9815 27.4005 28.8918 27.4819 28.6875 27.4157C28.55 27.3712 28.0775 27.3184 27.6375 27.2987L26.8376 27.2627L25.825 26.2667C24.4194 24.8839 24.1061 24.7504 23.5569 25.2998C23.0146 25.8419 23.1329 26.1825 24.2558 27.3112L25.2615 28.3222L24.9447 28.8763C24.7705 29.181 24.6217 29.5992 24.614 29.8054C24.6064 30.0117 24.5613 30.32 24.5138 30.4905C24.4315 30.7857 24.3596 30.7355 23.0357 29.4593C21.8191 28.2865 21.5904 28.1179 21.2165 28.1179C20.7319 28.1179 20.4395 28.3752 20.303 28.9217C20.2164 29.2689 20.3221 29.3955 22.3557 31.3778L24.5 33.4678V34.9835V36.4993L24.1562 36.3198C23.9673 36.221 23.6437 35.9604 23.4375 35.7408C23.2313 35.521 21.8995 34.2223 20.4781 32.8545C17.6845 30.1664 17.5331 30.0734 16.9319 30.6748C16.7442 30.8623 16.625 31.1254 16.625 31.3517C16.625 31.6697 16.9944 32.0783 19.2482 34.253C21.8204 36.735 21.8661 36.7879 21.592 36.9703C20.989 37.3715 20.5807 37.8322 20.2979 38.4304C20.0036 39.0529 20.0024 39.0747 20.0012 43.766C19.9999 48.9413 20.0519 49.4538 20.7582 51.2245C20.968 51.7503 21.6706 52.9788 22.3197 53.9547L23.5 55.7288V57.7285C23.5 58.9455 23.4504 59.7588 23.3732 59.8065C23.3035 59.8497 23.1347 60.1038 22.9982 60.3714C22.7974 60.765 22.75 61.1078 22.75 62.1664C22.75 63.4309 22.761 63.4834 23.0794 63.7338C23.5072 64.0704 23.7821 64.0609 24.2079 63.6945C24.5261 63.4208 24.5602 63.3047 24.6211 62.2883L24.6875 61.1804H32.375H40.0625L40.1266 62.3338C40.1971 63.6024 40.3051 63.8102 40.9621 63.9415C41.283 64.0058 41.4195 63.9598 41.6792 63.7C41.9789 63.4003 42 63.3007 42 62.182C42 60.9542 41.844 60.3299 41.4569 60.0089C41.279 59.8614 41.25 59.535 41.25 57.6825V55.5279L41.7351 54.4779C42.7419 52.2987 43.2265 50.212 43.2796 47.827L43.3125 46.3488L42.9618 46.0458C42.5359 45.678 42.2585 45.6644 41.8433 45.991C41.5469 46.2242 41.5226 46.3317 41.4412 47.7723C41.2977 50.3143 40.8551 52.0477 39.8299 54.0835L39.375 54.9867V57.1148V59.2429H32.375H25.375V57.1803V55.1177L24.203 53.399C21.8904 50.008 21.875 49.945 21.875 43.8549C21.875 39.2652 21.8755 39.2563 22.1562 38.9352C22.6793 38.337 23.6814 38.3093 24.1976 38.8787C24.4081 39.1108 24.4451 39.4013 24.5 41.2524C24.5581 43.2132 24.5818 43.3809 24.8368 43.6357C25.1723 43.9707 25.7782 43.9942 26.1192 43.6855C26.3594 43.4683 26.3679 43.2567 26.4021 36.6544L26.4375 29.8473L26.8458 29.4825C27.3516 29.0307 27.8596 29.0092 28.3368 29.4194L28.6875 29.721L28.75 34.9777C28.8186 40.7479 28.7869 40.5315 29.5871 40.6915C29.908 40.7558 30.0445 40.7098 30.3043 40.45L30.625 40.1293V34.2673C30.625 30.2994 30.6698 28.2768 30.7635 28.0078C31.0373 27.2225 32.0356 27.0093 32.6346 27.6083L33 27.9737V34.0515V40.1293L33.3069 40.436C33.6747 40.804 34.1161 40.8289 34.5174 40.5042L34.8125 40.2653L34.875 35.3682L34.9375 30.4709L35.2882 30.1694C35.5096 29.979 35.7951 29.8679 36.0625 29.8679C36.3299 29.8679 36.6154 29.979 36.8368 30.1694L37.1875 30.4709L37.25 35.3682L37.3125 40.2653L37.6076 40.5042C37.983 40.8079 38.392 40.8079 38.7674 40.5042L39.0625 40.2654L39.131 36.2854C39.1688 34.0964 39.2109 32.2935 39.2248 32.279C39.8379 31.638 40.5149 31.5528 41.0868 32.0444L41.4375 32.346L41.5 37.8047C41.5597 43.0252 41.5731 43.271 41.8051 43.4407C42.0871 43.6467 42.5436 43.6703 42.8701 43.4955C43.3206 43.2544 43.375 42.7074 43.375 38.4218V34.263L43.8395 34.3913C44.4953 34.5724 45.3973 34.4562 46.0579 34.1053C46.884 33.6667 52.8937 28.1394 53.62 27.1503C54.6235 25.7838 55.1144 24.6354 55.6821 22.3265L56.1995 20.2227L57.631 18.9239C58.8289 17.837 59.1295 17.6245 59.4728 17.6215C59.6984 17.6195 60.0729 17.5385 60.305 17.4415C60.6765 17.2864 63.4369 14.892 63.8397 14.3757C64.2645 13.8312 63.7695 12.9929 63.0233 12.9929C62.6909 12.9929 62.3776 13.2198 61.125 14.3679C60.2999 15.1242 59.5532 15.7429 59.4659 15.7429C59.3784 15.7429 58.8079 15.1794 58.198 14.4908C57.5758 13.788 56.9559 13.2053 56.7854 13.1624C56.1395 13.0003 55.5066 13.629 55.668 14.2723C55.7091 14.4362 56.1419 15.008 56.6297 15.5432L57.5168 16.5163L56.7271 17.2209C56.2929 17.6084 55.6121 18.2359 55.2145 18.6154L54.4916 19.3054L54.0062 21.3054C53.037 25.299 52.8137 25.636 48.6027 29.4635C46.883 31.0265 45.3186 32.3832 45.1263 32.478C44.3501 32.8612 43.25 32.201 43.25 31.3522C43.25 30.744 43.5341 30.3662 44.9196 29.1314C45.6441 28.4857 46.268 27.8763 46.306 27.7774C46.5451 27.154 46.0863 26.4929 45.4144 26.4929C45.1019 26.4929 44.7492 26.7522 43.4734 27.9195C42.6159 28.7042 41.8439 29.5164 41.7576 29.7244C41.619 30.0593 41.5656 30.0892 41.2924 29.9853C40.8787 29.828 39.5435 29.8358 39.2419 29.9973C39.034 30.1085 38.9697 30.063 38.784 29.6733L38.5677 29.22L39.1276 28.7113C40.916 27.0864 41.125 26.8485 41.125 26.4383C41.125 25.949 40.6873 25.4929 40.2179 25.4929C39.9913 25.4929 39.6486 25.7157 39.1139 26.2108C38.3916 26.8795 38.3291 26.9119 38.2005 26.685C38.1246 26.5512 37.7851 26.1417 37.4461 25.775L36.8298 25.1084L37.5399 24.3908C38.3467 23.5754 38.4686 23.0814 37.9764 22.6228C37.5159 22.1937 37.1119 22.2962 36.2566 23.0594L35.4816 23.7509L34.1784 22.5439C33.4615 21.8802 32.875 21.2945 32.875 21.2427C32.875 21.1908 33.046 21.0774 33.255 20.9908C33.8169 20.7582 34.4815 19.9077 34.7065 19.1335C34.9461 18.3093 34.866 17.5442 34.4521 16.7042L34.1558 16.1029L34.7966 15.5035C36.5841 13.8314 38.6437 12.0173 39.3125 11.5259C40.4118 10.7183 42.5729 9.69341 43.895 9.35291L45.0499 9.05541L46.4315 7.80541C47.1912 7.11791 47.9017 6.48616 48.0103 6.40154C48.1794 6.26954 48.5766 6.65616 50.8039 9.12029C53.2209 11.7944 53.4296 11.9929 53.8251 11.9929C54.3734 11.9929 54.7503 11.6232 54.7491 11.0867C54.7483 10.7327 54.3855 10.2807 51.9299 7.57416C50.3797 5.86566 49.1286 4.40254 49.1495 4.32279C49.1704 4.24291 49.8765 3.54116 50.7188 2.76329C52.0911 1.49566 52.25 1.30541 52.25 0.929913C52.25 0.626288 52.1594 0.439788 51.9206 0.252038C51.3315 -0.211462 51.1167 -0.107836 49.3506 1.49166C47.6286 3.05116 47.4164 3.31841 47.2735 4.10654C47.2004 4.50979 46.9678 4.78154 45.7219 5.91916C44.2677 7.24679 44.2465 7.26041 43.0344 7.63879C40.0378 8.57391 38.5282 9.54929 34.7595 12.9852C33.6991 13.9519 32.7991 14.7424 32.7595 14.7418C32.7199 14.7413 31.6004 13.6998 30.2717 12.4275C26.521 8.83604 25.6645 8.36479 21.6509 7.68466L19.8235 7.37491L18.4118 5.96729C17.2826 4.84129 17 4.48929 17 4.20866C17 3.57066 16.5334 2.94679 14.9458 1.46166C13.2374 -0.136212 12.9846 -0.253087 12.4319 0.299788Z" fill="white"/>
</svg>
