<svg width="32" height="32" viewBox="0 0 32 32" fill="none" xmlns="http://www.w3.org/2000/svg">
<path fill-rule="evenodd" clip-rule="evenodd" d="M25.0952 16.0164C26.8794 15.8023 28.1582 17.7328 29.4312 19.0078C30.5173 20.0955 31.5116 21.2971 31.8652 22.7968C32.2007 24.2205 31.8683 25.6866 31.3256 27.0441C30.8136 28.3249 30.0354 29.5004 28.8843 30.2525C27.7712 30.9798 26.4024 30.8826 25.0952 31.115C23.4285 31.4115 21.7621 32.4263 20.1887 31.7991C18.4936 31.1233 17.3218 29.4739 16.6766 27.759C16.0117 25.9916 15.6028 23.8383 16.5885 22.2294C17.5488 20.6618 19.9696 21.0472 21.4511 19.9652C22.9322 18.8835 23.2775 16.2345 25.0952 16.0164Z" fill="#F58634"/>
<path fill-rule="evenodd" clip-rule="evenodd" d="M14.8013 0.0300973C12.4824 0.252347 10.7198 0.745722 8.7935 1.71185C7.26313 2.47935 6.01838 3.39028 4.70413 4.70447C3.29863 6.11003 2.41681 7.34428 1.57613 9.08291C0.590689 11.1207 0.0926887 13.1485 0.0105012 15.4579C-0.0843738 18.1235 0.463751 20.6603 1.64969 23.045C2.48513 24.7248 3.3435 25.9132 4.70413 27.2738C6.07975 28.6494 7.2735 29.5084 8.95756 30.3345C10.1326 30.911 10.8913 31.1915 12.0826 31.4903C15.2064 32.2739 18.3526 32.1234 21.3908 31.0452C22.2224 30.7501 23.7176 30.0266 24.4263 29.5765C28.1876 27.1872 30.8196 23.397 31.6699 19.1454C31.9049 17.9703 31.9554 17.4117 31.9554 15.9892C31.9554 14.5666 31.9049 14.008 31.6699 12.8329C30.8427 8.69672 28.3253 4.98241 24.7388 2.60641C23.9216 2.06503 22.1712 1.19341 21.3013 0.894785C20.0275 0.45741 18.7169 0.17491 17.3951 0.0527848C16.7583 -0.00602769 15.3108 -0.0187152 14.8013 0.0300973ZM17.9888 2.27272C21.0061 2.72578 23.6069 4.03985 25.7725 6.20547C27.9497 8.3826 29.2445 10.9582 29.717 14.0517C29.8673 15.0353 29.8673 16.943 29.717 17.9267C29.3487 20.3382 28.477 22.4272 27.0311 24.3638C26.4618 25.1262 25.1259 26.4622 24.3635 27.0314C21.8415 28.9143 19.1073 29.8272 15.9888 29.8272C12.8761 29.8272 10.1305 28.9095 7.62794 27.0326C4.73713 24.8646 2.82325 21.6175 2.26088 17.9267C2.10969 16.9344 2.10906 15.0285 2.25963 14.0517C2.97563 9.40647 5.74838 5.59391 9.89506 3.55291C11.4969 2.76441 12.9591 2.36472 15.0201 2.15178C15.5102 2.10116 17.3436 2.17585 17.9888 2.27272ZM15.6548 6.45328C15.3628 6.55985 15.1533 6.7486 15.0236 7.02185C14.9384 7.20141 14.9263 7.78354 14.9263 11.7232V16.2195L15.0669 16.4763C15.1756 16.6748 15.8323 17.2322 17.9576 18.93C19.4701 20.1383 20.7835 21.1662 20.8763 21.2143C20.9692 21.2623 21.1829 21.3017 21.3514 21.3017C22.1099 21.3017 22.5976 20.4837 22.2606 19.7769C22.1847 19.6178 21.4799 19.0187 19.6056 17.5199L17.0539 15.4795L17.0369 11.2763L17.0201 7.0731L16.8449 6.8436C16.5448 6.45003 16.0806 6.29785 15.6548 6.45328Z" fill="white"/>
</svg>
