<svg width="32" height="32" viewBox="0 0 32 32" fill="none" xmlns="http://www.w3.org/2000/svg">
<path fill-rule="evenodd" clip-rule="evenodd" d="M25.0952 16.0164C26.8794 15.8023 28.1582 17.7328 29.4312 19.0078C30.5173 20.0955 31.5116 21.2971 31.8652 22.7968C32.2007 24.2205 31.8683 25.6866 31.3256 27.0441C30.8136 28.3249 30.0354 29.5004 28.8843 30.2525C27.7712 30.9798 26.4024 30.8826 25.0952 31.115C23.4285 31.4115 21.7621 32.4263 20.1887 31.7991C18.4936 31.1233 17.3218 29.4739 16.6766 27.759C16.0117 25.9916 15.6028 23.8383 16.5885 22.2294C17.5488 20.6618 19.9696 21.0472 21.4511 19.9652C22.9322 18.8835 23.2775 16.2345 25.0952 16.0164Z" fill="#F58634"/>
<path fill-rule="evenodd" clip-rule="evenodd" d="M11.7754 0.0354141C10.5575 0.191977 9.19871 0.741352 8.38946 1.40448C8.06353 1.67154 7.98778 1.83066 8.07184 2.07173C8.20196 2.44504 8.53647 2.45973 8.99847 2.11254C9.47478 1.7546 10.4907 1.2711 11.1192 1.10323C11.6473 0.962164 11.6757 0.961352 15.9942 0.961352C20.3273 0.961352 20.3392 0.961727 20.8692 1.10473C22.058 1.42554 23.2278 2.1631 23.9922 3.07398C24.4565 3.62729 25.0035 4.70135 25.1922 5.4301C25.3229 5.93504 25.3308 6.1131 25.3532 9.02385C25.3764 12.0389 25.3788 12.0885 25.5088 12.227C25.6995 12.43 26.0093 12.4162 26.1817 12.1971C26.3155 12.027 26.3157 12.0196 26.2919 8.93148L26.268 5.83635L26.1062 5.23798C25.879 4.39754 25.6168 3.80085 25.1741 3.11616C24.1063 1.4651 22.3192 0.334602 20.342 0.0596016C19.8922 -0.00296094 12.242 -0.0245234 11.7754 0.0354141ZM6.76746 3.21366C6.55471 3.42635 6.16365 4.2746 5.96965 4.94416C5.42265 6.83166 5.68603 8.38085 6.7464 9.51285L7.15665 9.95079L6.74246 10.365C6.25521 10.8522 5.92803 11.4537 5.77428 12.145C5.68365 12.5522 5.67434 12.9638 5.69972 15.442C5.73009 18.4164 5.74259 18.5605 6.04478 19.4301C6.20459 19.8899 6.58121 20.6304 6.8769 21.0662C7.21428 21.5634 8.06859 22.3999 8.57097 22.7249L8.99415 22.9987V25.6093C8.99415 28.3894 9.00697 28.5288 9.31797 29.1394C9.47397 29.4457 9.88365 29.8911 10.226 30.1266C10.5477 30.3479 11.5843 30.696 12.3705 30.8468C12.7557 30.9206 12.9576 30.9888 12.9813 31.053C13.078 31.3152 13.3577 31.6423 13.6143 31.7931C13.8986 31.9603 13.9093 31.9615 15.3042 31.9814C16.2566 31.995 16.7935 31.9775 16.9735 31.9272C17.2955 31.837 17.6919 31.5102 17.8285 31.2223C17.9286 31.0114 17.9327 31.0098 18.6335 30.9026C19.6017 30.7545 20.9236 30.4077 21.4167 30.1723C22.1322 29.8309 22.6401 29.2442 22.8757 28.4869C22.9759 28.165 22.9942 27.9069 22.9942 26.8104C22.9942 25.5365 22.9917 25.5121 22.8495 25.3785C22.5337 25.0818 22.1278 25.2797 22.074 25.7566L22.0413 26.047L21.4083 26.2696C20.5974 26.5548 19.7655 26.7746 18.9051 26.931C18.0392 27.0884 17.9942 27.0879 17.9942 26.9217C17.9942 26.4449 17.6387 25.9292 17.1548 25.7039C16.8528 25.5633 16.7747 25.5563 15.4937 25.5557C14.7545 25.5554 14.0538 25.5826 13.9367 25.6162C13.407 25.768 12.9317 26.3452 12.9317 26.8363V27.0693L12.6348 27.0255C12.1808 26.9585 10.7588 26.5801 10.3379 26.4142L9.9629 26.2664L9.94609 24.8506L9.92934 23.4349L10.1851 23.525C10.3257 23.5747 10.6848 23.665 10.9831 23.7258C11.4719 23.8254 11.9665 23.8364 15.9942 23.8364C20.0218 23.8364 20.5164 23.8254 21.0052 23.7258C21.3035 23.665 21.6587 23.576 21.7946 23.5281L22.0417 23.4409L22.0757 23.6947C22.1184 24.0132 22.2992 24.2009 22.5629 24.2009C22.8819 24.2009 22.9942 24.0074 22.9942 23.4575V22.9987L23.4173 22.7249C23.9197 22.3999 24.774 21.5634 25.1114 21.0662C25.5898 20.3612 25.961 19.516 26.1594 18.6801C26.2891 18.1337 26.3598 14.2717 26.2452 13.995C26.0948 13.6319 25.4837 13.6424 25.4027 14.0094C25.3858 14.0861 25.3622 15.0629 25.3502 16.1801C25.3251 18.5317 25.2879 18.7564 24.7456 19.8364C23.9638 21.3932 22.502 22.4897 20.7725 22.8167C20.145 22.9353 11.8433 22.9353 11.2158 22.8167C9.48634 22.4897 8.02453 21.3932 7.24271 19.8364C6.67228 18.7004 6.66072 18.618 6.63353 15.4926C6.61709 13.6058 6.6319 12.6613 6.68184 12.406C6.89884 11.2965 7.71653 10.4878 8.80665 10.3045C9.07534 10.2594 10.324 10.2426 12.4942 10.255C15.7385 10.2737 15.7788 10.2754 16.0748 10.4134C16.4653 10.5953 16.9943 11.0996 17.1758 11.463C17.4918 12.0957 17.4923 13.1338 17.1768 13.752C16.9796 14.1387 16.6008 14.5124 16.2 14.7154L15.8379 14.8989L12.9105 14.9301L9.98321 14.9614L9.8324 15.1367C9.64215 15.358 9.64209 15.5022 9.8324 15.7235L9.98315 15.8989L11.3168 15.9301L12.6504 15.9614L13.1138 16.2426C13.6815 16.5872 14.637 17.5195 14.924 18.0087C15.2388 18.5457 15.427 19.1249 15.4927 19.7598C15.5371 20.1894 15.5816 20.3579 15.6755 20.4518C15.8334 20.6096 16.1402 20.6117 16.3135 20.4562C16.4378 20.3445 16.4447 20.2935 16.4128 19.7114C16.346 18.4883 15.7795 17.3357 14.7655 16.36L14.3354 15.9461L15.0724 15.903C16.1298 15.8412 16.7025 15.625 17.3311 15.0504C17.9723 14.4645 18.2952 13.7519 18.3488 12.8051C18.3857 12.1545 18.2832 11.5615 18.0572 11.1188C17.9882 10.9834 17.9317 10.8574 17.9317 10.8389C17.9317 10.8203 18.446 10.8051 19.0748 10.8051C19.9042 10.8051 20.3201 10.7785 20.5904 10.7084C21.7815 10.3992 22.6579 9.57285 23.0268 8.41123C23.3143 7.50591 23.2042 6.9926 22.7226 6.9926C22.4353 6.9926 22.3094 7.15579 22.245 7.61166C22.1703 8.14016 22.0745 8.40779 21.8237 8.78854C21.5664 9.17929 21.2585 9.43435 20.7652 9.66548L20.4004 9.83635L18.7313 9.85566L17.0623 9.87504L16.6063 9.65735C16.3556 9.53766 15.9817 9.40766 15.7754 9.36841C15.2317 9.26498 8.59397 9.30641 8.34928 9.41479C8.19028 9.48516 8.14772 9.4751 7.91178 9.31141C7.57859 9.08023 7.37322 8.8596 7.09372 8.43235C6.76484 7.92979 6.65803 7.51423 6.6594 6.7426C6.66115 5.75673 6.78465 5.25404 7.29184 4.1681C7.5489 3.61766 7.56784 3.54554 7.49903 3.37929C7.42522 3.20123 7.20915 3.0551 7.01959 3.0551C6.96809 3.0551 6.85465 3.12641 6.76746 3.21366ZM16.9032 26.646L17.0567 26.7994L17.0567 28.7739V30.7483L16.9032 30.9017C16.7504 31.0545 16.7452 31.0551 15.4742 31.0551C14.2783 31.0551 14.1882 31.047 14.0338 30.9255L13.8692 30.796V28.7739L13.8692 26.7517L14.0338 26.6222C14.1882 26.5007 14.2783 26.4926 15.4742 26.4926C16.7452 26.4926 16.7504 26.4932 16.9032 26.646ZM22.0563 27.5082C22.0558 28.0725 21.9835 28.3388 21.7268 28.7209C21.4666 29.1082 21.1498 29.3142 20.5 29.5188C20.0327 29.6659 18.2769 30.0532 18.0707 30.0545C18.0087 30.055 17.9948 29.831 18.0082 29.0448L18.0254 28.0345L18.7129 27.92C19.5704 27.7771 20.7351 27.4894 21.4317 27.2484C21.7238 27.1472 21.984 27.0624 22.0098 27.0598C22.0356 27.0572 22.0565 27.259 22.0563 27.5082ZM10.7273 27.5269C11.1298 27.6489 11.7834 27.8125 12.1798 27.8904L12.9004 28.032L12.9176 29.0123C12.931 29.7744 12.9171 29.9925 12.8551 29.9924C12.6898 29.9921 11.2826 29.6128 11.0268 29.4997C10.3512 29.2008 9.98578 28.6349 9.94309 27.8211C9.92815 27.5373 9.9339 27.3051 9.95578 27.3051C9.97765 27.3051 10.3248 27.4049 10.7273 27.5269ZM15.1476 27.5835C14.9968 27.7343 14.9942 27.7552 14.9942 28.7914C14.9942 29.8127 14.9987 29.8501 15.1388 29.9817C15.3252 30.1568 15.6248 30.1589 15.7813 29.9862C15.8855 29.8712 15.9029 29.7339 15.9205 28.885C15.9425 27.83 15.8999 27.6177 15.6432 27.5007C15.415 27.3967 15.3182 27.4129 15.1476 27.5835Z" fill="#393D46"/>
</svg>
