<svg width="64" height="64" viewBox="0 0 64 64" fill="none" xmlns="http://www.w3.org/2000/svg">
<path fill-rule="evenodd" clip-rule="evenodd" d="M50.1905 32.0328C53.7587 31.6047 56.3164 35.4656 58.8625 38.0156C61.0345 40.191 63.0233 42.5942 63.7303 45.5936C64.4015 48.4409 63.7367 51.3733 62.6512 54.0882C61.6271 56.6497 60.0708 59.0007 57.7686 60.505C55.5424 61.9596 52.8048 61.7651 50.1905 62.2301C46.857 62.823 43.5242 64.8526 40.3773 63.5981C36.9871 62.2467 34.6435 58.9478 33.3532 55.5181C32.0234 51.9831 31.2057 47.6767 33.1769 44.4588C35.0975 41.3236 39.9392 42.0945 42.9021 39.9305C45.8644 37.7669 46.555 32.469 50.1905 32.0328Z" fill="#F58634"/>
<path fill-rule="evenodd" clip-rule="evenodd" d="M8.307 8.01284C7.46712 8.28897 7.04563 8.56034 6.50825 9.17084C5.80813 9.96622 5.6195 10.671 5.6195 12.492V13.9692H3.8655C1.95037 13.9692 1.47525 14.0825 0.8225 14.6946C0.62475 14.88 0.35875 15.2567 0.2315 15.5317C0.012125 16.0053 0 16.5648 0 26.1567C0 35.7486 0.012125 36.3081 0.2315 36.7817C0.35875 37.0567 0.62475 37.4335 0.8225 37.6188C1.47525 38.231 1.95037 38.3442 3.8655 38.3442H5.6195V39.8215C5.6195 41.7157 5.81613 42.4142 6.57863 43.2293C7.53838 44.2555 7.97363 44.3972 10.3255 44.4495C11.8986 44.4845 12.4936 44.4508 13.0226 44.2971C14.0133 44.0091 14.7715 43.3762 15.2334 42.4521L15.6195 41.6793V36.1367L15.6195 30.5942H17.2306H18.8419L18.8927 31.938C18.9312 32.9561 19.0066 33.418 19.2037 33.8442C19.3467 34.1536 20.1739 35.2656 21.0417 36.3153L22.6195 38.2238L22.6195 46.7156C22.6195 52.7607 22.6602 55.2967 22.7607 55.5173C23.0496 56.1516 24.041 56.208 24.3619 55.6085C24.4517 55.4405 24.4945 52.5082 24.4945 46.5052C24.4945 38.3266 24.478 37.6262 24.2791 37.3408C24.1606 37.1708 23.4011 36.2272 22.5915 35.244C21.7817 34.2608 21.035 33.2932 20.9319 33.094C20.8075 32.8533 20.7445 32.3658 20.7445 31.643V30.5543L29.7441 30.6428L38.7436 30.7315L39.0566 30.4185C39.4564 30.0187 39.4663 29.4786 39.0802 29.116C38.8039 28.8565 38.683 28.8442 36.3886 28.8442C33.6873 28.8442 33.2912 28.7571 32.8727 28.0705C32.3561 27.2232 32.7324 26.0646 33.6239 25.7575C33.9244 25.654 35.3516 25.6062 38.2854 25.6012L42.5137 25.5942L42.8791 25.9596L43.2445 26.325V29.4636C43.2445 31.8201 43.2024 32.7032 43.0752 33.0072C42.9823 33.2301 42.2354 34.2267 41.4156 35.222C39.3134 37.7747 39.4945 37.4007 39.4945 39.1902C39.4945 40.6772 39.5056 40.7417 39.8153 41.0513C40.075 41.3111 40.2115 41.3571 40.5324 41.2928C41.2169 41.156 41.3026 40.9696 41.35 39.5156L41.393 38.1953L42.959 36.3011C43.8204 35.2592 44.6422 34.1536 44.7852 33.8442C44.9824 33.418 45.0577 32.9561 45.0962 31.938L45.1471 30.5942H46.7584H48.3695V36.1367V41.6793L48.7556 42.4521C49.2175 43.3762 49.9757 44.0091 50.9664 44.2971C51.4954 44.4508 52.0904 44.4845 53.6635 44.4495C56.0317 44.3968 56.4851 44.246 57.428 43.1972C58.1831 42.3575 58.3695 41.689 58.3695 39.8215V38.3442H60.1235C62.0386 38.3442 62.5137 38.231 63.1665 37.6188C63.3643 37.4335 63.6302 37.0567 63.7575 36.7817C63.9767 36.3082 63.9891 35.746 63.9917 26.184C63.9947 15.1442 64.0239 15.6021 63.2691 14.7972C62.6227 14.108 62.1204 13.975 60.1507 13.972L58.3695 13.9692V12.492C58.3695 11.5383 58.3026 10.7892 58.1807 10.3791C57.9306 9.53684 57.0799 8.59485 56.2169 8.20497C55.6 7.9261 55.4105 7.90672 53.307 7.90672C51.2174 7.90672 51.0157 7.92709 50.4786 8.19172C49.6959 8.57734 49.0241 9.25609 48.6677 10.0216L48.372 10.6567L48.3708 16.188L48.3695 21.7192H45.932H43.4945V19.9176C43.4945 18.1286 43.4916 18.1106 43.0874 17.3296C42.6004 16.3888 41.8993 15.8076 40.9019 15.5176C40.0382 15.2665 39.1085 15.3422 38.3592 15.7245L37.8171 16.001L37.6294 15.7038C37.0119 14.7265 35.6784 13.9692 34.575 13.9692C33.5475 13.9692 32.7634 14.3052 31.9964 15.0741L31.2905 15.7817L30.7621 15.4881C29.5169 14.7962 27.8541 15.0447 26.7057 16.0942C26.1284 16.622 26.0006 16.6897 25.8727 16.5356C25.6302 16.2435 24.4115 15.8442 23.7621 15.8442C22.7733 15.8442 22.0144 16.1808 21.2244 16.9701C20.3201 17.8733 20.1195 18.4902 20.1195 20.367V21.7192H17.8695L15.6195 21.7192V20.2192C15.6195 18.8858 15.5918 18.6915 15.3695 18.4692C14.9973 18.097 14.3282 18.1358 14.0036 18.5486C13.7459 18.8762 13.7445 18.9367 13.7445 30.061C13.7445 42.6402 13.8033 41.862 12.8184 42.3387C12.367 42.5572 12.0475 42.5942 10.6112 42.594C8.70425 42.5938 8.26463 42.46 7.77825 41.732L7.4945 41.3072L7.495 26.1695C7.49538 11.3855 7.50113 11.0223 7.739 10.6322C8.1925 9.88847 8.491 9.78647 10.3558 9.7376C12.2719 9.68747 12.778 9.79222 13.3123 10.3493L13.682 10.735L13.7445 13.0991C13.8031 15.3186 13.8236 15.4798 14.0798 15.7355C14.4443 16.0993 15.1003 16.0828 15.4088 15.7018C15.6165 15.4452 15.6337 15.191 15.5971 12.9131C15.5521 10.1055 15.4821 9.84022 14.5361 8.8941C13.6968 8.05472 13.2036 7.9186 10.8695 7.88135C9.42212 7.85822 8.65788 7.89747 8.307 8.01284ZM55.6626 10.0072C55.8517 10.1313 56.116 10.4126 56.25 10.6322C56.4857 11.019 56.4936 11.3361 56.494 20.5686L56.4945 30.1056L56.8014 30.4123C56.9701 30.5811 57.2539 30.7192 57.432 30.7192C57.6101 30.7192 57.8939 30.5811 58.0626 30.4123L58.3695 30.1056L58.3695 22.9748V15.8442H59.9945C61.4529 15.8442 61.6451 15.8698 61.8695 16.0942C62.1152 16.34 62.1195 16.5108 62.1195 26.1781C62.1195 35.1532 62.1014 36.032 61.9126 36.2406C61.7319 36.4403 61.4949 36.4692 60.0376 36.4692H58.3695V34.9636C58.3695 33.5316 58.3545 33.4428 58.0626 33.1511C57.6716 32.76 57.1924 32.76 56.8014 33.1511L56.4945 33.4578V37.3826C56.4945 41.2547 56.4907 41.313 56.2108 41.732C55.7244 42.46 55.2848 42.5938 53.3778 42.594C51.9415 42.5942 51.622 42.5572 51.1706 42.3387C50.1676 41.8531 50.2375 43.1285 50.2743 25.9885L50.307 10.7393L50.6195 10.4008C51.1829 9.7906 51.5196 9.71447 53.5004 9.74947C55.0059 9.77622 55.3779 9.82047 55.6626 10.0072ZM5.6195 26.1567L5.6195 36.4692H3.97312C2.6165 36.4692 2.2865 36.4328 2.09812 36.2623C1.88038 36.0652 1.8695 35.5891 1.8695 26.1998C1.8695 16.5108 1.87375 16.34 2.1195 16.0942C2.34387 15.8698 2.53612 15.8442 3.9945 15.8442H5.6195L5.6195 26.1567ZM35.3174 16.045C35.5501 16.1555 35.854 16.4293 35.9925 16.6535C36.2269 17.0327 36.2445 17.2716 36.2445 20.0707C36.2445 23.0163 36.2385 23.0868 35.9632 23.3912C35.7079 23.6735 35.5739 23.7057 34.5086 23.742C33.3474 23.7813 33.3326 23.7781 33.0711 23.4288C32.8191 23.0921 32.807 22.9357 32.807 20.0317C32.807 17.1497 32.8208 16.9687 33.0659 16.6346C33.5971 15.9103 34.5229 15.668 35.3174 16.045ZM29.9867 17.1976C30.8041 17.636 30.8829 17.964 30.8426 20.7603L30.807 23.239L30.3444 23.6627C30.0899 23.8957 29.738 24.1225 29.5623 24.1666C29.105 24.2813 28.4495 24.1307 28.0545 23.82C27.4585 23.3511 27.3695 22.9283 27.3697 20.567C27.3699 18.7598 27.4056 18.3356 27.5885 17.9717C28.0437 17.0655 29.1029 16.7236 29.9867 17.1976ZM40.7388 17.481C41.5615 17.9435 41.6195 18.1567 41.6195 20.7192C41.6195 22.6431 41.5865 23.0491 41.405 23.3562C41.1908 23.7191 41.19 23.7192 39.9194 23.7192C38.1487 23.7192 38.182 23.7766 38.182 20.7192C38.182 18.4795 38.1914 18.3935 38.4815 17.9867C39.0227 17.228 39.9277 17.0252 40.7388 17.481ZM24.4695 17.8948C24.6551 17.9915 24.9476 18.2208 25.1195 18.4046C25.4235 18.7296 25.433 18.7952 25.4674 20.8227C25.4996 22.7326 25.4815 22.9407 25.2498 23.3141C24.4936 24.532 22.8477 24.4792 22.2135 23.2167C21.8945 22.5818 21.8945 19.3566 22.2135 18.7217C22.6437 17.8652 23.6815 17.4848 24.4695 17.8948ZM20.425 23.9232C20.4704 24.1042 20.8326 24.5773 21.2299 24.9746C21.7832 25.528 22.1087 25.7435 22.6211 25.8956C23.861 26.2638 25.0306 26.0561 26.0365 25.2888L26.4831 24.9482L26.9715 25.3407C27.904 26.0901 29.2374 26.286 30.3994 25.8443C30.7611 25.7068 31.0676 25.5943 31.0806 25.5943C31.0936 25.5942 31.0161 25.8531 30.9084 26.1695C30.7144 26.7386 30.7275 27.9942 30.9326 28.5005C31.0165 28.7073 30.605 28.7192 23.3204 28.7192H15.6195V26.1567L15.6195 23.5942L17.981 23.5942H20.3424L20.425 23.9232ZM48.3695 26.1567V28.7192H46.7576H45.1459L45.1014 27.2505C45.0614 25.9252 45.0241 25.7258 44.7211 25.2105C44.449 24.7475 44.042 24.3783 43.2632 23.8883C43.2391 23.8732 43.2565 23.8008 43.3019 23.7276C43.3558 23.6403 44.2462 23.5942 45.8769 23.5942H48.3695V26.1567ZM39.7663 43.7585C39.4955 44.0467 39.4945 44.0687 39.4945 49.7042C39.4945 53.4522 39.5392 55.4442 39.6271 55.6085C39.948 56.208 40.9394 56.1516 41.2282 55.5173C41.3265 55.3018 41.3695 53.513 41.3695 49.6451V44.0828L41.0626 43.7761C40.669 43.3823 40.1266 43.375 39.7663 43.7585Z" fill="#393D46"/>
</svg>
