<svg width="64" height="64" viewBox="0 0 64 64" fill="none" xmlns="http://www.w3.org/2000/svg">
<path fill-rule="evenodd" clip-rule="evenodd" d="M50.1905 32.0328C53.7587 31.6047 56.3164 35.4656 58.8625 38.0156C61.0345 40.191 63.0233 42.5942 63.7303 45.5936C64.4015 48.4409 63.7367 51.3733 62.6512 54.0882C61.6271 56.6497 60.0708 59.0007 57.7686 60.505C55.5424 61.9596 52.8048 61.7651 50.1905 62.2301C46.857 62.823 43.5242 64.8526 40.3773 63.5981C36.9871 62.2467 34.6435 58.9478 33.3532 55.5181C32.0234 51.9831 31.2057 47.6767 33.1769 44.4588C35.0975 41.3236 39.9392 42.0945 42.9021 39.9305C45.8644 37.7669 46.555 32.469 50.1905 32.0328Z" fill="#245990"/>
<path fill-rule="evenodd" clip-rule="evenodd" d="M22.2395 0.135975C20.9335 0.5051 19.7393 1.54472 19.1503 2.82522C18.8713 3.43173 18.8236 3.7076 18.8231 4.72247C18.8225 5.8471 18.8508 5.97472 19.3564 7.13247C19.65 7.80485 19.8724 8.43085 19.8506 8.52373C19.8288 8.6166 17.397 10.7383 14.4466 13.2387C8.76638 18.0527 8.40975 18.4138 7.83438 19.9363C7.57075 20.634 7.55863 20.8738 7.49838 26.5975L7.43588 32.535L5.59375 36.035C4.58063 37.96 3.751 39.6258 3.75 39.7368C3.74913 39.8478 3.86501 40.087 4.00751 40.2681C4.29426 40.6327 4.91775 40.7175 5.28113 40.4412C5.39425 40.3553 6.34713 38.6256 7.39875 36.5975L9.31088 32.91L9.37338 26.91L9.43588 20.91L9.78226 20.2047C9.97275 19.8169 10.4228 19.2167 10.7823 18.8711C11.5535 18.1297 20.0214 10.953 20.0674 11.0016C20.0848 11.02 20.006 11.7403 19.8924 12.6026L19.6859 14.1702L17.8479 16.3813C16.6219 17.8563 15.96 18.7589 15.8601 19.0924C15.728 19.5335 15.7871 20.0673 16.3628 23.6262C17.0746 28.0277 17.2261 28.5338 17.969 28.993C18.5148 29.3302 20.3135 29.4691 21.0383 29.23C21.7863 28.9831 22.0809 28.6487 23.2049 26.771C24.468 24.6607 24.7758 24.3475 25.5851 24.3475C26.0779 24.3475 26.2169 24.4116 26.6381 24.8327C27.3371 25.5319 27.3021 25.7832 26.1234 28.535C25.5734 29.8188 25.1234 31.0051 25.1234 31.171C25.1234 31.9039 26.1986 32.257 26.708 31.6912C26.8474 31.5365 27.4056 30.3694 27.9486 29.0975C28.8884 26.8964 28.9359 26.7398 28.9359 25.8475C28.9359 24.7722 28.7088 24.1912 28.019 23.5015C26.9761 22.4586 25.2968 22.1614 24.0259 22.7947C23.2043 23.2041 22.9856 23.4708 21.6699 25.6688L20.5903 27.4725H19.8018C19.368 27.4725 18.9795 27.4181 18.9385 27.3517C18.8975 27.2853 18.5829 25.5087 18.2393 23.4035L17.6145 19.576L18.5253 18.494L19.4359 17.4118L19.499 19.9328C19.5605 22.3856 19.5704 22.4625 19.8646 22.7756C20.2216 23.1556 20.7255 23.1948 21.1224 22.8735C21.3959 22.652 21.3993 22.6066 21.4271 18.7797C21.4503 15.5972 21.5034 14.5659 21.7266 12.9725C21.876 11.9068 21.9981 10.7165 21.9983 10.3272C21.9985 9.23847 21.6846 7.84135 21.1288 6.4556C20.4379 4.73372 20.4781 3.99072 21.322 2.88435C22.2689 1.64285 24.5108 1.5676 25.5775 2.7416C26.203 3.42997 26.3069 3.81847 26.324 5.53497C26.337 6.8361 26.3919 7.30272 26.5994 7.8766C26.9188 8.75997 27.4224 9.50535 28.158 10.1835C29.2356 11.1767 29.7818 11.3573 33.5769 11.9747C36.7361 12.4888 37.7794 12.7827 38.9384 13.4851C41.6364 15.1203 43.2866 18.2166 43.0914 21.2775C43.0561 21.8316 42.566 24.5856 42.0024 27.3974L40.9775 32.5098L41.2191 32.8348C41.386 33.0595 41.5996 33.1718 41.9099 33.1983C42.6553 33.262 42.7799 33.0245 43.2468 30.65C43.4754 29.4867 43.6959 28.4405 43.7368 28.3249C43.7923 28.1675 44.133 28.5028 45.0958 29.6623L46.3808 31.21L45.7538 35.0515C45.3719 37.3916 45.065 38.9323 44.9689 38.9933C44.7709 39.119 43.607 39.1253 43.4274 39.0018C43.3539 38.9513 42.909 38.2631 42.4386 37.4725C41.1106 35.2402 40.8414 34.9135 39.9729 34.4795C38.1185 33.5528 35.9711 34.3933 35.239 36.3323C34.7853 37.534 34.8864 37.9402 36.6806 42.1256C37.6694 44.432 38.5021 46.1831 38.8945 46.7807C40.0571 48.5517 42.0326 50.2205 43.9585 51.0586C44.7641 51.4092 44.77 51.4155 46.5689 53.8587C47.5605 55.2055 48.4855 56.4101 48.6243 56.5357C48.9814 56.8588 49.6081 56.8311 49.8929 56.4795C50.3586 55.9042 50.2359 55.6497 48.0921 52.746L46.0609 49.9946L45.0678 49.5148C42.8335 48.4353 41.205 47.0368 40.2236 45.3548C39.5949 44.2773 36.9809 38.1551 36.914 37.6033C36.7606 36.3386 38.5059 35.4737 39.4401 36.3515C39.6009 36.5025 40.2085 37.4215 40.7905 38.3936C41.3724 39.3658 41.9629 40.2647 42.1026 40.3912C42.686 40.9192 44.3191 41.1423 45.4008 40.842C45.9859 40.6795 46.6096 40.1611 46.8161 39.6658C46.9034 39.4563 47.272 37.4503 47.635 35.208C48.2864 31.1855 48.2924 31.1237 48.0848 30.583C47.9571 30.2507 47.1581 29.1855 46.0553 27.8772L44.2361 25.7194L44.4478 24.6272C44.5641 24.0265 44.694 23.4677 44.7363 23.3856C44.8024 23.2571 50.1169 27.6754 53.2824 30.4905C54.5694 31.635 54.6234 31.792 54.6234 34.3881C54.6234 36.3998 54.6429 36.5886 54.8825 36.8931C55.2071 37.3058 55.8761 37.3447 56.2484 36.9725C56.4809 36.74 56.4984 36.5558 56.4984 34.3488C56.4984 31.796 56.3988 31.2711 55.724 30.2666C55.5655 30.0307 53.0874 27.832 50.2171 25.3805L44.9984 20.9233V20.3964C44.9984 19.5787 44.679 18.1033 44.279 17.0732L43.9155 16.1372L44.4634 15.8465C45.6424 15.2211 46.5904 13.7987 46.8116 12.3233C47.0788 10.5421 45.492 8.7271 43.6645 8.72373C43.0371 8.72248 43.0156 8.7106 42.9304 8.31623C42.784 7.63885 42.2911 6.78585 41.794 6.34947C41.019 5.66897 40.3216 5.41672 39.2058 5.4131C38.2438 5.40997 38.2221 5.4031 38.0351 5.03497C37.759 4.49135 37.0125 3.74272 36.4359 3.43097C36.0241 3.20835 35.7209 3.15947 34.7175 3.15422L33.4991 3.14772L33.1406 2.59135C32.638 1.8116 32.1781 1.4156 31.3109 1.01597C30.7084 0.73835 30.3761 0.66935 29.6211 0.665225C28.8035 0.6606 28.5716 0.713975 27.8384 1.07472L26.9955 1.48947L26.4756 1.04447C25.4621 0.176975 23.5475 -0.23365 22.2395 0.135975ZM30.9351 2.9471C31.2606 3.17447 31.5653 3.55497 31.8101 4.04035C32.1494 4.7126 32.1859 4.90035 32.1853 5.97247C32.1848 7.01735 32.1448 7.2351 31.8524 7.78497C31.3793 8.6746 30.6016 9.40048 30.2234 9.3056C29.715 9.17797 28.9024 8.36922 28.5415 7.6316C28.2194 6.9731 28.1963 6.82385 28.2199 5.54885C28.2339 4.7936 28.1849 3.95097 28.111 3.67647C27.988 3.2196 28.0013 3.15822 28.2688 2.95022C28.9998 2.38147 30.1235 2.3801 30.9351 2.9471ZM35.7611 5.25622C36.3653 5.65985 36.6233 6.24897 36.622 7.22247C36.6213 7.8111 36.5404 8.20722 36.3286 8.65998C36.0195 9.32073 35.3661 10.0432 34.9615 10.1717C34.7316 10.2446 32.7484 9.99548 32.7484 9.8936C32.7484 9.8671 32.9153 9.61485 33.1194 9.33323C33.6949 8.53872 34.0171 7.54085 34.0838 6.34747C34.1163 5.7631 34.1649 5.21472 34.1918 5.12872C34.2763 4.85785 35.2879 4.9401 35.7611 5.25622ZM40.1281 7.50372C40.9035 7.89472 41.1546 8.41397 41.0868 9.48497C41.0489 10.0819 40.9373 10.4883 40.6829 10.9558C40.1566 11.9228 40.1439 11.9266 39.1003 11.427C38.5974 11.1862 38.0306 10.9511 37.841 10.9046C37.3926 10.7943 37.3029 10.6326 37.5428 10.3675C37.8783 9.99673 38.364 8.8016 38.4654 8.0976C38.5483 7.52185 38.6093 7.40785 38.8744 7.3341C39.3926 7.18985 39.5473 7.21085 40.1281 7.50372ZM44.3293 10.8382C44.8448 11.1526 45.06 11.7796 44.8808 12.4451C44.6876 13.1621 44.0689 13.9415 43.4564 14.2391L42.9204 14.4995L42.2313 13.7823L41.5423 13.0652L42.0828 12.2591C42.3801 11.8157 42.6234 11.3855 42.6234 11.303C42.6234 11.2206 42.711 11.0281 42.818 10.8753C43.0668 10.5201 43.7789 10.5026 44.3293 10.8382ZM24.4538 17.851C23.589 18.1101 23.321 18.9665 23.9498 19.4611C24.242 19.691 24.389 19.7099 25.356 19.6417C27.2109 19.5111 28.6355 20.0336 29.9158 21.3137C30.9575 22.3555 31.6234 23.9334 31.6234 25.3602C31.6234 25.6355 31.533 26.2581 31.4225 26.7439C31.2293 27.5937 31.2309 27.6395 31.4661 27.956C31.7376 28.3212 32.328 28.4475 32.7384 28.2278C33.3449 27.9032 33.6734 25.3961 33.3185 23.8008C33.052 22.6032 32.3131 21.1133 31.5631 20.2612C30.6061 19.174 28.899 18.193 27.3734 17.8537C26.6976 17.7034 24.9516 17.7019 24.4538 17.851ZM36.7075 29.0937C36.0848 29.2141 35.7068 29.5981 35.7068 30.11C35.7068 30.8451 35.982 30.9396 38.0553 30.9163C39.5775 30.8992 39.9133 30.8612 40.0885 30.686C40.3554 30.4191 40.361 29.6566 40.0981 29.3936C39.7276 29.0231 37.9059 28.862 36.7075 29.0937ZM32.1214 31.682C29.9998 33.95 29.4048 37.5217 30.6833 40.3142C31.0316 41.0755 31.2923 41.3375 31.7069 41.3435C32.1408 41.3498 32.3701 41.2162 32.5618 40.8458C32.726 40.5282 32.7093 40.4132 32.3598 39.4555C31.4673 37.0098 31.8793 34.7432 33.5584 32.8612C34.3156 32.0127 34.3969 31.695 33.9893 31.1768C33.8026 30.9395 33.6146 30.8475 33.3161 30.8475C32.9666 30.8475 32.7803 30.9777 32.1214 31.682ZM23.52 34.2537C23.3381 34.4772 22.7078 35.1418 22.1193 35.7308C21.1876 36.6632 20.8525 36.902 19.5273 37.5776C17.8166 38.4497 18.0824 38.1808 15.5703 41.583C13.6929 44.1253 13.5588 44.4568 14.2028 44.9633C14.5984 45.2746 14.8479 45.289 15.2285 45.0223C15.3858 44.9122 16.3466 43.7012 17.3639 42.3313L19.2135 39.8405L20.2318 39.3481C21.6145 38.6795 22.6471 37.958 23.6211 36.9801C24.7039 35.8931 25.2836 35.011 25.1865 34.5983C24.9958 33.7881 24.0573 33.594 23.52 34.2537ZM24.0895 39.1287C23.7518 39.3841 23.6606 39.827 23.7906 40.5812C23.8574 40.9682 23.9174 43.006 23.9239 45.1093C23.9373 49.3681 23.9333 49.3475 24.7443 49.3475C25.4873 49.3475 25.6515 49.0598 25.7636 47.563C25.9678 44.8362 25.8211 40.6922 25.4828 39.6277C25.288 39.0148 24.5769 38.7602 24.0895 39.1287ZM54.8728 39.8141C54.617 40.1393 54.606 40.2616 54.6449 42.3453L54.6859 44.535L56.6006 48.2225C57.6538 50.2506 58.6068 51.9803 58.7183 52.0662C59.0774 52.3427 59.7026 52.2576 59.9893 51.8931C60.1318 51.712 60.2476 51.4728 60.2466 51.3618C60.2456 51.2508 59.4195 49.585 58.4108 47.66L56.5766 44.16L56.5063 41.9933C56.4428 40.039 56.4121 39.8092 56.1933 39.6496C55.784 39.3508 55.1778 39.4265 54.8728 39.8141ZM23.8109 51.8473C23.3418 52.3658 23.3461 55.8241 23.8179 57.4568C24.359 59.3295 25.8195 61.2938 27.5025 62.4127C31.3659 64.9811 36.4695 64.2896 39.48 60.7901C40.7656 59.2956 41.2305 58.1845 41.9279 54.9397C42.3428 53.0097 42.3636 52.8162 42.1929 52.4861C41.9953 52.1037 41.7728 51.9725 41.3225 51.9725C40.8065 51.9725 40.5315 52.4501 40.2433 53.8475C39.476 57.5652 39.0711 58.5282 37.6896 59.921C35.4616 62.1671 32.1595 62.707 29.3109 61.2907C27.6294 60.4547 26.3721 59.0123 25.7294 57.182C25.3869 56.2063 25.3713 56.0675 25.3876 54.1246C25.4026 52.3335 25.378 52.0597 25.1821 51.8433C24.8801 51.5096 24.1146 51.5118 23.8109 51.8473Z" fill="#393D46"/>
</svg>
