<svg width="64" height="64" viewBox="0 0 64 64" fill="none" xmlns="http://www.w3.org/2000/svg">
<path fill-rule="evenodd" clip-rule="evenodd" d="M50.1905 32.0328C53.7587 31.6047 56.3164 35.4656 58.8625 38.0156C61.0345 40.191 63.0233 42.5942 63.7303 45.5936C64.4015 48.4409 63.7367 51.3733 62.6512 54.0882C61.6271 56.6497 60.0708 59.0007 57.7686 60.505C55.5424 61.9596 52.8048 61.7651 50.1905 62.2301C46.857 62.823 43.5242 64.8526 40.3773 63.5981C36.9871 62.2467 34.6435 58.9478 33.3532 55.5181C32.0234 51.9831 31.2057 47.6767 33.1769 44.4588C35.0975 41.3236 39.9392 42.0945 42.9021 39.9305C45.8644 37.7669 46.555 32.469 50.1905 32.0328Z" fill="#245990"/>
<path fill-rule="evenodd" clip-rule="evenodd" d="M34.1654 0.117258C33.1088 0.327883 32.2188 0.808133 26.1608 4.43676C21.9145 6.98026 19.729 8.36213 19.333 8.75401C18.3983 9.67926 17.8574 10.9865 17.8544 12.3281L17.8529 12.9786L13.2591 13.0156C8.67952 13.0525 8.66377 13.0535 8.14527 13.3506C6.4144 14.3424 6.46215 16.8344 8.22877 17.7041C8.72715 17.9496 9.3459 18.0238 13.7236 18.3624C16.4369 18.5724 18.6935 18.7854 18.7383 18.8359C18.8014 18.907 19.6804 24.5771 19.7711 25.4983C19.7818 25.6059 17.4756 28.2044 14.6464 31.2728C8.6144 37.8148 8.7904 37.5614 8.7904 39.7041V41.1058L12.8065 49.1446L16.8225 57.1836L16.3396 60.0556C16.074 61.6353 15.8559 63.0286 15.8548 63.152C15.8538 63.2755 15.997 63.5206 16.1733 63.6969C16.484 64.0076 16.5339 64.0159 17.8295 63.9715C19.0215 63.9306 19.2296 63.888 19.7619 63.576C20.6709 63.0433 20.933 62.5259 21.756 59.6418C22.8771 55.7128 23.0254 56.5706 19.6928 47.7084C18.1995 43.7378 16.9815 40.419 16.9859 40.3334C16.9903 40.2478 18.4825 38.8839 20.3023 37.3026C24.9125 33.2963 24.7279 33.4754 24.7279 33.01C24.7279 32.4868 24.3451 32.1151 23.8062 32.1151C23.4319 32.1151 22.9156 32.5261 19.2145 35.7714C16.739 37.9419 14.999 39.5583 14.9324 39.7491C14.8396 40.0151 15.1895 41.0553 16.9636 45.7864C18.1424 48.93 19.12 51.5649 19.1362 51.6415C19.1618 51.7636 17.194 52.9701 16.9457 52.9846C16.8937 52.9876 15.4451 50.1756 13.7269 46.7358C10.6429 40.5615 10.6029 40.4714 10.6056 39.7045C10.6074 39.2226 10.6956 38.7356 10.838 38.422C10.9783 38.1133 13.0646 35.7528 16.1965 32.3595L21.3253 26.8026L24.0543 25.8979L26.7833 24.9933L27.4553 25.3979C28.2839 25.8969 29.5581 27.2253 30.0739 28.1276C30.2861 28.4989 30.5803 29.1704 30.7276 29.6198C30.9729 30.3678 31.7381 31.3794 39.768 41.571C44.5928 47.6948 48.8035 53.0406 49.1251 53.4506L49.7099 54.196L48.8126 54.9656L47.9154 55.7353L37.6011 45.4253C27.687 35.5151 27.2691 35.1151 26.8289 35.1151C26.3207 35.1151 25.8529 35.5569 25.8529 36.0369C25.8529 36.4083 52.8424 63.423 53.5404 63.7503C55.617 64.7238 57.8678 62.3924 56.8183 60.355C56.6618 60.0513 51.1745 53.0051 44.6244 44.697C34.3299 31.6395 32.6769 29.486 32.4333 28.8149C31.7399 26.9046 30.3206 25.0925 28.5936 23.9125L27.7279 23.321L27.7284 20.1868L27.7289 17.0526L29.0073 16.686C30.1459 16.3594 30.3488 16.2561 30.8644 15.7406C31.1826 15.4223 31.5091 14.9618 31.5899 14.7171L31.7367 14.2724L32.2627 14.4536C32.9608 14.6941 34.5207 14.6824 35.2238 14.4314C36.575 13.949 37.633 13.0008 38.1989 11.7645C38.5816 10.9286 38.715 9.44238 38.4881 8.54138C38.4075 8.22151 38.3653 7.93613 38.394 7.90726C38.5158 7.78551 39.8743 9.18501 40.212 9.78013C40.7685 10.7606 40.9739 11.6305 41.1029 13.5526C41.2673 16.0024 41.7996 17.9513 42.7398 19.5448L43.0026 19.9901H41.7541C40.2375 19.9901 40.1168 20.0683 39.7248 21.3026C39.572 21.7839 39.399 22.2298 39.3404 22.2934C39.1986 22.4475 37.4228 20.6309 36.8144 19.7094C36.5536 19.3144 36.1397 18.6013 35.8945 18.1248C35.5892 17.5311 35.3426 17.2145 35.1114 17.1186C34.4938 16.8629 33.8529 17.3086 33.8529 17.9941C33.8529 18.3956 34.8103 20.1615 35.6102 21.2356C36.8828 22.9441 39.144 24.8651 39.8825 24.8651C40.4096 24.8651 40.6659 24.5045 41.1174 23.1273L41.531 21.8651H43.3656C44.9296 21.8651 45.2403 21.8328 45.4715 21.6454C45.9321 21.2724 45.8451 20.743 45.1773 19.8545C44.4478 18.884 43.6995 17.3488 43.3548 16.1151C43.1948 15.5428 43.0471 14.4831 42.9756 13.3941C42.8359 11.2648 42.6249 10.3774 41.9496 9.07701C40.6978 6.66676 38.1909 5.16076 34.9645 4.88076C33.4121 4.74601 32.4563 4.87063 31.5189 5.32963C30.6677 5.74638 29.6978 6.70863 29.2924 7.53838C28.944 8.25163 28.6794 9.47763 28.758 10.0138L28.8097 10.3651H26.7153H24.621L24.3571 10.0296C24.1325 9.74413 24.0986 9.55476 24.1293 8.75976L24.1654 7.82551L28.2904 5.33363C30.5591 3.96301 32.8373 2.63601 33.3529 2.38463L34.2904 1.92763L40.9404 1.89126L47.5904 1.85488L47.7985 2.17251C47.9915 2.46713 47.9918 2.51276 47.8019 2.80263C47.6893 2.97451 47.5313 3.11513 47.4509 3.11513C46.4231 3.11513 42.6071 3.54776 42.3861 3.68938C41.8509 4.03226 41.8703 4.83188 42.4225 5.19376C42.6965 5.37326 42.9429 5.37251 45.1943 5.18463C46.5534 5.07126 47.8555 4.91801 48.088 4.84426C48.7776 4.62513 49.4508 3.92376 49.6655 3.20063C49.9533 2.23163 49.7361 1.39551 49.0203 0.715508C48.2469 -0.019117 48.3349 -0.011117 41.2006 0.00388298C37.6063 0.011383 34.4404 0.062383 34.1654 0.117258ZM35.0661 7.00926C35.661 7.28963 36.301 7.96051 36.556 8.57076C36.6505 8.79701 36.7279 9.32201 36.7279 9.73751C36.7279 11.4859 35.4558 12.7651 33.717 12.7651C32.3293 12.7651 31.175 11.8944 30.7851 10.5531C30.2685 8.77576 31.3173 7.16176 33.2904 6.69763C33.6965 6.60213 34.5023 6.74351 35.0661 7.00926ZM22.2306 9.58388C22.2345 10.2468 22.6028 10.975 23.2116 11.524C23.5421 11.822 23.6758 12.0173 23.5749 12.0549C22.2319 12.5546 20.6913 12.9901 20.2659 12.9901H19.7279V12.4504C19.7279 11.207 20.2579 10.246 21.3529 9.50413C22.0974 8.99976 22.2273 9.01151 22.2306 9.58388ZM29.3415 12.5468C29.762 12.7643 30.0374 13.3613 29.9245 13.811C29.746 14.5221 29.4738 14.6384 25.4154 15.737C23.2841 16.314 21.2595 16.8308 20.9161 16.8854C20.496 16.9523 18.4513 16.8421 14.6661 16.549C9.86602 16.1771 9.01752 16.0824 8.88415 15.9028C8.67215 15.6173 8.68777 15.3666 8.93477 15.0938C9.12965 14.8784 9.48615 14.8651 15.0926 14.8651H21.0436L24.7295 13.6249C26.7568 12.9428 28.5448 12.3803 28.7029 12.3749C28.8609 12.3695 29.1484 12.4469 29.3415 12.5468ZM25.8529 20.4611V23.3071L23.7276 24.0129C21.646 24.7041 21.601 24.7131 21.5428 24.4481C21.4539 24.0441 20.7279 19.1403 20.7279 18.944C20.7279 18.8331 20.9548 18.7466 21.3841 18.6939C21.745 18.6496 22.8279 18.3926 23.7904 18.1229C24.7529 17.8531 25.6108 17.6285 25.6966 17.6238C25.8173 17.6171 25.8529 18.2631 25.8529 20.4611ZM20.2625 54.5839C20.7485 55.9573 20.7143 56.4943 19.9763 59.0581C19.2356 61.6316 19.168 61.7954 18.7708 61.9764C18.3657 62.1609 17.9783 62.1524 17.9761 61.9589C17.9751 61.873 18.1563 60.6914 18.3786 59.3331L18.7829 56.8638L18.2589 55.8071C17.876 55.0351 17.7755 54.7239 17.8859 54.6516C18.3212 54.3663 19.6826 53.633 19.7925 53.6248C19.8625 53.6194 20.0739 54.0511 20.2625 54.5839ZM53.1035 58.4909C54.27 59.9686 55.2251 61.2858 55.2261 61.4178C55.2285 61.7448 54.8711 62.1151 54.5534 62.1151C54.381 62.1151 53.4378 61.2611 51.7726 59.5974L49.2526 57.0796L50.0209 56.4096C50.4434 56.0411 50.8326 55.7543 50.8859 55.772C50.9391 55.7898 51.937 57.0133 53.1035 58.4909Z" fill="#393D46"/>
</svg>
