<svg width="64" height="64" viewBox="0 0 64 64" fill="none" xmlns="http://www.w3.org/2000/svg">
<path fill-rule="evenodd" clip-rule="evenodd" d="M50.1905 32.0328C53.7587 31.6047 56.3164 35.4656 58.8625 38.0156C61.0345 40.191 63.0233 42.5942 63.7303 45.5936C64.4015 48.4409 63.7367 51.3733 62.6512 54.0882C61.6271 56.6497 60.0708 59.0007 57.7686 60.505C55.5424 61.9596 52.8048 61.7651 50.1905 62.2301C46.857 62.823 43.5242 64.8526 40.3773 63.5981C36.9871 62.2467 34.6435 58.9478 33.3532 55.5181C32.0234 51.9831 31.2057 47.6767 33.1769 44.4588C35.0975 41.3236 39.9392 42.0945 42.9021 39.9305C45.8644 37.7669 46.555 32.469 50.1905 32.0328Z" fill="#A8CF45"/>
<path fill-rule="evenodd" clip-rule="evenodd" d="M24.0695 6.06171C29.2781 6.88409 33.6861 10.7707 35.335 15.9948C35.716 17.2018 35.7485 17.2553 36.2799 17.5516C37.0543 17.9832 37.9065 18.8978 38.3376 19.7601C38.5398 20.1642 38.7051 20.5025 38.7051 20.5118C38.7051 20.5211 39.2313 20.3952 39.8744 20.232C40.5174 20.0687 41.6508 19.8676 42.3929 19.7851L43.7423 19.6351L43.8795 19.1767C44.054 18.5946 44.8615 17.6726 45.5508 17.2686C46.027 16.9895 46.8258 16.7173 47.7879 16.5061C48.0368 16.4515 48.237 16.2252 48.5813 15.6095C50.3153 12.5088 54.3389 8.72071 56.3395 8.30546C57.6394 8.03559 59.0474 8.41734 60.0731 9.31796C60.5506 9.73721 62.7388 12.8956 63.2611 13.9197C63.8189 15.0128 63.7303 16.2547 63.0179 17.3303C62.5799 17.9916 61.9976 18.4085 60.9838 18.7867C60.0526 19.1341 59.1395 19.5988 58.3221 20.1416L57.6698 20.5747L58.0321 21.2848C58.6874 22.5683 58.7319 24.0242 58.1461 25.0168L57.891 25.4493L58.4336 26.1596C59.5558 27.6286 60.5945 29.7375 60.9019 31.1708C61.0049 31.6513 61.1046 31.7973 61.4609 31.9892C62.0646 32.3143 63.0576 33.3966 63.4253 34.1302C64.4428 36.1601 64.0926 38.4427 62.5068 40.1196C61.8408 40.8238 60.7158 41.4853 59.9353 41.6318C59.5374 41.7065 59.4658 41.7971 58.97 42.8536C58.131 44.6418 56.6764 46.7031 55.5646 47.6792L55.1098 48.0786L55.3746 48.4117C56.9388 50.3785 58.2765 53.7206 58.0993 55.2181C57.9015 56.8875 56.5369 57.9323 54.5546 57.9323C53.8736 57.9323 53.7111 57.8872 53.4495 57.6255C53.0584 57.2345 53.0584 56.7552 53.4495 56.3642C53.7081 56.1055 53.8759 56.0573 54.5181 56.0573C55.4388 56.0573 55.9265 55.829 56.1479 55.2946C56.3746 54.7472 56.064 53.5311 55.273 51.8698C54.7273 50.7235 53.8195 49.3138 53.6241 49.3092C53.5796 49.3082 53.1634 49.5381 52.6991 49.8201C47.8811 52.7471 41.59 52.791 36.6043 49.9321C35.999 49.5851 35.4543 49.3317 35.3936 49.3692C35.167 49.5093 34.1179 51.2007 33.7115 52.0813C33.2496 53.082 32.8926 54.3162 32.8926 54.9122C32.8926 55.135 33.018 55.4392 33.1943 55.6441L33.4959 55.9948L41.7828 56.0287L50.0696 56.0626L50.3561 56.3317C50.7383 56.6907 50.7283 57.2331 50.3324 57.629L50.0223 57.9391L41.6136 57.9045C33.2321 57.87 33.2035 57.869 32.6933 57.596C32.0974 57.2771 31.4346 56.5635 31.1895 55.9767C30.6273 54.631 31.6158 51.39 33.3076 49.0317L33.9889 48.0822L33.3684 47.476C32.5198 46.6472 31.619 45.5037 30.9761 44.4393L30.4384 43.5492L19.5669 43.5552C7.77102 43.5618 7.99201 43.5738 7.07726 42.8761C6.84126 42.6961 6.49226 42.2836 6.30164 41.9593C6.00251 41.4505 5.95639 41.2416 5.96464 40.4323C5.98039 38.8685 6.81551 36.7231 8.20039 34.6893L8.88802 33.6795L8.00564 32.7747C6.97201 31.7148 5.70514 29.8735 5.08276 28.5263C4.84076 28.0025 4.64264 27.5201 4.64264 27.4545C4.64264 27.3888 4.43164 27.297 4.17389 27.2502C3.38477 27.1071 2.48914 26.6293 1.76239 25.964C-0.0289841 24.324 -0.470985 21.8595 0.63739 19.6915C1.01814 18.9467 2.02289 17.9053 2.71151 17.5416C3.17539 17.2967 3.29564 17.1575 3.39977 16.7448C3.82452 15.0622 4.76114 13.1085 5.28176 12.8192C5.73977 12.5647 6.32701 12.8143 6.51089 13.3416C6.62564 13.6707 6.59876 13.8165 6.32776 14.3347C5.61414 15.6995 5.20851 16.9642 5.01526 18.427C4.88876 19.3848 4.93514 19.8073 5.16639 19.8073C5.61201 19.8073 8.04501 17.666 9.60452 15.9011C10.1214 15.3161 10.3121 15.1823 10.6286 15.1823C11.2021 15.1823 11.4591 15.5303 11.7013 16.635C11.82 17.1766 11.96 17.6653 12.0123 17.7208C12.1463 17.8633 13.5094 17.3867 14.7958 16.7476C16.183 16.0583 17.3728 15.2657 18.3498 14.3801C19.3938 13.4337 19.6376 13.4392 20.7069 14.434C21.6084 15.2726 22.768 16.0566 24.0801 16.7143C25.0605 17.2057 26.8669 17.8748 26.9605 17.7812C26.994 17.7476 27.1145 17.2757 27.2283 16.7325C27.4621 15.6155 27.7588 15.1823 28.2901 15.1823C28.5804 15.1823 28.9759 15.5173 30.4871 17.0436C32.2799 18.8541 33.6141 19.917 33.8846 19.7498C34.0758 19.6316 34.0485 18.6981 33.8211 17.5833C33.2141 14.6061 31.0625 11.4861 28.3741 9.68471C26.0153 8.10409 23.3293 7.52434 20.4963 7.98421C19.6734 8.11784 19.282 8.12759 18.8713 8.02496C18.5736 7.95059 17.5708 7.89071 16.6426 7.89196C15.3174 7.89371 14.7405 7.95171 13.9551 8.16209C12.565 8.53434 10.8525 9.40921 9.63314 10.37C9.06589 10.8167 8.52939 11.1823 8.44064 11.1823C7.93764 11.1823 7.39264 10.6356 7.39264 10.1308C7.39264 9.60459 9.31776 8.09259 11.0784 7.23609C11.7079 6.92984 12.7815 6.53046 13.464 6.34846C14.757 6.00396 14.8173 6.00134 19.4551 6.08909C19.8676 6.09684 20.9083 6.06771 21.7676 6.02421C22.627 5.98059 23.6629 5.99759 24.0695 6.06171ZM56.1873 10.3711C55.2795 10.8233 53.3269 12.4846 52.2759 13.6988C51.452 14.6505 50.2676 16.2911 50.2676 16.4803C50.2676 16.5227 50.402 16.5573 50.5661 16.5573C51.0653 16.5573 53.0263 17.1715 53.9651 17.6218C54.4519 17.8552 55.2018 18.3051 55.6314 18.6215L56.4128 19.1966L56.809 18.8978C57.5 18.3767 58.92 17.607 59.9866 17.1753C61.3179 16.6367 61.7051 16.2465 61.7051 15.4438C61.7051 14.8952 61.6005 14.6892 60.4141 12.9022C58.9799 10.7418 58.7548 10.4871 58.0608 10.2397C57.3538 9.98759 56.8916 10.02 56.1873 10.3711ZM18.4264 16.7415C16.456 18.1986 13.1751 19.6823 11.9239 19.6823C11.3066 19.6823 10.6749 19.2747 10.3246 18.6501L10.0653 18.1878L9.44777 18.8212C8.53539 19.7567 6.92226 21.0223 6.17389 21.3896C5.41927 21.76 5.41401 21.783 5.64776 23.6856C5.91326 25.8476 6.74826 28.0218 8.01864 29.8595C8.80801 31.0013 10.5246 32.673 11.7245 33.4681C15.4913 35.9642 20.3003 36.4637 24.669 34.8128C25.3094 34.5708 25.4424 34.4536 25.9593 33.6761C26.3443 33.0971 26.7875 32.6283 27.294 32.265C28.0373 31.7316 28.0583 31.7003 28.3509 30.6865C28.7048 29.4608 29.5683 27.6886 30.3629 26.5573C30.6769 26.1105 31.4869 25.1925 32.1631 24.5175L33.3926 23.2901V22.4973V21.7046L32.8614 21.4443C32.1128 21.0776 30.8626 20.1086 29.7861 19.0607C29.2806 18.5687 28.8588 18.1838 28.8486 18.2055C28.3554 19.2547 27.8141 19.6823 26.9791 19.6823C26.3526 19.6823 24.8669 19.1832 23.4386 18.4928C22.2351 17.9112 20.243 16.6385 19.8415 16.195C19.7109 16.0505 19.5851 15.9323 19.5623 15.9323C19.5395 15.9323 19.0283 16.2965 18.4264 16.7415ZM47.007 18.6697C46.3899 18.9041 45.6341 19.4773 45.7775 19.6021C45.8065 19.6272 46.4879 19.7408 47.2918 19.8546C50.4903 20.307 53.4765 21.56 55.7291 23.3947C56.4795 24.006 56.6349 24.0487 56.6615 23.6511C56.7331 22.5826 56.2876 21.702 55.1463 20.6558C53.9633 19.5715 52.0118 18.6762 50.2051 18.3888C49.3818 18.258 47.7026 18.4053 47.007 18.6697ZM35.4538 20.8088C35.3514 20.9221 35.2676 21.2498 35.2676 21.5377V22.061L36.0489 21.6693C36.4785 21.454 36.8518 21.2581 36.8783 21.2341C36.9686 21.1518 36.5988 20.3995 36.284 20.0252L35.9694 19.6513L35.8046 20.1273C35.714 20.3891 35.5561 20.6958 35.4538 20.8088ZM2.57602 20.1142C1.71352 21.2448 1.69489 22.902 2.53139 24.0767C2.78851 24.4377 3.70664 25.1823 3.89464 25.1823C3.94376 25.1823 3.93789 24.9433 3.88152 24.6511C3.82502 24.3588 3.73889 23.4168 3.69001 22.5576C3.62314 21.3802 3.54489 20.9028 3.37239 20.6201C3.24652 20.4137 3.14339 20.1183 3.14314 19.9636C3.14239 19.5652 2.95726 19.6143 2.57602 20.1142ZM27.1033 20.4332C27.5196 20.601 27.6426 20.9531 27.6426 21.9776C27.6426 22.8406 27.6168 22.9346 27.3133 23.1732C26.9049 23.4945 26.5079 23.5032 26.1323 23.1991C25.8966 23.0083 25.8345 22.8142 25.7913 22.1353C25.7299 21.1711 25.9005 20.6508 26.3445 20.4486C26.7015 20.2858 26.7358 20.2852 27.1033 20.4332ZM12.6033 20.4332C13.0196 20.601 13.1426 20.9531 13.1426 21.9776C13.1426 22.8406 13.1168 22.9346 12.8133 23.1732C12.4049 23.4945 12.0079 23.5032 11.6323 23.1991C11.3966 23.0083 11.3345 22.8142 11.2913 22.1353C11.2299 21.1711 11.4005 20.6508 11.8445 20.4486C12.2015 20.2858 12.2358 20.2852 12.6033 20.4332ZM41.8264 21.7415C36.82 22.5535 32.7563 25.4166 30.8139 29.5003C29.9501 31.3162 29.5146 33.5667 29.956 33.9331C30.2095 34.1435 31.2903 34.0146 33.0941 33.5591C35.7948 32.877 39.297 31.2766 41.7656 29.5965C43.7235 28.264 43.9655 28.1536 44.7623 28.2296C45.3041 28.2812 45.5996 28.4043 46.1998 28.8282C47.9109 30.0371 48.6806 30.4932 50.7051 31.4978C53.0345 32.6537 55.2286 33.4423 57.1543 33.8156C58.6791 34.1112 58.9419 34.1152 59.2094 33.8477C59.8018 33.2553 58.6268 29.6056 57.2 27.6061C54.9144 24.4031 51.0478 22.2062 46.7051 21.6435C45.73 21.517 42.8536 21.5748 41.8264 21.7415ZM21.6426 21.6472C22.0579 21.7972 22.2676 22.1048 22.2676 22.5637C22.2676 22.9421 22.1838 23.1051 21.8285 23.4171C21.1416 24.0201 20.6509 24.2181 19.6878 24.2806C18.9174 24.3305 18.6983 24.294 18.0838 24.0126C16.5721 23.3206 16.151 22.1448 17.2515 21.689C17.6621 21.519 17.9208 21.6078 18.5585 22.1385C19.1288 22.6127 20.0294 22.5257 20.7051 21.9311C21.0028 21.6692 21.3838 21.5538 21.6426 21.6472ZM43.7239 30.5435C40.3046 33.0695 35.426 35.177 31.5309 35.8106L30.6066 35.961L30.68 37.2905C30.8909 41.1166 32.7754 44.7293 35.8164 47.137C41.3288 51.5015 49.304 51.1127 54.2944 46.2363C56.8723 43.7175 58.2121 40.8027 58.4685 37.1567L58.5531 35.953L57.9416 35.8673C54.0585 35.3232 49.0479 33.208 45.4614 30.5985C45.0523 30.3008 44.6421 30.0573 44.5498 30.0573C44.4575 30.0573 44.0859 30.2761 43.7239 30.5435ZM60.5689 35.1896C60.4519 35.3225 60.3769 35.8783 60.333 36.9396C60.2976 37.795 60.2198 38.734 60.1599 39.0261C60.1001 39.3182 60.0745 39.5573 60.1031 39.5573C60.3205 39.5573 60.9435 39.1002 61.3108 38.6711C62.3093 37.5046 62.3955 35.7902 61.5179 34.5576L61.2381 34.1647L60.9893 34.5798C60.8524 34.8081 60.6633 35.0825 60.5689 35.1896ZM27.2663 35.2131C26.9389 35.9742 26.9591 37.2202 27.3108 37.9458C27.6338 38.6125 28.7793 39.7123 28.9611 39.5305C28.9946 39.4971 28.9658 39.0816 28.8973 38.6073C28.8286 38.133 28.7691 37.2105 28.765 36.5573C28.7579 35.4275 28.7395 35.3488 28.3875 34.9371C28.1841 34.6991 28.0176 34.4231 28.0176 34.324C28.0176 33.9906 27.5585 34.5338 27.2663 35.2131ZM52.0986 34.8156C52.5793 34.9933 52.7676 35.423 52.7676 36.3408C52.7676 37.0797 52.7266 37.2347 52.4608 37.5005C52.0859 37.8755 51.6589 37.892 51.222 37.5482C50.9185 37.3096 50.8926 37.2156 50.8926 36.3526C50.8926 35.8373 50.9478 35.313 51.015 35.1872C51.174 34.8902 51.7585 34.6897 52.0986 34.8156ZM37.5986 34.8156C38.0793 34.9933 38.2676 35.423 38.2676 36.3408C38.2676 37.0797 38.2266 37.2347 37.9608 37.5005C37.5859 37.8755 37.1589 37.892 36.722 37.5482C36.4185 37.3096 36.3926 37.2156 36.3926 36.3526C36.3926 35.8373 36.4478 35.313 36.515 35.1872C36.674 34.8902 37.2585 34.6897 37.5986 34.8156ZM9.79364 35.6596C8.50089 37.5026 7.55539 40.1181 7.88989 40.9257C8.21351 41.7071 7.85139 41.6823 18.9705 41.6823H29.0731L28.1683 41.2487C27.6379 40.9946 27.0145 40.5661 26.6618 40.2133C25.9345 39.4862 25.2913 38.2308 25.1846 37.3311C25.1208 36.7912 25.0694 36.684 24.9058 36.7482C23.6678 37.2335 21.028 37.6823 19.412 37.6823C16.6735 37.6823 13.1489 36.6471 10.9551 35.1982C10.7489 35.0621 10.518 34.9465 10.442 34.9415C10.366 34.9365 10.0743 35.2596 9.79364 35.6596ZM47.1426 36.3073C47.565 36.7297 47.4705 37.2738 46.8799 37.8191C46.2483 38.4022 45.4595 38.6832 44.4641 38.6796C43.5925 38.6765 42.9136 38.4127 42.2283 37.8108C41.8515 37.4801 41.7676 37.3212 41.7676 36.9387C41.7676 36.6445 41.8524 36.3945 41.9963 36.2642C42.2865 36.0016 43.0601 35.9948 43.2745 36.2531C43.8153 36.9047 44.8605 36.9845 45.6228 36.4323C46.2284 35.9937 46.7833 35.948 47.1426 36.3073Z" fill="#393D46"/>
</svg>
