<svg width="64" height="64" viewBox="0 0 64 64" fill="none" xmlns="http://www.w3.org/2000/svg">
<path fill-rule="evenodd" clip-rule="evenodd" d="M50.1905 32.0328C53.7587 31.6047 56.3164 35.4656 58.8625 38.0156C61.0345 40.191 63.0233 42.5942 63.7303 45.5936C64.4015 48.4409 63.7367 51.3733 62.6512 54.0882C61.6271 56.6497 60.0708 59.0007 57.7686 60.505C55.5424 61.9596 52.8048 61.7651 50.1905 62.2301C46.857 62.823 43.5242 64.8526 40.3773 63.5981C36.9871 62.2467 34.6435 58.9478 33.3532 55.5181C32.0234 51.9831 31.2057 47.6767 33.1769 44.4588C35.0975 41.3236 39.9392 42.0945 42.9021 39.9305C45.8644 37.7669 46.555 32.469 50.1905 32.0328Z" fill="#F58634"/>
<path fill-rule="evenodd" clip-rule="evenodd" d="M10.4065 0.28673C8.67322 0.877606 7.46522 2.17511 7.05522 3.88673C6.98297 4.18811 5.76397 14.3629 4.34634 26.4972C2.01147 46.482 1.78109 48.6344 1.89972 49.3519C2.17422 51.0114 3.20534 52.3775 4.76184 53.1439L5.60647 53.5597L16.8905 53.5936L28.1745 53.6274L28.175 58.2186C28.1753 62.5516 28.1891 62.8322 28.4195 63.2099C28.8412 63.9017 29.1901 63.9972 31.2972 63.9972C33.3686 63.9972 33.8745 63.8805 34.2437 63.317C34.3612 63.1377 34.4945 62.8096 34.5397 62.5879L34.6222 62.1847L39.2006 62.152L43.779 62.1192L43.864 62.527C43.9812 63.0892 44.2418 63.4657 44.7125 63.7527C45.0631 63.9665 45.3496 63.9964 47.0515 63.9967C49.2501 63.9972 49.6622 63.8769 50.0711 63.1145C50.2802 62.7245 50.2995 62.3072 50.2995 58.1617V53.6349L54.3963 53.5974L58.4931 53.5597L59.3375 53.1439C60.8938 52.3772 61.9248 51.0111 62.1991 49.3519C62.3146 48.6532 62.2321 47.7186 61.4998 41.4347C61.0432 37.516 60.6412 34.1817 60.6063 34.0254C60.5173 33.6252 60.1032 33.2472 59.7538 33.2472C59.2615 33.2472 58.7995 33.703 58.7995 34.1889C58.7995 34.4217 59.1686 37.7504 59.6198 41.586C60.096 45.6335 60.4092 48.7612 60.3665 49.04C60.2016 50.1151 59.1975 51.301 58.1986 51.6002C57.8705 51.6986 56.4813 51.7472 54.0037 51.7472H50.2995V50.5597V49.3722H53.3035C56.6011 49.3722 56.8773 49.324 57.446 48.6481C57.6232 48.4375 57.8038 48.0759 57.8472 47.8446C57.914 47.4889 53.213 6.81973 52.9772 5.71298C52.8766 5.24123 52.3356 4.62461 51.8406 4.41773C51.5091 4.27923 49.7883 4.24723 42.6728 4.24723L33.9131 4.24723L33.6063 4.55411C33.2152 4.94511 33.2152 5.42436 33.6063 5.81536L33.9131 6.12223L42.5296 6.12223L51.1461 6.12223L51.2227 6.65348C51.2648 6.94573 52.3398 16.0441 53.6116 26.8722C54.8833 37.7004 55.9571 46.7707 55.9976 47.0285L56.0715 47.4972H53.201H50.3305L50.27 45.2785C50.2172 43.3505 50.1682 42.9341 49.896 42.1014C49.4211 40.649 48.7496 39.5511 47.6851 38.4866C46.6256 37.4271 45.5341 36.7576 44.0703 36.2695C43.2387 35.9922 42.8971 35.95 41.487 35.9502C40.0631 35.9505 39.7378 35.9916 38.8593 36.2827C37.0256 36.8905 35.4032 38.0809 34.3423 39.5971C34.02 40.0577 33.7188 40.479 33.6733 40.533C33.6278 40.587 33.3867 40.301 33.1377 39.8975C32.0007 38.0555 29.6727 36.4847 27.4288 36.0457C22.9093 35.1615 18.4347 37.9961 17.291 42.468C17.1007 43.212 17.0495 43.8454 17.0495 45.4547V47.4972H12.5385H8.02747L8.10147 47.0285C8.14222 46.7707 9.21559 37.7004 10.487 26.8722C11.7582 16.0441 12.8331 6.94561 12.8756 6.65348L12.9528 6.12223L21.5693 6.12223L30.1858 6.12223L30.4926 5.81536C30.8837 5.42436 30.8837 4.94511 30.4926 4.55411L30.1858 4.24723L21.4261 4.24723C14.3106 4.24723 12.5898 4.27923 12.2583 4.41773C11.7636 4.62448 11.2225 5.24098 11.1215 5.71298C10.9026 6.73698 6.17622 47.4984 6.23709 47.8374C6.32947 48.3519 6.85972 48.983 7.38334 49.2017C7.71672 49.341 9.65809 49.3722 17.983 49.3722L28.1745 49.3722V50.5597V51.7472L17.2827 51.7472C9.29622 51.7472 6.26009 51.708 5.90034 51.6002C4.90122 51.3009 3.89684 50.1146 3.73272 49.04C3.65859 48.5544 8.69709 4.96273 8.92284 4.13686C9.18497 3.17811 10.1 2.29348 11.1233 2.00923C11.8118 1.81811 52.2871 1.81811 52.9756 2.00923C54.0445 2.30611 55.0445 3.32736 55.229 4.31086C55.2741 4.55136 55.9793 10.4635 56.7962 17.4489C58.1912 29.3779 58.2985 30.1676 58.5622 30.4484C58.8572 30.7624 59.2852 30.8306 59.6696 30.6249C60.1388 30.3737 60.1515 29.9425 59.781 26.8097C59.586 25.1597 58.8985 19.3019 58.2533 13.7922C57.174 4.57373 57.054 3.71698 56.749 3.05098C56.0917 1.61511 55.0602 0.703606 53.5728 0.244231C52.7897 0.00235552 52.341 -0.00264449 32.0051 0.000480509L11.237 0.00373051L10.4065 0.28673ZM21.9836 11.5469C21.848 11.643 21.4953 11.9525 21.2001 12.2347C20.6111 12.7977 20.0241 13.1336 19.1972 13.3806C18.6321 13.5495 18.1745 13.9976 18.1745 14.3821C18.1745 14.5065 18.3062 14.7615 18.4673 14.9487C18.6931 15.2114 18.8631 15.2854 19.2097 15.2724C19.8822 15.247 21.1423 14.6872 21.9648 14.0485L22.6942 13.4821L23.3406 13.9754C24.138 14.584 24.9188 14.9837 25.737 15.2024C26.4732 15.399 28.1336 15.4187 28.9083 15.2401C29.653 15.0685 30.8213 14.4735 31.4905 13.9252L32.044 13.4716L32.6838 13.9811C33.9235 14.968 35.0841 15.3651 36.737 15.3677C38.3151 15.3702 39.4421 14.98 40.7583 13.9754L41.4047 13.4821L42.1341 14.0485C42.9566 14.6872 44.2167 15.247 44.8892 15.2724C45.2358 15.2854 45.4058 15.2114 45.6316 14.9487C45.7927 14.7615 45.9245 14.5065 45.9245 14.3821C45.9245 13.9976 45.4668 13.5495 44.9017 13.3806C44.0748 13.1336 43.4878 12.7977 42.8988 12.2347C42.1252 11.4951 41.9188 11.3722 41.451 11.3722C40.9046 11.3722 40.6332 11.5252 39.7726 12.318C38.7801 13.2321 37.9467 13.5317 36.5495 13.4766C35.2767 13.4265 34.3678 13.0416 33.5246 12.1959C32.8763 11.5457 32.5656 11.3722 32.0495 11.3722C31.5333 11.3722 31.2226 11.5457 30.5743 12.1959C29.7311 13.0416 28.8222 13.4265 27.5495 13.4766C26.1522 13.5317 25.3188 13.2321 24.3263 12.318C23.9335 11.956 23.4891 11.5951 23.339 11.516C22.966 11.3196 22.2825 11.3351 21.9836 11.5469ZM21.987 19.2739C21.8495 19.353 21.484 19.6701 21.1747 19.9786C20.4932 20.6585 19.5627 21.1041 18.5172 21.2515C17.6403 21.375 17.2995 21.6576 17.2995 22.2611C17.2995 22.8154 17.6903 23.1225 18.3932 23.1207C19.5816 23.1177 21.0616 22.5382 22.1433 21.6522L22.6746 21.217L23.3308 21.7179C24.6242 22.7051 25.8223 23.123 27.3535 23.1207C28.938 23.1184 30.0417 22.7382 31.3932 21.7291L32.0495 21.2391L32.7057 21.7294C34.1638 22.8187 35.3657 23.1897 37.1262 23.0941C38.6472 23.0114 39.7317 22.5686 41.0705 21.484L41.404 21.2137L41.9455 21.6535C43.0366 22.5396 44.5185 23.1177 45.7057 23.1207C46.4086 23.1225 46.7995 22.8154 46.7995 22.2611C46.7995 21.6576 46.4586 21.375 45.5817 21.2515C44.5348 21.104 43.605 20.658 42.9236 19.9766C42.243 19.296 41.9381 19.1222 41.4245 19.1222C40.9056 19.1222 40.6245 19.2831 39.7726 20.068C38.8556 20.9125 37.9941 21.2472 36.737 21.2472C35.4798 21.2472 34.6183 20.9125 33.7013 20.068C32.8495 19.2831 32.5683 19.1222 32.0495 19.1222C31.5306 19.1222 31.2495 19.2831 30.3976 20.068C29.4806 20.9125 28.6191 21.2472 27.362 21.2472C26.1048 21.2472 25.2433 20.9125 24.3263 20.068C23.9335 19.706 23.4891 19.3451 23.339 19.266C22.9918 19.0832 22.3111 19.0871 21.987 19.2739ZM22.1812 26.8852C22.0131 26.9524 21.5772 27.2894 21.2128 27.634C20.2658 28.5296 19.4398 28.8727 17.972 28.98C16.6403 29.0774 16.4245 29.2112 16.4245 29.9392C16.4245 30.6292 16.7747 30.8106 18.0946 30.804C19.7451 30.7957 21.0483 30.3122 22.1825 29.2877L22.6592 28.857L23.3231 29.3967C24.6972 30.514 26.5292 31.033 28.2323 30.7876C29.3516 30.6264 30.79 29.981 31.5397 29.3037L32.0601 28.8335L32.4611 29.2131C34.6881 31.3215 38.3926 31.3812 40.8348 29.3481L41.4326 28.8505L41.913 29.2845C43.0508 30.3124 44.352 30.7957 46.0043 30.804C47.3242 30.8106 47.6745 30.6292 47.6745 29.9392C47.6745 29.2112 47.4586 29.0774 46.127 28.98C44.66 28.8727 43.8331 28.5296 42.8882 27.636C41.7 26.5122 41.2171 26.5121 39.9518 27.6352C38.8452 28.6176 38.0672 28.924 36.6745 28.926C35.3522 28.9279 34.5493 28.5939 33.453 27.5859C32.2881 26.515 31.7613 26.5242 30.5857 27.636C29.5893 28.5782 28.7327 28.9279 27.4245 28.926C26.0457 28.924 25.2285 28.6087 24.208 27.6852C23.2143 26.7861 22.8196 26.6302 22.1812 26.8852ZM28.0718 38.1554C29.1982 38.566 30.0315 39.1219 30.8558 40.0124C31.6151 40.8324 32.322 42.1819 32.5373 43.2221C32.6296 43.6675 32.6745 46.8726 32.6745 53.0034L32.6745 62.1222H31.3666H30.0586L30.0228 52.9035L29.987 43.6847L29.6361 42.9347C29.1841 41.9689 28.2636 41.096 27.323 40.7414C26.3692 40.3817 24.757 40.4377 23.9433 40.8587C23.1223 41.2835 22.3443 42.0676 21.9635 42.8544C21.645 43.5122 21.6186 43.6922 21.5726 45.5285L21.5232 47.4972H20.2238H18.9245L18.926 45.591C18.9276 43.473 19.0523 42.8045 19.6865 41.5165C20.1676 40.539 21.4461 39.2065 22.4446 38.6417C24.0947 37.7086 26.3192 37.5162 28.0718 38.1554ZM43.0176 37.935C44.977 38.397 46.6858 39.7154 47.5928 41.4651C48.422 43.0646 48.4198 43.0346 48.4223 53.091L48.4245 62.1222H47.0495C46.2932 62.1222 45.6745 62.0871 45.6745 62.0442C45.6745 62.0014 45.93 61.7414 46.2422 61.4665C47.0496 60.7559 47.352 60.1195 47.3561 59.1222C47.3606 58.0602 46.9741 57.2402 46.2181 56.7074L45.6745 56.3241V54.8746V53.4252L46.2381 52.9541C47.0318 52.2905 47.3491 51.6282 47.3562 50.6196C47.3635 49.5995 46.9561 48.7319 46.2131 48.1847L45.704 47.8097L45.6571 45.6222C45.6127 43.5452 45.5937 43.4032 45.2805 42.8097C44.4752 41.2841 43.181 40.4922 41.4782 40.4834C40.2655 40.477 39.3002 40.8955 38.4475 41.7971C37.5012 42.7976 37.2995 43.4816 37.2995 45.6895V47.4972H35.9082H34.517L34.5792 45.466C34.6446 43.3317 34.7326 42.9082 35.4037 41.4972C35.6047 41.0747 36.0933 40.4442 36.6713 39.8615C38.4527 38.0656 40.6905 37.3864 43.0176 37.935ZM42.612 42.5896C42.9925 42.7967 43.5178 43.3932 43.6665 43.7866C43.7396 43.9801 43.7995 44.8942 43.7995 45.8179V47.4972H41.487H39.1745V45.8047C39.1745 44.3616 39.2111 44.0405 39.4233 43.6245C40.0032 42.4879 41.5206 41.9954 42.612 42.5896ZM26.9773 42.6725C27.2757 42.8474 27.6196 43.1996 27.8008 43.5162C28.083 44.0091 28.116 44.2199 28.1552 45.7785L28.1985 47.4972H25.802L23.4056 47.4972L23.4462 45.7785C23.4792 44.3895 23.5332 43.9666 23.728 43.5741C24.2807 42.4604 25.8651 42.0207 26.9773 42.6725ZM44.9063 49.5504C45.6105 49.9145 45.7475 50.8184 45.1841 51.3819L44.8187 51.7472H39.6841H34.5495V50.5597V49.3722H39.5557C43.6441 49.3722 44.6251 49.4049 44.9063 49.5504ZM43.7995 54.8097V55.9972H39.1745H34.5495V54.8097V53.6222H39.1745H43.7995V54.8097ZM45.1848 58.343C45.6692 58.8852 45.669 59.397 45.1841 59.8819L44.8187 60.2472H39.6841H34.5495V59.0557V57.8642L39.6848 57.8995L44.8202 57.9347L45.1848 58.343Z" fill="#393D46"/>
</svg>
