<svg width="64" height="64" viewBox="0 0 64 64" fill="none" xmlns="http://www.w3.org/2000/svg">
<path fill-rule="evenodd" clip-rule="evenodd" d="M50.1905 32.0328C53.7587 31.6047 56.3164 35.4656 58.8625 38.0156C61.0345 40.191 63.0233 42.5942 63.7303 45.5936C64.4015 48.4409 63.7367 51.3733 62.6512 54.0882C61.6271 56.6497 60.0708 59.0007 57.7686 60.505C55.5424 61.9596 52.8048 61.7651 50.1905 62.2301C46.857 62.823 43.5242 64.8526 40.3773 63.5981C36.9871 62.2467 34.6435 58.9478 33.3532 55.5181C32.0234 51.9831 31.2057 47.6767 33.1769 44.4588C35.0975 41.3236 39.9392 42.0945 42.9021 39.9305C45.8644 37.7669 46.555 32.469 50.1905 32.0328Z" fill="#245990"/>
<path fill-rule="evenodd" clip-rule="evenodd" d="M23.5508 0.0708281C21.1149 0.383953 18.3974 1.4827 16.7789 2.80895C16.1271 3.34308 15.9756 3.66133 16.1437 4.14345C16.4039 4.89008 17.0729 4.91945 17.9969 4.22508C18.9496 3.5092 20.9813 2.5422 22.2383 2.20645C23.2947 1.92433 23.3513 1.9227 31.9883 1.9227C40.6546 1.9227 40.6784 1.92345 41.7383 2.20945C44.1161 2.85108 46.4556 4.3262 47.9843 6.14795C48.9131 7.25458 50.0071 9.4027 50.3843 10.8602C50.6458 11.8701 50.6617 12.2262 50.7064 18.0477C50.7528 24.0777 50.7577 24.1771 51.0177 24.454C51.3991 24.86 52.0187 24.8325 52.3633 24.3942C52.6309 24.0541 52.6314 24.0392 52.5838 17.863L52.5359 11.6727L52.2124 10.476C51.7579 8.79508 51.2337 7.6017 50.3482 6.23233C48.2127 2.9302 44.6384 0.669203 40.6841 0.119203C39.7843 -0.00592189 24.4841 -0.0490469 23.5508 0.0708281ZM13.5349 6.42733C13.1094 6.8527 12.3273 8.5492 11.9393 9.88833C10.8453 13.6633 11.3721 16.7617 13.4928 19.0257L14.3133 19.9016L13.4849 20.73C12.5104 21.7045 11.8561 22.9075 11.5486 24.29C11.3673 25.1045 11.3487 25.9276 11.3994 30.8841C11.4602 36.8328 11.4852 37.121 12.0896 38.8602C12.4092 39.7798 13.1624 41.2608 13.7538 42.1323C14.4286 43.1268 16.1372 44.7998 17.1419 45.4498L17.9883 45.9973V51.2186C17.9883 56.7787 18.0139 57.0576 18.6359 58.2788C18.9479 58.8913 19.7673 59.7822 20.4519 60.2532C21.0954 60.6958 23.1687 61.3921 24.7409 61.6936C25.5114 61.8412 25.9152 61.9776 25.9626 62.106C26.1561 62.6305 26.7154 63.2846 27.2286 63.5862C27.7972 63.9206 27.8186 63.923 30.6084 63.9628C32.5132 63.99 33.5869 63.9551 33.9469 63.8543C34.5909 63.674 35.3838 63.0205 35.6571 62.4446C35.8572 62.0228 35.8654 62.0196 37.2671 61.8052C39.2033 61.5091 41.8472 60.8153 42.8334 60.3446C44.2643 59.6617 45.2802 58.4883 45.7514 56.9738C45.9518 56.3301 45.9883 55.8137 45.9883 53.6208C45.9883 51.073 45.9834 51.0242 45.6991 50.757C45.0674 50.1636 44.2556 50.5595 44.1481 51.5132L44.0827 52.094L42.8167 52.5392C41.1948 53.1096 39.5309 53.5492 37.8102 53.862C36.0783 54.1768 35.9883 54.1758 35.9883 53.8435C35.9883 52.8898 35.2774 51.8585 34.3097 51.4078C33.7057 51.1266 33.5493 51.1126 30.9874 51.1115C29.5089 51.1107 28.1076 51.1652 27.8733 51.2323C26.8141 51.5361 25.8633 52.6903 25.8633 53.6726V54.1386L25.2696 54.051C24.3616 53.9171 21.5177 53.1602 20.6758 52.8285L19.9258 52.5328L19.8922 49.7012L19.8587 46.8697L20.3702 47.0501C20.6514 47.1493 21.3697 47.3301 21.9662 47.4516C22.9438 47.6508 23.9329 47.6727 31.9883 47.6727C40.0437 47.6727 41.0328 47.6508 42.0104 47.4516C42.6069 47.3301 43.3173 47.1521 43.5892 47.0562L44.0833 46.8818L44.1513 47.3893C44.2368 48.0263 44.5983 48.4018 45.1258 48.4018C45.7638 48.4018 45.9883 48.0148 45.9883 46.915V45.9973L46.8347 45.4498C47.8394 44.7998 49.5481 43.1268 50.2228 42.1323C51.1796 40.7223 51.9219 39.0321 52.3188 37.3602C52.5782 36.2673 52.7196 28.5435 52.4903 27.99C52.1896 27.2638 50.9673 27.2848 50.8054 28.0187C50.7716 28.1722 50.7243 30.1258 50.7004 32.3602C50.6502 37.0633 50.5758 37.5128 49.4912 39.6727C47.9276 42.7863 45.0039 44.9793 41.5451 45.6333C40.2901 45.8706 23.6866 45.8706 22.4316 45.6333C18.9727 44.9793 16.0491 42.7863 14.4854 39.6727C13.3446 37.4008 13.3214 37.236 13.2671 30.9852C13.2342 27.2116 13.2638 25.3226 13.3637 24.8121C13.7977 22.5931 15.4331 20.9756 17.6133 20.6091C18.1507 20.5188 20.6481 20.4852 24.9883 20.5101C31.4769 20.5473 31.5576 20.5508 32.1497 20.8267C32.9307 21.1906 33.9886 22.1992 34.3516 22.9261C34.9836 24.1915 34.9846 26.2676 34.3537 27.504C33.9592 28.2775 33.2016 29.0247 32.4001 29.4307L31.6758 29.7977L25.8211 29.8602L19.9664 29.9227L19.6648 30.2735C19.2843 30.7161 19.2842 31.0043 19.6648 31.447L19.9663 31.7977L22.6336 31.8602L25.3008 31.9227L26.2276 32.4852C27.3629 33.1743 29.2741 35.039 29.8479 36.0175C30.4777 37.0913 30.8539 38.2497 30.9853 39.5196C31.0742 40.3788 31.1632 40.7157 31.3511 40.9036C31.6668 41.2192 32.2803 41.2235 32.6271 40.9123C32.8757 40.6891 32.8893 40.587 32.8257 39.4227C32.6921 36.9766 31.5591 34.6715 29.5311 32.72L28.6708 31.8922L30.1448 31.8061C32.2596 31.6823 33.4049 31.25 34.6622 30.1008C35.9446 28.929 36.5904 27.5038 36.6977 25.6102C36.7713 24.3091 36.5663 23.1231 36.1144 22.2376C35.9763 21.9667 35.8633 21.7148 35.8633 21.6777C35.8633 21.6406 36.8921 21.6102 38.1496 21.6102C39.8083 21.6102 40.6402 21.5571 41.1808 21.4168C43.5629 20.7985 45.3158 19.1457 46.0536 16.8225C46.6287 15.0118 46.4084 13.9852 45.4452 13.9852C44.8707 13.9852 44.6188 14.3116 44.4899 15.2233C44.3406 16.2803 44.1489 16.8156 43.6474 17.5771C43.1328 18.3586 42.5169 18.8687 41.5303 19.331L40.8008 19.6727L37.4627 19.7113L34.1246 19.7501L33.2127 19.3147C32.7112 19.0753 31.9633 18.8153 31.5508 18.7368C30.4634 18.53 17.1879 18.6128 16.6986 18.8296C16.3806 18.9703 16.2954 18.9502 15.8236 18.6228C15.1572 18.1605 14.7464 17.7192 14.1874 16.8647C13.5297 15.8596 13.3161 15.0285 13.3188 13.4852C13.3223 11.5135 13.5693 10.5081 14.5837 8.3362C15.0978 7.23533 15.1357 7.09108 14.9981 6.75858C14.8504 6.40245 14.4183 6.1102 14.0392 6.1102C13.9362 6.1102 13.7093 6.25283 13.5349 6.42733ZM33.8064 53.2921L34.1133 53.5988L34.1133 57.5477V61.4966L33.8064 61.8033C33.5008 62.1091 33.4904 62.1102 30.9483 62.1102C28.5566 62.1102 28.3764 62.094 28.0677 61.8511L27.7383 61.5921V57.5477L27.7383 53.5033L28.0677 53.2443C28.3764 53.0015 28.5566 52.9852 30.9483 52.9852C33.4904 52.9852 33.5008 52.9863 33.8064 53.2921ZM44.1126 55.0165C44.1117 56.1451 43.9671 56.6776 43.4537 57.4417C42.9332 58.2163 42.2996 58.6285 41.0001 59.0376C40.0654 59.3318 36.5538 60.1063 36.1414 60.1091C36.0174 60.11 35.9897 59.6621 36.0164 58.0896L36.0508 56.069L37.4258 55.84C39.1408 55.5542 41.4702 54.9787 42.8633 54.4967C43.4477 54.2945 43.9679 54.1248 44.0196 54.1196C44.0712 54.1145 44.1129 54.518 44.1126 55.0165ZM21.4547 55.0538C22.2597 55.2978 23.5668 55.625 24.3596 55.7807L25.8008 56.0641L25.8352 58.0246C25.8619 59.5487 25.8342 59.9851 25.7102 59.9848C25.3797 59.9842 22.5652 59.2256 22.0537 58.9993C20.7023 58.4016 19.9716 57.2698 19.8862 55.6422C19.8563 55.0746 19.8678 54.6102 19.9116 54.6102C19.9553 54.6102 20.6497 54.8098 21.4547 55.0538ZM30.2952 55.1671C29.9936 55.4686 29.9883 55.5103 29.9883 57.5827C29.9883 59.6255 29.9974 59.7002 30.2776 59.9635C30.6504 60.3136 31.2497 60.3178 31.5627 59.9725C31.7711 59.7425 31.8058 59.4677 31.8411 57.7701C31.8849 55.66 31.7998 55.2353 31.2864 55.0015C30.8301 54.7935 30.6363 54.8258 30.2952 55.1671Z" fill="#393D46"/>
</svg>
