<svg width="32" height="32" viewBox="0 0 32 32" fill="none" xmlns="http://www.w3.org/2000/svg">
<path fill-rule="evenodd" clip-rule="evenodd" d="M25.0952 16.0164C26.8794 15.8023 28.1582 17.7328 29.4312 19.0078C30.5173 20.0955 31.5116 21.2971 31.8652 22.7968C32.2007 24.2205 31.8683 25.6866 31.3256 27.0441C30.8136 28.3249 30.0354 29.5004 28.8843 30.2525C27.7712 30.9798 26.4024 30.8826 25.0952 31.115C23.4285 31.4115 21.7621 32.4263 20.1887 31.7991C18.4936 31.1233 17.3218 29.4739 16.6766 27.759C16.0117 25.9916 15.6028 23.8383 16.5885 22.2294C17.5488 20.6618 19.9696 21.0472 21.4511 19.9652C22.9322 18.8835 23.2775 16.2345 25.0952 16.0164Z" fill="#F58634"/>
<path fill-rule="evenodd" clip-rule="evenodd" d="M27.4684 0.446455C27.3265 0.56933 27.2986 0.659392 27.2473 1.15927C27.1815 1.8002 26.9905 2.38852 26.6839 2.89433C26.5649 3.09058 25.9418 3.7697 25.2072 4.50364L23.9363 5.77345L23.9354 5.05527C23.9338 3.82464 23.6658 3.09202 22.9608 2.39127C22.0802 1.51602 20.7886 1.22733 19.5755 1.6347L19.159 1.77458L18.8371 1.45058C18.4551 1.06614 18.0019 0.899517 17.4601 0.944455C17.0383 0.979455 16.4772 1.26283 16.2352 1.56308C16.0141 1.83739 15.5634 3.03064 15.5179 3.46208C15.4253 4.34177 16.0597 5.1472 16.9834 5.32277L17.3592 5.39414L17.4557 5.88414C17.5705 6.4667 17.8319 7.04983 18.2255 7.60145L18.5128 8.00408L18.3422 8.60808C17.9579 9.96808 17.4594 11.1917 16.8032 12.3853C16.4394 13.0473 16.3714 13.2153 16.4053 13.3696C16.4789 13.7045 16.8785 13.8519 17.1662 13.6503C17.5417 13.3873 18.7156 10.8716 19.1572 9.38346C19.2464 9.08296 19.3297 8.80458 19.3424 8.76489C19.3659 8.69083 20.2706 9.12689 20.3457 9.24852C20.3669 9.28277 20.1991 9.50708 19.9728 9.74702C19.5169 10.2302 19.4628 10.4138 19.6909 10.7036C19.7887 10.8281 19.8766 10.8684 20.0502 10.8686C20.2709 10.8689 20.4206 10.7278 23.8134 7.32177C26.9574 4.16539 27.3753 3.72295 27.6067 3.30583C28.0029 2.59195 28.1949 1.94864 28.2331 1.20758L28.2656 0.578142L28.0926 0.441955C27.8712 0.267892 27.6729 0.26933 27.4684 0.446455ZM29.6859 0.364205C29.3252 0.473955 28.9456 0.74233 28.8205 0.976205C28.709 1.18452 28.7351 1.36027 28.9022 1.52739C29.1079 1.73314 29.3429 1.72095 29.6863 1.4867C29.9231 1.3252 30.0107 1.29964 30.2403 1.32477C30.7479 1.38027 31.0604 1.79214 30.9709 2.28752C30.9327 2.49883 30.4123 3.04089 26.1822 7.27514C21.6217 11.8401 21.4363 12.0346 21.4363 12.255C21.4363 12.4282 21.4766 12.5159 21.601 12.6138C21.8715 12.8266 22.071 12.7824 22.4647 12.4226C22.6577 12.2461 22.8357 12.122 22.8604 12.1465C22.8849 12.1711 22.9041 12.3928 22.903 12.6391C22.9006 13.1734 22.7266 13.559 22.1334 14.3446C21.4014 15.3145 20.8673 15.7413 18.7804 17.0248L17.7809 17.6396L16.9054 17.5347C15.8031 17.4026 15.8351 17.4013 15.6523 17.5843C15.4544 17.7821 15.4494 18.0746 15.6406 18.2658C15.7623 18.3875 15.9149 18.4235 16.7188 18.5196C17.2337 18.5812 18.0066 18.7147 18.4363 18.8162C18.866 18.9177 19.7749 19.1113 20.4561 19.2463C21.9902 19.5504 23.8438 20.1388 24.2041 20.4359C24.4821 20.6652 24.7372 21.1358 24.7859 21.5093C24.8146 21.7295 24.4578 23.6896 24.1546 24.9777C24.1223 25.1147 24.1002 25.1183 23.303 25.1183H22.4846L22.5212 24.8527C22.6467 23.943 22.7559 22.7174 22.723 22.5865C22.7017 22.5017 22.6185 22.3893 22.538 22.3365C22.3231 22.1958 20.485 22.06 17.9676 21.9988C15.928 21.9493 15.8204 21.9405 15.2921 21.782C14.9893 21.6911 14.6017 21.5459 14.4306 21.4592C13.5936 21.0351 13.118 20.1123 13.1286 18.9333C13.136 18.1139 13.1817 18.0273 13.9178 17.4376C14.2686 17.1566 14.6131 16.8535 14.6834 16.7641C14.8572 16.5431 14.8471 16.2735 14.6579 16.0843C14.3925 15.8188 14.2167 15.8744 13.5673 16.4291C13.2464 16.7031 12.8396 17.0097 12.6632 17.1105C11.7081 17.6558 10.4334 18.6716 6.03006 22.3963C4.94956 23.3103 4.34194 23.7586 2.59256 24.9323C0.408187 26.3979 0.278 26.5074 0.088625 27.0382C-0.069625 27.4819 -0.0239375 27.8166 0.319813 28.7321C0.496438 29.2024 0.746375 29.8332 0.875313 30.134L1.10969 30.6808H0.707687C0.364125 30.6808 0.283312 30.7031 0.15225 30.8343C-0.05075 31.0372 -0.05075 31.3245 0.15225 31.5274L0.305625 31.6808L15.9988 31.6808H31.692L31.8454 31.5274C31.9421 31.4307 31.9988 31.3026 31.9988 31.1808C31.9988 31.0591 31.9421 30.931 31.8454 30.8343L31.692 30.6808H29.35H27.008L26.8543 30.3452C26.5284 29.6333 26.0566 29.2983 25.0301 29.0497C24.7207 28.9748 24.4479 28.8963 24.4239 28.8753C24.3999 28.8543 24.688 27.3465 25.0641 25.5246C25.4401 23.7027 25.7648 22.0854 25.7856 21.9306C25.912 20.9881 25.2703 19.8242 24.3738 19.3698C23.7204 19.0386 21.9596 18.5188 20.5613 18.2442C19.8222 18.0991 19.2109 17.9742 19.2027 17.9668C19.1946 17.9593 19.518 17.747 19.9214 17.495C21.1218 16.7452 21.8296 16.216 22.2743 15.7356C23.77 14.1201 24.2176 12.8868 23.735 11.7105L23.5818 11.3371L27.6308 7.27458C31.9754 2.91552 31.9065 2.99464 31.9802 2.28083C32.0377 1.72327 31.8681 1.27777 31.438 0.857142C31.1662 0.591455 30.992 0.47758 30.7444 0.404017C30.3967 0.30083 29.9497 0.284017 29.6859 0.364205ZM17.9963 2.03308C18.2072 2.15764 18.3738 2.42589 18.3738 2.64108C18.3738 2.85939 17.9674 3.98039 17.8354 4.12627C17.6977 4.27839 17.3047 4.39589 17.1031 4.34527C16.8474 4.28114 16.5694 4.00602 16.5259 3.77433C16.4867 3.56545 16.7056 2.76752 16.9166 2.34995C17.1041 1.97889 17.6389 1.82189 17.9963 2.03308ZM21.1955 2.51583C21.6142 2.61439 22.0146 2.83902 22.2987 3.1347L22.5049 3.34927L22.129 3.69727C21.6982 4.09608 21.2717 4.28283 20.5984 4.36739C20.0923 4.43095 19.9363 4.55795 19.9363 4.90652C19.9363 5.22627 20.1147 5.36852 20.5144 5.36739C21.2174 5.36545 22.0469 5.06852 22.6241 4.6122L22.9363 4.36539V5.57089V6.77639L22.1273 7.58358L21.3183 8.39077L20.9341 8.28395C20.5342 8.17277 20.0014 7.92677 19.7716 7.7472L19.6382 7.64295L19.8497 7.11858C19.9661 6.83014 20.0613 6.51002 20.0613 6.40714C20.0613 5.99033 19.5436 5.77227 19.2643 6.07145C19.1921 6.14877 19.0797 6.34839 19.0145 6.51495L18.8961 6.81783L18.7857 6.64939C18.6124 6.38489 18.4339 5.81077 18.3934 5.38777C18.357 5.00652 18.3599 4.99702 18.5995 4.72433C18.8234 4.46952 19.2059 3.57495 19.3474 2.9752C19.3755 2.85645 19.4657 2.76145 19.6302 2.67752C20.1123 2.43164 20.6164 2.37958 21.1955 2.51583ZM15.4886 14.4465C15.3316 14.5736 15.1863 14.8239 15.1863 14.9676C15.1863 15.0412 15.2446 15.1756 15.3159 15.2661C15.5086 15.5111 15.8685 15.4982 16.087 15.2385C16.2946 14.9918 16.2978 14.7241 16.0954 14.5218C15.9276 14.354 15.6461 14.319 15.4886 14.4465ZM12.3118 20.2746C12.4942 20.8593 12.7652 21.3251 13.1727 21.7546L13.5095 22.1096L13.3323 22.2011C13.2348 22.2515 12.2832 22.6784 11.2176 23.1498C10.1519 23.6212 8.57256 24.3521 7.70781 24.774L6.1355 25.5411L5.88238 24.8766C5.74313 24.5111 5.621 24.1816 5.61088 24.1445C5.59363 24.0807 9.50875 20.7432 11.2801 19.3116L12.0926 18.655L12.1339 19.246C12.1566 19.5711 12.2367 20.034 12.3118 20.2746ZM15.2857 22.8129C15.7177 22.9283 16.0443 22.9514 17.8738 22.996C19.7639 23.042 21.6102 23.1463 21.6746 23.2108C21.6882 23.2243 21.6387 23.7786 21.5646 24.4425C21.2297 27.4444 21.0537 28.7832 20.9314 29.2602C20.8036 29.7587 20.7956 30.1815 20.9071 30.5402L20.9509 30.6808H12.5686C7.95831 30.6808 4.18631 30.6661 4.18631 30.6482C4.18631 30.5999 3.81619 28.4843 3.78031 28.3276C3.75381 28.2119 3.88069 28.1088 4.68613 27.5913C6.55488 26.3908 7.55469 25.8858 11.9363 23.9294C12.8473 23.5227 13.8316 23.077 14.1238 22.9389C14.416 22.8008 14.6857 22.6863 14.7232 22.6844C14.7607 22.6824 15.0138 22.7403 15.2857 22.8129ZM5.00156 25.3677C5.13938 25.7214 5.23625 26.028 5.21681 26.049C5.19738 26.0699 4.65544 26.425 4.0125 26.838C3.276 27.311 2.8155 27.6471 2.76787 27.7464C2.69775 27.8928 2.81319 28.7261 3.15062 30.509C3.17825 30.6548 3.16212 30.6808 3.04412 30.6805C2.60994 30.6794 2.09756 30.3656 1.89713 29.978C1.6935 29.5843 0.998812 27.7079 0.998812 27.5517C0.998812 27.2239 1.26594 26.9955 2.99881 25.8415C3.94412 25.212 4.72506 24.7031 4.73425 24.7108C4.74344 24.7184 4.86375 25.014 5.00156 25.3677ZM23.6184 27.5715C23.4518 28.3707 23.3146 29.1251 23.3134 29.2481C23.3101 29.5963 23.4784 29.6986 24.4363 29.9312C24.9004 30.0439 25.3363 30.1637 25.4051 30.1973C25.5617 30.2741 25.8738 30.5621 25.8738 30.63C25.8738 30.658 25.0793 30.6798 24.1082 30.6786C22.1984 30.6762 22.1548 30.6693 21.9329 30.3329C21.7806 30.1018 21.7812 29.9756 21.9379 29.3623C22.0323 28.9923 22.3692 26.5189 22.3732 26.1652C22.3736 26.1394 22.722 26.1183 23.1476 26.1183H23.9213L23.6184 27.5715Z" fill="#393D46"/>
</svg>
