<svg width="32" height="32" viewBox="0 0 32 32" fill="none" xmlns="http://www.w3.org/2000/svg">
<path fill-rule="evenodd" clip-rule="evenodd" d="M25.0952 16.0164C26.8794 15.8023 28.1582 17.7328 29.4312 19.0078C30.5173 20.0955 31.5116 21.2971 31.8652 22.7968C32.2007 24.2205 31.8683 25.6866 31.3256 27.0441C30.8136 28.3249 30.0354 29.5004 28.8843 30.2525C27.7712 30.9798 26.4024 30.8826 25.0952 31.115C23.4285 31.4115 21.7621 32.4263 20.1887 31.7991C18.4936 31.1233 17.3218 29.4739 16.6766 27.759C16.0117 25.9916 15.6028 23.8383 16.5885 22.2294C17.5488 20.6618 19.9696 21.0472 21.4511 19.9652C22.9322 18.8835 23.2775 16.2345 25.0952 16.0164Z" fill="#F58634"/>
<path fill-rule="evenodd" clip-rule="evenodd" d="M5.20323 0.143365C4.33661 0.438803 3.73261 1.08755 3.52761 1.94337C3.49148 2.09405 2.88198 7.18143 2.17317 13.2486C1.00573 23.241 0.890546 24.3172 0.949858 24.6759C1.08711 25.5057 1.60267 26.1887 2.38092 26.5719L2.80323 26.7799L8.44523 26.7968L14.0872 26.8137L14.0875 29.1093C14.0877 31.2758 14.0945 31.4161 14.2097 31.6049C14.4206 31.9509 14.595 31.9986 15.6486 31.9986C16.6843 31.9986 16.9372 31.9402 17.1219 31.6585C17.1806 31.5689 17.2472 31.4048 17.2699 31.2939L17.3111 31.0924L19.6003 31.076L21.8895 31.0596L21.932 31.2635C21.9906 31.5446 22.1209 31.7329 22.3562 31.8764C22.5315 31.9832 22.6748 31.9982 23.5257 31.9984C24.625 31.9986 24.8311 31.9384 25.0355 31.5572C25.1401 31.3622 25.1497 31.1536 25.1497 29.0809V26.8174L27.1982 26.7987L29.2465 26.7799L29.6687 26.5719C30.4469 26.1886 30.9624 25.5056 31.0995 24.6759C31.1573 24.3266 31.116 23.8593 30.7499 20.7174C30.5216 18.758 30.3206 17.0909 30.3032 17.0127C30.2587 16.8126 30.0516 16.6236 29.8769 16.6236C29.6307 16.6236 29.3997 16.8515 29.3997 17.0944C29.3997 17.2109 29.5843 18.8752 29.8099 20.793C30.048 22.8167 30.2046 24.3806 30.1832 24.52C30.1008 25.0576 29.5987 25.6505 29.0993 25.8001C28.9352 25.8493 28.2407 25.8736 27.0019 25.8736H25.1497V25.2799V24.6861H26.6517C28.3005 24.6861 28.4387 24.662 28.723 24.3241C28.8116 24.2187 28.9019 24.0379 28.9236 23.9223C28.957 23.7444 26.6065 3.40987 26.4886 2.85649C26.4383 2.62062 26.1678 2.3123 25.9203 2.20887C25.7545 2.13962 24.8942 2.12362 21.3364 2.12362L16.9565 2.12362L16.8032 2.27705C16.6076 2.47255 16.6076 2.71218 16.8032 2.90768L16.9565 3.06112L21.2648 3.06112L25.573 3.06112L25.6114 3.32674C25.6324 3.47287 26.1699 8.02205 26.8058 13.4361C27.4417 18.8502 27.9785 23.3854 27.9988 23.5142L28.0357 23.7486H26.6005H25.1652L25.135 22.6392C25.1086 21.6752 25.0841 21.4671 24.948 21.0507C24.7105 20.3245 24.3748 19.7756 23.8425 19.2433C23.3128 18.7136 22.767 18.3788 22.0352 18.1347C21.6194 17.9961 21.4485 17.975 20.7435 17.9751C20.0315 17.9752 19.8689 17.9958 19.4297 18.1414C18.5128 18.4452 17.7016 19.0404 17.1712 19.7986C17.01 20.0289 16.8594 20.2395 16.8367 20.2665C16.8139 20.2935 16.6934 20.1505 16.5689 19.9487C16.0004 19.0277 14.8364 18.2424 13.7144 18.0229C11.4547 17.5807 9.21736 18.9981 8.64548 21.234C8.55036 21.606 8.52473 21.9227 8.52473 22.7274V23.7486H6.26923H4.01373L4.05073 23.5142C4.07111 23.3854 4.6078 18.8502 5.24348 13.4361C5.87911 8.02205 6.41655 3.4728 6.4378 3.32674L6.47642 3.06112L10.7847 3.06112L15.0929 3.06112L15.2463 2.90768C15.4419 2.71218 15.4419 2.47255 15.2463 2.27705L15.0929 2.12362L10.713 2.12362C7.1553 2.12362 6.29492 2.13962 6.12917 2.20887C5.8818 2.31224 5.61123 2.62049 5.56073 2.85649C5.4513 3.36849 3.08811 23.7492 3.11855 23.9187C3.16473 24.1759 3.42986 24.4915 3.69167 24.6009C3.85836 24.6705 4.82905 24.6861 8.99148 24.6861L14.0872 24.6861V25.2799V25.8736L8.64136 25.8736C4.64811 25.8736 3.13005 25.854 2.95017 25.8001C2.45061 25.6504 1.94842 25.0573 1.86636 24.52C1.8293 24.2772 4.34855 2.48137 4.46142 2.06843C4.59248 1.58905 5.04998 1.14674 5.56167 1.00462C5.90592 0.909053 26.1435 0.909053 26.4878 1.00462C27.0222 1.15305 27.5222 1.66368 27.6145 2.15543C27.637 2.27568 27.9897 5.23174 28.3981 8.72443C29.0956 14.6889 29.1492 15.0838 29.2811 15.2242C29.4286 15.3812 29.6426 15.4153 29.8348 15.3124C30.0694 15.1869 30.0757 14.9712 29.8905 13.4049C29.793 12.5799 29.4492 9.65093 29.1267 6.89612C28.587 2.28687 28.527 1.85849 28.3745 1.52549C28.0459 0.807553 27.5301 0.351803 26.7864 0.122115C26.3949 0.00117776 26.1705 -0.00132225 16.0025 0.000240254L5.61848 0.00186525L5.20323 0.143365ZM10.9918 5.77343C10.924 5.82149 10.7477 5.97624 10.6 6.11737C10.3055 6.39887 10.012 6.5668 9.59861 6.6903C9.31605 6.77474 9.08723 6.9988 9.08723 7.19105C9.08723 7.25324 9.15311 7.38074 9.23367 7.47437C9.34655 7.60568 9.43155 7.64268 9.60486 7.63618C9.94111 7.62349 10.5712 7.34362 10.9824 7.02424L11.3471 6.74105L11.6703 6.98768C12.069 7.29199 12.4594 7.49187 12.8685 7.60118C13.2366 7.69949 14.0668 7.70937 14.4542 7.62005C14.8265 7.53424 15.4107 7.23674 15.7452 6.96262L16.022 6.7358L16.3419 6.99055C16.9617 7.48399 17.542 7.68255 18.3685 7.68387C19.1575 7.68512 19.721 7.48999 20.3792 6.98768L20.7024 6.74105L21.067 7.02424C21.4783 7.34362 22.1084 7.62349 22.4446 7.63618C22.6179 7.64268 22.7029 7.60568 22.8158 7.47437C22.8964 7.38074 22.9622 7.25324 22.9622 7.19105C22.9622 6.9988 22.7334 6.77474 22.4509 6.6903C22.0374 6.5668 21.7439 6.39887 21.4494 6.11737C21.0626 5.74755 20.9594 5.68612 20.7255 5.68612C20.4523 5.68612 20.3166 5.76262 19.8863 6.15899C19.39 6.61605 18.9734 6.76587 18.2747 6.7383C17.6384 6.71324 17.1839 6.5208 16.7623 6.09793C16.4382 5.77287 16.2828 5.68612 16.0247 5.68612C15.7667 5.68612 15.6113 5.77287 15.2872 6.09793C14.8655 6.5208 14.4111 6.71324 13.7747 6.7383C13.0761 6.76587 12.6594 6.61605 12.1632 6.15899C11.9667 5.97799 11.7445 5.79755 11.6695 5.75799C11.483 5.6598 11.1412 5.66755 10.9918 5.77343ZM10.9935 9.63693C10.9247 9.67649 10.742 9.83505 10.5874 9.9893C10.2466 10.3292 9.78136 10.5521 9.25861 10.6257C8.82017 10.6875 8.64973 10.8288 8.64973 11.1306C8.64973 11.4077 8.84517 11.5612 9.19661 11.5604C9.7908 11.5589 10.5308 11.2691 11.0717 10.8261L11.3373 10.6085L11.6654 10.8589C12.3121 11.3526 12.9112 11.5615 13.6767 11.5604C14.469 11.5592 15.0209 11.3691 15.6966 10.8646L16.0247 10.6196L16.3529 10.8647C17.0819 11.4094 17.6829 11.5949 18.5631 11.5471C19.3236 11.5057 19.8659 11.2843 20.5352 10.742L20.702 10.6069L20.9727 10.8267C21.5183 11.2698 22.2592 11.5589 22.8529 11.5604C23.2043 11.5612 23.3997 11.4077 23.3997 11.1306C23.3997 10.8288 23.2293 10.6875 22.7909 10.6257C22.2674 10.552 21.8025 10.329 21.4618 9.9883C21.1215 9.64799 20.969 9.56112 20.7122 9.56112C20.4528 9.56112 20.3122 9.64155 19.8863 10.034C19.4278 10.4562 18.997 10.6236 18.3685 10.6236C17.7399 10.6236 17.3092 10.4562 16.8507 10.034C16.4247 9.64155 16.2842 9.56112 16.0247 9.56112C15.7653 9.56112 15.6247 9.64155 15.1988 10.034C14.7403 10.4562 14.3095 10.6236 13.681 10.6236C13.0524 10.6236 12.6217 10.4562 12.1632 10.034C11.9667 9.85299 11.7445 9.67255 11.6695 9.63299C11.4959 9.54161 11.1555 9.54355 10.9935 9.63693ZM11.0906 13.4426C11.0065 13.4762 10.7886 13.6447 10.6064 13.817C10.1329 14.2648 9.71992 14.4364 8.98598 14.49C8.32017 14.5387 8.21223 14.6056 8.21223 14.9696C8.21223 15.3146 8.38736 15.4053 9.0473 15.402C9.87255 15.3979 10.5242 15.1561 11.0912 14.6439L11.3296 14.4285L11.6615 14.6984C12.3486 15.257 13.2646 15.5165 14.1162 15.3938C14.6758 15.3132 15.395 14.9905 15.7699 14.6519L16.03 14.4167L16.2305 14.6066C17.344 15.6607 19.1963 15.6906 20.4174 14.6741L20.7163 14.4252L20.9565 14.6422C21.5254 15.1562 22.176 15.3979 23.0022 15.402C23.6621 15.4053 23.8372 15.3146 23.8372 14.9696C23.8372 14.6056 23.7293 14.5387 23.0635 14.49C22.33 14.4364 21.9165 14.2648 21.4441 13.818C20.85 13.2561 20.6085 13.2561 19.9759 13.8176C19.4226 14.3088 19.0336 14.462 18.3372 14.463C17.6761 14.4639 17.2747 14.2969 16.7265 13.7929C16.144 13.2575 15.8807 13.2621 15.2929 13.818C14.7947 14.2891 14.3664 14.4639 13.7122 14.463C13.0229 14.462 12.6142 14.3044 12.104 13.8426C11.6072 13.3931 11.4098 13.3151 11.0906 13.4426ZM14.0359 19.0777C14.5991 19.283 15.0157 19.5609 15.4279 20.0062C15.8075 20.4162 16.161 21.0909 16.2687 21.6111C16.3148 21.8337 16.3372 23.4363 16.3372 26.5017L16.3372 31.0611H15.6833H15.0293L15.0114 26.4517L14.9935 21.8424L14.818 21.4674C14.592 20.9844 14.1318 20.548 13.6615 20.3707C13.1846 20.1909 12.3785 20.2189 11.9717 20.4294C11.5612 20.6417 11.1722 21.0338 10.9817 21.4272C10.8225 21.7561 10.8093 21.8461 10.7863 22.7642L10.7616 23.7486H10.1119H9.46223L9.46298 22.7955C9.4638 21.7365 9.52617 21.4022 9.84323 20.7582C10.0838 20.2695 10.723 19.6032 11.2223 19.3209C12.0474 18.8543 13.1596 18.7581 14.0359 19.0777ZM21.5088 18.9675C22.4885 19.1985 23.3429 19.8577 23.7964 20.7326C24.211 21.5323 24.2099 21.5173 24.2112 26.5455L24.2122 31.0611H23.5247C23.1466 31.0611 22.8372 31.0436 22.8372 31.0221C22.8372 31.0007 22.965 30.8707 23.1211 30.7332C23.5248 30.3779 23.676 30.0597 23.678 29.5611C23.6803 29.0301 23.487 28.6201 23.109 28.3537L22.8372 28.1621V27.4373V26.7126L23.119 26.4771C23.5159 26.1452 23.6745 25.8141 23.6781 25.3098C23.6817 24.7997 23.478 24.3659 23.1065 24.0924L22.852 23.9049L22.8285 22.8111C22.8064 21.7726 22.7969 21.7016 22.6402 21.4049C22.2376 20.6421 21.5905 20.2461 20.7391 20.2417C20.1327 20.2385 19.6501 20.4477 19.2237 20.8986C18.7506 21.3988 18.6497 21.7408 18.6497 22.8447V23.7486H17.9541H17.2585L17.2896 22.733C17.3223 21.6659 17.3663 21.4541 17.7019 20.7486C17.8024 20.5374 18.0467 20.2221 18.3357 19.9307C19.2264 19.0328 20.3452 18.6932 21.5088 18.9675ZM21.306 21.2948C21.4962 21.3984 21.7589 21.6966 21.8332 21.8933C21.8698 21.9901 21.8997 22.4471 21.8997 22.9089V23.7486H20.7435H19.5872V22.9024C19.5872 22.1808 19.6055 22.0202 19.7117 21.8122C20.0016 21.2439 20.7603 20.9977 21.306 21.2948ZM13.4887 21.3362C13.6379 21.4237 13.8098 21.5998 13.9004 21.7581C14.0415 22.0046 14.058 22.1099 14.0776 22.8892L14.0992 23.7486H12.901L11.7028 23.7486L11.7231 22.8892C11.7396 22.1947 11.7666 21.9833 11.864 21.7871C12.1404 21.2302 12.9325 21.0104 13.4887 21.3362ZM22.4532 24.7752C22.8052 24.9572 22.8737 25.4092 22.592 25.6909L22.4094 25.8736H19.842H17.2747V25.2799V24.6861H19.7779C21.822 24.6861 22.3125 24.7024 22.4532 24.7752ZM21.8997 27.4049V27.9986H19.5872H17.2747V27.4049V26.8111H19.5872H21.8997V27.4049ZM22.5924 29.1715C22.8346 29.4426 22.8345 29.6985 22.592 29.9409L22.4094 30.1236H19.842H17.2747V29.5279V28.9321L19.8424 28.9497L22.4101 28.9674L22.5924 29.1715Z" fill="#393D46"/>
</svg>
