<svg width="64" height="64" viewBox="0 0 64 64" fill="none" xmlns="http://www.w3.org/2000/svg">
<path fill-rule="evenodd" clip-rule="evenodd" d="M50.1905 32.0328C53.7587 31.6047 56.3164 35.4656 58.8625 38.0156C61.0345 40.191 63.0233 42.5942 63.7303 45.5936C64.4015 48.4409 63.7367 51.3733 62.6512 54.0882C61.6271 56.6497 60.0708 59.0007 57.7686 60.505C55.5424 61.9596 52.8048 61.7651 50.1905 62.2301C46.857 62.823 43.5242 64.8526 40.3773 63.5981C36.9871 62.2467 34.6435 58.9478 33.3532 55.5181C32.0234 51.9831 31.2057 47.6767 33.1769 44.4588C35.0975 41.3236 39.9392 42.0945 42.9021 39.9305C45.8644 37.7669 46.555 32.469 50.1905 32.0328Z" fill="#F58634"/>
<path fill-rule="evenodd" clip-rule="evenodd" d="M20.25 0.232484C19.3183 0.660359 18.9375 1.38861 18.9375 2.74336V3.62236H17.102C14.9332 3.62236 14.4165 3.79023 13.7726 4.70373L13.3894 5.24736L8.65938 5.24736C3.489 5.24736 3.51325 5.24436 2.55813 6.00086C2.2835 6.21836 1.92488 6.69023 1.72538 7.09636L1.375 7.80986L1.375 34.5599L1.375 61.3099L1.6365 61.8724C2.01262 62.6815 2.50375 63.2115 3.235 63.5972L3.875 63.9349L23.5625 63.9349C45.5638 63.9349 43.66 64.012 45.2476 63.056L45.965 62.624L46.67 63.057C47.6419 63.6539 48.3401 63.8811 49.4375 63.9577C52.4391 64.1674 55.7373 62.0234 58.285 58.2064C59.375 56.5734 59.5159 56.2384 59.3159 55.7555C59.1227 55.2894 58.5426 55.0591 58.1204 55.2809C57.9593 55.3656 57.51 55.9406 57.122 56.5586C55.3259 59.4205 53.2832 61.2432 51.1431 61.8941C49.634 62.353 48.191 62.0127 46.8986 60.8932C46.1109 60.2109 45.7384 60.2051 45.0229 60.8646C44.7291 61.1354 44.182 61.5151 43.8069 61.7084C43.2122 62.0149 42.989 62.0591 42.0625 62.0539C41.2626 62.0494 40.8228 61.9777 40.283 61.7644C36.7048 60.349 33.3771 55.5099 31.8862 49.5532C31.2782 47.1242 31.1405 46.0519 31.1326 43.6849C31.1251 41.478 31.1324 41.4142 31.5106 40.3576C32.6883 37.0685 35.5029 34.8779 40.0164 33.738C41.4881 33.3664 43.998 33.0229 44.3252 33.1485C44.5391 33.2305 44.894 34.647 45.0155 35.9036C45.0841 36.6137 45.0667 36.7474 44.9054 36.7474C44.49 36.7474 43.0931 36.2361 42.5269 35.8769C42.198 35.6681 41.762 35.4974 41.5581 35.4974C41.056 35.4974 40.6875 35.8915 40.6875 36.4285C40.6875 36.9574 41.089 37.2971 42.4465 37.9171C43.732 38.5041 44.5459 38.6759 46 38.6671C47.4053 38.6586 48.4575 38.4255 49.6516 37.8581C51.0533 37.192 51.4632 36.6211 51.069 35.8845C50.9678 35.6954 51.0546 35.6204 51.6628 35.3717C52.0545 35.2116 52.673 34.892 53.0373 34.6616L53.6994 34.2429L54.5806 34.6131C56.1156 35.258 57.1959 35.9805 58.3141 37.11C59.5331 38.3414 60.1559 39.433 60.5671 41.0599C61.1636 43.4197 60.6941 47.7545 59.4272 51.5827C59.0715 52.6581 59.0595 52.754 59.2379 53.0989C59.5386 53.6806 60.0672 53.7887 60.5921 53.376C61.3029 52.8169 62.4598 48.0591 62.6729 44.8184C62.9274 40.9484 62.0687 38.3 59.7897 35.9261C58.7071 34.7985 57.6684 34.05 56.0853 33.2569C55.5134 32.9704 55.0634 32.6964 55.0853 32.648C55.1071 32.5995 55.3066 32.1886 55.5286 31.735C56.116 30.5345 56.4359 29.0694 56.5228 27.1814C56.6068 25.3531 56.4678 24.8225 55.8649 24.6711C55.2959 24.5284 52.0407 24.7117 51.1875 24.9347C49.9454 25.2592 48.4226 26.0401 47.6439 26.7519L46.949 27.3869L46.912 24.0079C46.876 20.7202 46.8676 20.6215 46.6007 20.3547C46.2644 20.0187 45.659 19.9962 45.3156 20.3071C45.075 20.5247 45.0643 20.7132 45.0327 25.2341L45 29.9349L44.567 29.3099C44.329 28.9661 43.7524 28.3079 43.2858 27.8471L42.4375 27.0095L42.4375 18.7077C42.4375 10.4985 42.4346 10.4024 42.1784 10.0767L41.9194 9.74736L38.4284 9.74736H34.9375V8.43486V7.12236L39.4904 7.12236L44.0434 7.12236L44.4243 7.44286C44.6338 7.61923 44.8628 7.97073 44.9331 8.22411C45.0094 8.49861 45.0614 10.4912 45.0617 13.1536C45.0625 17.4552 45.0719 17.6317 45.3125 17.8724C45.6495 18.2094 46.3261 18.2026 46.6369 17.8591C46.8625 17.6096 46.875 17.339 46.875 12.7029V7.80986L46.5246 7.09636C46.3251 6.69023 45.9665 6.21836 45.6919 6.00086C44.7368 5.24436 44.761 5.24736 39.5906 5.24736L34.8606 5.24736L34.4774 4.70373C33.8335 3.79023 33.3168 3.62236 31.148 3.62236L29.3125 3.62236L29.3097 2.71611C29.3069 1.75386 29.0549 0.993734 28.6069 0.595859C27.9896 0.0477337 27.6069 -0.00276634 24.0977 0.000108665C21.1176 0.00260866 20.6951 0.0281087 20.25 0.232484ZM27.3616 2.07011C27.4034 2.17886 27.4375 2.85636 27.4375 3.57573C27.4375 4.79773 27.4576 4.90386 27.7444 5.19048C28.0479 5.49411 28.0752 5.49736 30.3604 5.49736C32.293 5.49736 32.7016 5.52936 32.8661 5.69373C33.0315 5.85923 33.0625 6.28273 33.0625 8.37423C33.0625 10.7994 33.0559 10.8627 32.7846 11.0527C32.54 11.2242 31.509 11.2474 24.125 11.2474C16.741 11.2474 15.71 11.2242 15.4654 11.0527C15.1941 10.8627 15.1875 10.7994 15.1875 8.37423C15.1875 6.28273 15.2185 5.85923 15.3839 5.69373C15.5484 5.52936 15.957 5.49736 17.8896 5.49736C20.1748 5.49736 20.2021 5.49411 20.5056 5.19048C20.7924 4.90386 20.8125 4.79773 20.8125 3.57573C20.8125 2.85636 20.8466 2.17886 20.8884 2.07011C20.9548 1.89698 21.3581 1.87236 24.125 1.87236C26.8919 1.87236 27.2952 1.89698 27.3616 2.07011ZM13.3125 8.43486V9.74736H9.82162L6.33063 9.74736L6.07163 10.0767C5.8135 10.4047 5.8125 10.4547 5.8125 22.4574L5.8125 34.5087L6.11938 34.8155C6.51038 35.2066 6.98962 35.2066 7.38062 34.8155L7.6875 34.5087L7.6875 23.0655L7.6875 11.6224H10.578H13.4685L13.9616 12.1826C14.8101 13.1465 14.5487 13.1224 24.125 13.1224C33.7012 13.1224 33.4399 13.1465 34.2884 12.1826L34.7815 11.6224H37.672L40.5625 11.6224V18.6849L40.5625 25.7474H40.2444C40.0694 25.7474 39.7881 25.8855 39.6194 26.0542C39.0882 26.5854 39.2503 27.1721 40.0713 27.6904L40.5691 28.0047L40.5346 29.8326L40.5 31.6606L39.4375 31.9439C36.194 32.8087 33.8344 34.0859 32.0964 35.9171C31.6302 36.4081 31.0805 37.077 30.8745 37.4034L30.5 37.9969L25.6106 37.9971C20.8536 37.9974 20.7122 38.0044 20.3919 38.2565C19.9791 38.5811 19.9403 39.2501 20.3125 39.6224C20.5532 39.8631 20.7291 39.8724 25.0625 39.8724C30.0938 39.8724 29.6829 39.7834 29.4226 40.817L29.2829 41.3724H25.002C20.8605 41.3724 20.7105 41.3807 20.3919 41.6315C20.0164 41.9267 19.9454 42.5392 20.2397 42.9422C20.4079 43.1722 20.6444 43.1881 24.771 43.2474L29.125 43.3099L29.1554 43.9974C29.1943 44.8789 29.4305 47.1185 29.5147 47.4036C29.5754 47.6091 29.306 47.6224 25.0709 47.6224C20.7291 47.6224 20.5532 47.6316 20.3125 47.8724C19.9403 48.2446 19.9791 48.9136 20.3919 49.2382C20.7115 49.4897 20.8569 49.4974 25.3145 49.4974H29.9079L30.0454 50.0437C30.1211 50.3442 30.2181 50.6817 30.2611 50.7937C30.3325 50.9797 29.9165 50.9974 25.4509 50.9974C20.7291 50.9974 20.554 51.0059 20.3125 51.2474C19.9403 51.6196 19.9791 52.2886 20.3919 52.6132C20.7129 52.8657 20.851 52.8724 25.8161 52.8724H30.9109L31.2469 53.7161C31.4315 54.1801 31.9376 55.2489 32.3714 56.0911L33.1599 57.6224L20.4237 57.6224H7.6875L7.6875 47.6167L7.6875 37.611L7.38062 37.3042C6.98962 36.9131 6.51038 36.9131 6.11938 37.3042L5.8125 37.611L5.8125 48.2279C5.8125 58.4946 5.82037 58.8544 6.0515 59.1397L6.29038 59.4349L20.3582 59.4677L34.4261 59.5005L35.737 60.8115L37.048 62.1224L20.8013 62.1224C3.124 62.1224 3.99325 62.1576 3.49425 61.4206C3.25413 61.066 3.24937 60.6197 3.21325 35.0599C3.19312 20.7599 3.21225 8.81011 3.25575 8.50486C3.31237 8.10823 3.453 7.83186 3.74875 7.53611L4.1625 7.12236H8.7375L13.3125 7.12236V8.43486ZM14.6504 20.1271L12.8006 22.0107L12.2129 21.5166C11.8895 21.2449 11.4886 20.8762 11.322 20.6974C10.9296 20.2766 10.3356 20.261 9.95925 20.6616C9.44438 21.2097 9.58012 21.5466 10.8295 22.8205C12.0856 24.1015 12.6196 24.4422 13.0833 24.2586C13.3536 24.1515 14.456 23.0635 16.8476 20.543C17.9219 19.4107 18.0533 19.0171 17.5233 18.5191C16.9081 17.9414 16.6605 18.08 14.6504 20.1271ZM20.3951 19.1289C19.9791 19.4561 19.9389 20.1237 20.3125 20.4974C20.5575 20.7424 20.7291 20.7474 28.8659 20.7474L37.1694 20.7474L37.4284 20.418C37.7514 20.0074 37.7581 19.6122 37.4486 19.23L37.2096 18.9349L28.9688 18.901C20.7692 18.8674 20.7261 18.8685 20.3951 19.1289ZM20.3919 22.5065C19.9791 22.8311 19.9403 23.5001 20.3125 23.8724C20.5539 24.1137 20.7291 24.1224 25.3611 24.1224C29.8384 24.1224 30.1789 24.1069 30.4445 23.8919C30.8565 23.5582 30.8302 22.9197 30.3889 22.5401L30.0485 22.2474H25.3849C20.856 22.2474 20.7118 22.2549 20.3919 22.5065ZM54.6446 27.5354C54.3056 31.9459 52.317 33.9104 47.7813 34.3152L46.8125 34.4017L46.8141 33.6057C46.8179 31.8002 47.5291 29.6136 48.456 28.558C49.5524 27.3091 51.5414 26.5379 53.7373 26.5099L54.7244 26.4974L54.6446 27.5354ZM16.6099 27.8715C16.4641 27.9297 15.5395 28.7995 14.5551 29.8042L12.7656 31.6311L12.0077 30.8909C11.591 30.4837 11.1246 30.0866 10.9714 30.0085C10.3906 29.7124 9.6875 30.1875 9.6875 30.8761C9.6875 31.1216 10.0131 31.5202 11.0439 32.5359C12.1481 33.624 12.4675 33.8716 12.7626 33.8684C13.2151 33.8634 13.082 33.9789 15.6563 31.3577C17.4963 29.4842 17.8125 29.1064 17.8125 28.7811C17.8125 28.1145 17.1866 27.6411 16.6099 27.8715ZM20.3125 28.7474C19.9389 29.121 19.9791 29.7886 20.3951 30.1159C20.7261 30.3762 20.7692 30.3774 28.9688 30.3437L37.2096 30.3099L37.4486 30.0147C37.7581 29.6325 37.7514 29.2374 37.4284 28.8267L37.1694 28.4974L28.8659 28.4974C20.7291 28.4974 20.5575 28.5024 20.3125 28.7474ZM43.1294 30.5377C43.5644 31.1829 43.5648 31.1851 43.2829 31.2661C42.4981 31.4917 42.4375 31.4406 42.4375 30.5525C42.4375 29.6087 42.5021 29.6074 43.1294 30.5377ZM20.3125 32.1224C19.9403 32.4946 19.9791 33.1636 20.3919 33.4882C20.7118 33.7399 20.856 33.7474 25.3849 33.7474H30.0485L30.3889 33.4546C30.8302 33.075 30.8565 32.4365 30.4445 32.1029C30.1789 31.8879 29.8384 31.8724 25.3611 31.8724C20.7291 31.8724 20.5539 31.881 20.3125 32.1224ZM48.8125 36.1799C48.8125 36.2409 47.239 36.7474 47.0494 36.7474C46.9879 36.7474 46.9375 36.638 46.9375 36.5042C46.9375 36.304 47.0425 36.2527 47.5313 36.2142C48.6384 36.127 48.8125 36.1222 48.8125 36.1799ZM14.6611 39.2515C12.5767 41.3881 12.7947 41.3189 11.6917 40.1941C10.9069 39.3936 10.4331 39.2822 9.95925 39.7866C9.44338 40.3359 9.5795 40.6706 10.8438 41.9629C12.0991 43.2461 12.5487 43.5552 12.975 43.4284C13.3066 43.3295 14.3304 42.3494 16.3242 40.2217C17.9764 38.4586 18.1217 38.1337 17.4831 37.6315C16.8246 37.1134 16.648 37.2147 14.6611 39.2515ZM16.6875 46.9655C16.5844 46.9984 15.655 47.8634 14.6221 48.8877L12.7443 50.7502L12.0596 50.0516C11.2424 49.2177 10.8044 48.9632 10.3731 49.0715C9.78638 49.2187 9.48137 50.0462 9.84775 50.4974C9.9315 50.6005 10.5434 51.2052 11.2075 51.8411C12.1946 52.7864 12.485 52.9974 12.7989 52.9974C13.1312 52.9974 13.4814 52.6942 15.4039 50.7417C16.6255 49.5012 17.678 48.3481 17.7429 48.1792C17.915 47.731 17.696 47.2312 17.25 47.0544C17.0437 46.9727 16.7906 46.9326 16.6875 46.9655Z" fill="#393D46"/>
</svg>
