<svg width="32" height="32" viewBox="0 0 32 32" fill="none" xmlns="http://www.w3.org/2000/svg">
<path fill-rule="evenodd" clip-rule="evenodd" d="M25.0952 16.0164C26.8794 15.8023 28.1582 17.7328 29.4312 19.0078C30.5173 20.0955 31.5116 21.2971 31.8652 22.7968C32.2007 24.2205 31.8683 25.6866 31.3256 27.0441C30.8136 28.3249 30.0354 29.5004 28.8843 30.2525C27.7712 30.9798 26.4024 30.8826 25.0952 31.115C23.4285 31.4115 21.7621 32.4263 20.1887 31.7991C18.4936 31.1233 17.3218 29.4739 16.6766 27.759C16.0117 25.9916 15.6028 23.8383 16.5885 22.2294C17.5488 20.6618 19.9696 21.0472 21.4511 19.9652C22.9322 18.8835 23.2775 16.2345 25.0952 16.0164Z" fill="#F58634"/>
<path fill-rule="evenodd" clip-rule="evenodd" d="M7.83548 0.0622108C5.90741 0.309711 4.15385 1.14677 2.75904 2.48552C1.3981 3.79177 0.546224 5.32221 0.134099 7.20121C0.00972432 7.7684 -0.00483819 8.00177 0.00109931 9.33796C0.00828681 10.9615 0.116037 12.0226 0.432724 13.5881C2.12141 21.9361 8.40616 28.7324 16.6159 31.0887C18.6872 31.6832 20.5743 31.9534 22.6792 31.9568C23.9385 31.9588 24.1957 31.9419 24.7535 31.82C26.9574 31.3385 28.8676 30.1269 30.1803 28.3779C31.1836 27.041 31.8247 25.2895 31.9369 23.579C31.9835 22.8673 31.9234 22.5997 31.6622 22.3555C31.4859 22.1908 21.444 18.1391 21.056 18.0761C20.8027 18.035 20.4585 18.1814 20.2754 18.4081C20.1956 18.5071 19.7314 19.5864 19.2439 20.8067L18.3574 23.0255L17.9466 23.0123C17.7207 23.005 17.2655 22.9426 16.9351 22.8736C12.863 22.0233 9.71129 18.764 9.01891 14.6876C8.94804 14.2701 8.89879 13.8531 8.9096 13.761C8.92816 13.6026 9.0496 13.5457 11.1792 12.6974C13.6537 11.7118 13.779 11.6386 13.8654 11.1275C13.9058 10.8882 13.7539 10.4807 11.8357 5.68321C10.6954 2.83109 9.70379 0.423086 9.63216 0.332086C9.37485 0.00496078 8.8711 -0.0707267 7.83548 0.0622108ZM10.0242 6.18459C10.9599 8.52371 11.7151 10.4458 11.7024 10.4559C11.6897 10.466 10.7377 10.8498 9.58691 11.3089C7.34935 12.2015 7.1206 12.33 7.03216 12.7442C6.95479 13.1066 7.0651 14.5395 7.23279 15.3502C8.26073 20.3207 12.2492 24.0991 17.2417 24.832C17.788 24.9121 18.6042 24.9569 19.171 24.9378C19.2902 24.9337 19.4277 24.8532 19.5817 24.6973C19.7774 24.4993 19.9426 24.1381 20.6469 22.3692C21.1053 21.2176 21.4887 20.265 21.4988 20.2523C21.5089 20.2396 23.4347 20.9963 25.7782 21.9338L30.0392 23.6385L30.003 24.0195C29.9218 24.8742 29.4428 26.1277 28.8655 26.996C27.7726 28.64 25.8956 29.7885 23.853 30.0628C22.5225 30.2415 19.9049 29.9913 17.8922 29.4931C14.9149 28.7563 12.1708 27.3975 9.74173 25.4576C8.85904 24.7527 7.2021 23.0958 6.49698 22.213C3.78754 18.8205 2.24204 14.8851 1.89229 10.4881C1.8081 9.42965 1.84766 8.14109 1.98329 7.52546C2.35847 5.82221 3.29954 4.33134 4.63285 3.32784C5.11623 2.96409 5.9396 2.50134 6.40054 2.33452C6.89916 2.15396 7.7981 1.93796 8.06347 1.93477L8.32273 1.93171L10.0242 6.18459Z" fill="white"/>
</svg>
