<svg width="24" height="24" viewBox="0 0 24 24" fill="none" xmlns="http://www.w3.org/2000/svg">
<path d="M24 12C24 10.5242 23.721 9.11624 23.2328 7.80955C23.1027 12.1079 18.734 15.4369 16.1688 17.64H22.5901C23.4881 15.9572 24 14.0391 24 12ZM19.3578 2.53468C17.3255 0.95105 14.7764 -8.59651e-07 11.9993 -8.59651e-07C5.37234 -8.59651e-07 0 5.37252 0 12C0 18.6275 5.37234 24 11.9993 24C15.0351 24 17.7989 22.8653 19.9109 21.0069H11.223L11.1972 18.4548C16.4317 13.9043 19.641 10.8267 19.641 7.854C19.641 6.74918 19.22 5.35503 17.3269 5.35503C15.8275 5.35503 14.3806 6.22373 14.6428 9.85303H11.5923C10.8286 5.64509 13.1175 2.30293 17.4842 2.30293C18.1598 2.30293 18.7871 2.38455 19.3578 2.53468" fill="white"/>
</svg>
