<svg width="64" height="64" viewBox="0 0 64 64" fill="none" xmlns="http://www.w3.org/2000/svg">
<path fill-rule="evenodd" clip-rule="evenodd" d="M50.1905 32.0328C53.7587 31.6047 56.3164 35.4656 58.8625 38.0156C61.0345 40.191 63.0233 42.5942 63.7303 45.5936C64.4015 48.4409 63.7367 51.3733 62.6512 54.0882C61.6271 56.6497 60.0708 59.0007 57.7686 60.505C55.5424 61.9596 52.8048 61.7651 50.1905 62.2301C46.857 62.823 43.5242 64.8526 40.3773 63.5981C36.9871 62.2467 34.6435 58.9478 33.3532 55.5181C32.0234 51.9831 31.2057 47.6767 33.1769 44.4588C35.0975 41.3236 39.9392 42.0945 42.9021 39.9305C45.8644 37.7669 46.555 32.469 50.1905 32.0328Z" fill="#F58634"/>
<path fill-rule="evenodd" clip-rule="evenodd" d="M30.0751 7.57926C26.868 8.02401 24.2402 9.31826 22.1805 11.4674C19.5864 14.1741 18.3764 17.2445 18.0016 22.0709C17.9242 23.0678 17.8361 24.0049 17.8059 24.1535L17.7509 24.4236L12.8441 24.4763C8.69788 24.5206 7.83812 24.5611 7.29637 24.7376C5.906 25.1908 4.80863 26.0146 4.01737 27.1996C3.3485 28.2013 3.0865 29.1221 3.076 30.5084C3.06825 31.5344 3.10763 31.7269 3.52262 32.6959C3.93325 33.6548 3.984 33.8986 4.04338 35.1959C4.0795 35.9865 4.19475 36.9019 4.2995 37.2301C4.73125 38.5834 5.64525 40.0189 6.51237 40.7056L7.01075 41.1004L6.97412 41.9294L6.9375 42.7584L6.25 42.9695C5.87187 43.0858 4.83612 43.3914 3.94837 43.6489C2.16 44.1675 1.42725 44.5783 0.788625 45.4201C0.048125 46.3963 0 46.7681 0 51.5173C0 55.5088 0.0155 55.8124 0.233875 56.082C0.558875 56.4834 1.31612 56.4834 1.64112 56.082C1.85925 55.8126 1.875 55.5104 1.875 51.5835C1.875 45.8869 1.6875 46.2171 5.54012 45.1263L7.64275 44.531L8.82137 45.7048L10 46.8784V51.2188C10 55.8089 10.0281 56.0546 10.5821 56.3071C11.0331 56.5125 11.2279 56.4794 11.5681 56.139L11.875 55.8323V51.36V46.8879L13.079 45.6793L14.283 44.4708L14.9853 44.7096C15.3715 44.841 15.7677 44.9781 15.8659 45.0143C15.9941 45.0615 15.8824 45.2453 15.4676 45.6691C14.7898 46.362 14.2965 47.2919 14.1237 48.2023C13.9495 49.1213 13.9619 55.4756 14.1388 55.8638C14.2747 56.162 14.7212 56.4459 15.0545 56.4459C15.1467 56.4459 15.3551 56.3385 15.5174 56.2071L15.8125 55.9685L15.875 52.1134C15.9604 46.8485 15.782 47.1359 20.1624 45.2033C21.7297 44.5118 23.0312 43.9459 23.0546 43.9459C23.078 43.9459 23.3184 44.2975 23.589 44.7271C25.4129 47.624 28.4567 49.3233 31.875 49.3528C33.7146 49.3688 35.0395 49.061 36.6589 48.2418C38.0638 47.531 39.5793 46.1088 40.4378 44.6954C40.6883 44.2831 40.9144 43.9459 40.9405 43.9459C40.9665 43.9459 42.2702 44.5118 43.8376 45.2033C46.8228 46.5204 47.284 46.8184 47.7923 47.7584C48.0481 48.2318 48.0659 48.4634 48.125 52.1134L48.1875 55.9685L48.4826 56.2071C48.8224 56.482 48.9937 56.5004 49.4179 56.3071C49.9559 56.062 50 55.756 50 52.2695C50 48.313 49.8515 47.3343 49.0994 46.3353C48.976 46.1713 48.875 45.9879 48.875 45.9276C48.875 45.8674 49.1804 45.6684 49.5536 45.4854L50.2323 45.1525L51.0009 45.8641C52.273 47.0419 53.3664 47.4239 54.746 47.1726C55.6586 47.0064 56.1621 46.7306 57.0869 45.8908L57.8613 45.1874L59.5869 46.0535C61.3536 46.9404 61.7584 47.2445 61.9916 47.8603C62.0755 48.0814 62.125 49.6211 62.125 52.0026C62.125 55.5199 62.1419 55.814 62.3589 56.082C62.6879 56.4883 63.4411 56.4833 63.7736 56.0728C64.0031 55.7893 64.0131 55.571 63.9762 51.6415L63.9375 47.5084L63.6063 46.8834C63.0425 45.82 62.4818 45.3865 60.1581 44.2181L58.0009 43.1334L58.0069 42.1334L58.0129 41.1334L58.5185 40.7284C59.5409 39.9093 60.3068 38.7274 60.6883 37.3796C60.8045 36.9691 61.0874 36.1553 61.317 35.5709C61.5466 34.9865 61.8016 34.1193 61.8838 33.6438C62.2901 31.2885 61.4082 28.6095 59.6465 26.8478L58.9375 26.1388L58.934 25.0736C58.9311 24.197 58.8735 23.8856 58.6089 23.3151C57.6797 21.3128 55.6111 20.2598 53.2539 20.5895C51.6409 20.8151 50.2025 21.8166 49.5327 23.1803C49.2389 23.7789 49.1854 24.0506 49.173 25.0084L49.1585 26.1334L48.3478 26.975C47.9019 27.4379 47.3501 28.1675 47.1215 28.5964C46.8929 29.0253 46.6896 29.3215 46.6699 29.2548C46.65 29.188 46.462 27.1646 46.2523 24.7584C45.8346 19.969 45.6446 18.6803 45.1167 17.0531C44.3402 14.6603 43.3528 13.0326 41.6333 11.3116C39.7885 9.46551 37.7598 8.35851 35.2321 7.81888C33.8631 7.52651 31.3102 7.40788 30.0751 7.57926ZM34.6875 9.61801C39.5177 10.669 42.7469 14.1326 43.7966 19.3884C43.9059 19.9356 44.1671 22.3803 44.3773 24.8209C44.8169 29.928 45.2425 33.8496 45.6862 36.8834C45.9804 38.8941 45.9854 39.0173 45.7798 39.1743C44.9873 39.7793 40.87 41.4459 40.1681 41.4459C39.795 41.4459 38.1714 40.6221 38.0811 40.387C38.0365 40.2706 38 39.3693 38 38.3838V36.5921L38.5954 36.1551C39.951 35.16 41.3389 33.3945 42.0155 31.8044C42.7097 30.1728 42.8905 29.2091 42.9151 27.0084C42.9416 24.6433 42.7933 24.0491 41.9394 23.0993C40.3045 21.281 36.3293 19.2341 32.625 18.3033C30.9648 17.8861 28.0721 17.429 27.7693 17.5359C27.3519 17.6833 27.125 17.9885 27.125 18.4028C27.125 18.9666 27.4749 19.2843 28.2097 19.3875C33.38 20.1141 37.036 21.4786 39.9025 23.7516C40.9972 24.6198 41.0648 24.8074 41.0503 26.9459C41.0359 29.0924 40.7862 30.1906 39.961 31.74C38.3915 34.6866 35.3988 36.4615 32 36.4615C27.074 36.4615 23.3253 32.8769 22.9303 27.7889C22.822 26.394 22.9389 26.1045 23.8545 25.4983C25.3808 24.488 26.875 22.4683 26.875 21.4158C26.875 20.8906 26.5204 20.5293 26.005 20.5293C25.5252 20.5293 25.2689 20.756 24.9757 21.4399C24.592 22.3353 23.8935 23.1461 22.8463 23.9121C22.3101 24.3043 21.7318 24.8266 21.5611 25.0729C20.7109 26.2998 20.9417 29.4621 22.0674 32.0075C22.707 33.4536 24.1245 35.2154 25.4046 36.1551L26 36.5921V38.3838C26 39.3693 25.9635 40.2706 25.9189 40.387C25.8286 40.6221 24.205 41.4459 23.8319 41.4459C23.13 41.4459 19.0127 39.7793 18.2202 39.1743C18.0146 39.0173 18.0196 38.8941 18.3137 36.8834C18.7575 33.8496 19.1831 29.928 19.6227 24.8209C20.0222 20.1803 20.1957 19.0114 20.717 17.4509C22.1394 13.1929 25.3865 10.3031 29.5625 9.57888C29.975 9.50738 30.4531 9.42388 30.625 9.39338C31.2286 9.28626 33.8218 9.42963 34.6875 9.61801ZM55.6029 22.7826C56.3556 23.1396 56.9253 23.8205 57.0565 24.5205C57.103 24.7685 57.1226 24.9899 57.1 25.0125C57.0774 25.0351 56.666 24.9423 56.1857 24.806C54.737 24.3951 52.5734 24.488 51.1995 25.0203C50.9831 25.104 50.9678 25.0655 51.0306 24.5975C51.1589 23.6413 51.9774 22.8316 53.132 22.5189C53.978 22.2896 54.7334 22.3703 55.6029 22.7826ZM16.975 28.8521L16.9315 31.3834L16.4657 32.4036C16.015 33.3909 16 33.4699 16 34.8481C16 36.5275 15.7396 37.4785 15.0181 38.4344C14.4192 39.2276 13.9253 39.6295 13.0646 40.0235C10.5847 41.1589 7.70862 40.1184 6.50087 37.649C6.03713 36.7009 5.875 35.863 5.875 34.4133C5.875 33.3806 5.83725 33.2078 5.40825 32.2741C5.00662 31.4 4.942 31.1346 4.9445 30.3708C4.94938 28.85 5.80962 27.4861 7.21287 26.7738C7.9085 26.4206 8.8315 26.3505 12.978 26.3355L17.0184 26.3209L16.975 28.8521ZM55.8125 26.6601C58.7824 27.5733 60.6601 30.7813 59.9567 33.7403L59.8125 34.347L59.25 33.8566C57.9468 32.7204 55.9338 31.6665 53.7173 30.9599C51.7894 30.3453 51.3424 30.4521 51.0351 31.6006C50.9555 31.8985 50.7181 32.3589 50.5076 32.6238C49.8495 33.4519 50.1263 34.3209 51.048 34.3209C51.3818 34.3209 51.5648 34.217 51.9159 33.8284C52.1606 33.5575 52.4494 33.1645 52.5576 32.9553L52.7545 32.5748L53.5335 32.8685C55.9958 33.7971 57.3695 34.5774 58.4147 35.6413C58.9667 36.2031 59.0101 36.2908 58.9354 36.6938C58.8034 37.4059 58.1374 38.525 57.4795 39.1405C55.0238 41.4375 50.9375 40.6648 49.5098 37.6334C49.3155 37.2209 49.1201 36.6865 49.0755 36.4459C49.031 36.2053 48.7923 35.5368 48.5449 34.9603C47.3889 32.2659 48.1266 29.3638 50.4071 27.634C51.9666 26.4511 53.9629 26.0915 55.8125 26.6601ZM7.78375 29.548C7.46012 29.594 7 30.1269 7 30.4558C7 30.5801 7.12663 30.829 7.28125 31.0088C7.5455 31.3159 7.66062 31.3428 9.1875 31.4541C10.709 31.565 12.2356 31.8346 13.466 32.2099C14.4099 32.4978 15.0416 32.0016 14.8258 31.1419C14.7124 30.69 13.7552 30.2536 12.1649 29.9288C11.0154 29.6939 8.37288 29.4643 7.78375 29.548ZM28.9674 37.9436C30.0688 38.2889 31.7809 38.436 33.1264 38.3011C33.7457 38.239 34.6036 38.0781 35.0326 37.9436C35.4615 37.8091 35.8829 37.6984 35.9688 37.6975C36.0849 37.6963 36.1253 38.0728 36.1261 39.1646C36.1273 40.5714 36.1434 40.6614 36.5076 41.2965C36.9111 42.0003 37.5445 42.488 38.5568 42.8745C38.8693 42.9939 39.125 43.1321 39.125 43.1818C39.125 43.2314 38.9554 43.5395 38.748 43.8664C37.1386 46.4041 33.9972 47.8563 31.0037 47.4464C29.1099 47.1871 27.5887 46.4368 26.2927 45.1228C25.5966 44.4169 24.7743 43.2533 24.8911 43.1393C24.9166 43.1144 25.2636 42.95 25.6623 42.7741C26.7078 42.3128 27.0856 42.0058 27.5028 41.2784C27.8547 40.6645 27.8727 40.5624 27.8739 39.1646C27.8748 38.0728 27.9151 37.6963 28.0312 37.6975C28.1173 37.6984 28.5385 37.8091 28.9674 37.9436ZM49.5107 40.7049L50.135 41.2275L50.0988 42.1804L50.0625 43.1334L48.6077 43.877L47.1531 44.6208L45.0708 43.6995C43.9255 43.1929 42.9668 42.7433 42.9403 42.7003C42.9136 42.6574 43.4085 42.4059 44.0397 42.1414C45.2975 41.6145 46.7694 40.8113 47.2349 40.3976C47.5886 40.0833 47.875 39.4573 47.875 38.9981C47.875 38.7108 47.9414 38.7668 48.3809 39.4249C48.659 39.8415 49.1675 40.4175 49.5107 40.7049ZM17.9375 41.1619C18.4188 41.4361 19.329 41.877 19.9603 42.1414C20.5915 42.4059 21.086 42.6579 21.059 42.7015C21.0321 42.7451 20.4742 43.0166 19.8194 43.305L18.6286 43.8293L17.283 43.446C16.543 43.2351 15.6985 42.9755 15.4062 42.8689L14.875 42.6753L14.8733 41.9668C14.8716 41.2616 14.8749 41.2555 15.592 40.612L16.3125 39.9655L16.6875 40.3143C16.8937 40.5061 17.4562 40.8875 17.9375 41.1619ZM10.1099 42.3186C10.8379 42.4218 12.6094 42.2975 12.8907 42.1236C12.9359 42.0958 13.0006 42.2834 13.0344 42.5406C13.0933 42.9878 13.0497 43.0551 12.0489 44.069L11.0019 45.1298L9.93838 44.0718C8.96838 43.1069 8.875 42.9713 8.875 42.529C8.875 42.1303 8.9115 42.0581 9.08075 42.1231C9.194 42.1665 9.65712 42.2545 10.1099 42.3186ZM53.1478 42.3089C53.9341 42.4179 55.4031 42.3211 55.909 42.127C56.0976 42.0546 56.125 42.1319 56.125 42.7369C56.125 43.1179 56.1761 43.5641 56.2386 43.7286C56.3387 43.9919 56.2773 44.0923 55.7238 44.569C54.5903 45.5454 53.6479 45.6315 52.6611 44.849C51.839 44.197 51.7262 44.0248 51.8715 43.6428C51.9421 43.4568 52 43.0288 52 42.6916C52 42.2541 52.0448 42.0951 52.1562 42.1359C52.2422 42.1673 52.6884 42.2451 53.1478 42.3089ZM4.30688 48.8778L4 49.1845V52.4889C4 55.5311 4.0185 55.8161 4.23387 56.082C4.40312 56.2911 4.5975 56.3709 4.9375 56.3709C5.2775 56.3709 5.47188 56.2911 5.64113 56.082C5.85638 55.8163 5.875 55.5316 5.875 52.5114C5.875 49.3805 5.86312 49.2145 5.61587 48.9003C5.27725 48.4696 4.72438 48.4601 4.30688 48.8778ZM58.3841 50.1503C58.1404 50.46 58.125 50.6379 58.125 53.1364C58.125 55.546 58.1468 55.82 58.3589 56.082C58.6839 56.4834 59.4411 56.4834 59.7661 56.082C59.9782 55.82 60 55.546 60 53.1364C60 50.6379 59.9846 50.46 59.7409 50.1503C59.553 49.9114 59.3666 49.8209 59.0625 49.8209C58.7584 49.8209 58.572 49.9114 58.3841 50.1503ZM21.467 50.7271C21.0935 51.0108 21 51.5655 21 53.4979C21 55.5876 21.1026 56.0886 21.5746 56.3036C22.0109 56.5024 22.1685 56.4835 22.5456 56.1868L22.875 55.9278V53.5211C22.875 51.1671 22.8686 51.1085 22.5858 50.8426C22.2633 50.5398 21.7795 50.4898 21.467 50.7271ZM41.3968 50.8601C41.1373 51.1364 41.125 51.2576 41.125 53.5386V55.9278L41.4544 56.1868C41.6355 56.3293 41.8579 56.4459 41.9485 56.4459C42.3181 56.4459 42.7454 56.1391 42.8688 55.785C43.0434 55.284 43.038 51.7173 42.8619 51.2119C42.6237 50.529 41.8765 50.3496 41.3968 50.8601Z" fill="#393D46"/>
</svg>
