<svg width="64" height="64" viewBox="0 0 64 64" fill="none" xmlns="http://www.w3.org/2000/svg">
<path fill-rule="evenodd" clip-rule="evenodd" d="M50.1905 32.0328C53.7587 31.6047 56.3164 35.4656 58.8625 38.0156C61.0345 40.191 63.0233 42.5942 63.7303 45.5936C64.4015 48.4409 63.7367 51.3733 62.6512 54.0882C61.6271 56.6497 60.0708 59.0007 57.7686 60.505C55.5424 61.9596 52.8048 61.7651 50.1905 62.2301C46.857 62.823 43.5242 64.8526 40.3773 63.5981C36.9871 62.2467 34.6435 58.9478 33.3532 55.5181C32.0234 51.9831 31.2057 47.6767 33.1769 44.4588C35.0975 41.3236 39.9392 42.0945 42.9021 39.9305C45.8644 37.7669 46.555 32.469 50.1905 32.0328Z" fill="#A8CF45"/>
<path fill-rule="evenodd" clip-rule="evenodd" d="M28.4875 4.94979C23.4962 5.39429 19.5125 6.65341 17.3465 8.47116C14.0076 11.2729 12.5267 16.5967 13.6153 21.884C13.9306 23.415 14.9445 26.3684 15.7017 27.9615L16.3821 29.393L15.7128 30.3885C14.2566 32.5544 12.9886 35.5457 12.4933 37.9837C11.4778 42.9827 12.5857 48.4325 15.526 52.9019C16.4552 54.3145 17.8301 55.8887 18.8448 56.702C19.7577 57.4338 21.7897 58.4709 22.925 58.7845C23.6691 58.9902 24.4373 59.009 32.05 59.009C41.4942 59.009 40.9733 59.0587 43.2402 57.9443C45.2816 56.9408 46.9203 55.3879 48.5801 52.884C53.1528 45.9858 53.079 37.3667 48.3871 30.3885L47.7178 29.393L48.3982 27.9615C49.1535 26.3725 50.1673 23.4212 50.486 21.884C51.4285 17.3367 50.446 12.6717 47.9012 9.61104C45.9718 7.29066 42.51 5.82729 37.3 5.12991C35.5831 4.90016 30.2656 4.79141 28.4875 4.94979ZM36.1125 7.33204C40.108 7.72716 43.3638 8.72241 45.1378 10.0912C46.433 11.0903 47.4572 12.784 48.1195 15.0215C48.5565 16.4984 48.6721 18.9737 48.3816 20.634C47.9713 22.9784 47.0111 25.745 45.856 27.9109C45.4815 28.6132 45.1751 29.3444 45.1752 29.5359C45.1753 29.7657 45.4246 30.2165 45.9083 30.8623C50.9543 37.5974 50.912 46.1897 45.8001 52.8039C44.3023 54.7419 42.8011 55.8594 40.8625 56.4793C39.9943 56.7568 39.9251 56.759 32.05 56.759C24.1748 56.759 24.1056 56.7568 23.2375 56.4793C21.7548 56.0052 20.6013 55.2792 19.4132 54.0722C17.1568 51.78 15.5345 48.7155 14.7807 45.3215C14.5367 44.2232 14.4891 43.6522 14.4883 41.8215C14.4873 39.393 14.6052 38.5854 15.2506 36.597C15.9672 34.389 17.0403 32.3298 18.36 30.6304C18.7287 30.1557 18.925 29.7787 18.925 29.5453C18.925 29.3487 18.6188 28.6132 18.2447 27.9109C17.0625 25.6917 16.1363 23.034 15.7266 20.6845C15.4276 18.9707 15.5376 16.5182 15.9805 15.0215C16.6078 12.9017 17.6312 11.1508 18.7843 10.224C21.7922 7.80704 28.9075 6.61954 36.1125 7.33204ZM28.3 10.5849C25.8762 10.7972 23.3771 11.5019 21.9295 12.3813C19.8018 13.6738 18.8 15.4553 18.8 17.9459C18.8 20.266 19.4545 22.6124 20.9876 25.7879C22.2367 28.3755 22.128 28.3258 24.6276 27.4532C28.2976 26.172 31.1346 25.6705 33.2776 25.9239C33.9825 26.0073 34.5517 26.0172 34.7306 25.9492C35.364 25.7084 35.6326 24.7985 35.2371 24.2339C34.9015 23.7548 34.2637 23.6363 32.05 23.6419C29.6535 23.648 27.9906 23.9448 25.0623 24.889C24.1287 25.19 23.3251 25.3965 23.2765 25.3478C23.0937 25.1644 21.9332 22.3218 21.6283 21.3108C20.9008 18.8982 20.8605 17.0908 21.5078 15.9323C22.1757 14.7374 23.6912 13.812 25.8625 13.2734C28.705 12.5683 34.7611 12.5252 37.7901 13.1885C42.8215 14.2904 44.0106 16.5738 42.286 21.8215C41.9708 22.7807 40.9203 25.2429 40.7563 25.4069C40.7348 25.4284 40.3025 25.3049 39.7955 25.1325C39.0157 24.8673 38.8092 24.8404 38.454 24.9575C37.6951 25.208 37.4581 26.2297 38.0268 26.7984C38.1481 26.9197 38.9282 27.259 39.7605 27.5524C41.2203 28.0673 41.2891 28.0794 41.7211 27.8989C42.1256 27.7299 42.253 27.5388 43.0387 25.9229C45.4286 21.0078 45.9428 17.0997 44.5135 14.7152C44.0387 13.9233 42.8181 12.7428 42.0031 12.2873C40.4312 11.4088 38.1396 10.7959 35.6125 10.5783C33.8843 10.4294 30.035 10.4329 28.3 10.5849ZM22.226 32.0955C20.713 33.4902 19.0401 36.3993 18.5378 38.509C18.2033 39.9144 18.1765 41.8754 18.4746 43.134C18.7687 44.376 19.303 45.6844 19.6012 45.8933C20.0367 46.1984 20.7668 46.1202 21.1287 45.7297C21.5143 45.3135 21.489 44.9354 20.9836 43.5715C20.5197 42.3199 20.4131 40.3757 20.7347 39.0373C21.1493 37.3125 22.1305 35.5255 23.4297 34.129C24.3513 33.1383 24.4852 32.8327 24.2472 32.2632C23.8832 31.3918 23.0632 31.3238 22.226 32.0955Z" fill="#393D46"/>
</svg>
