<svg width="250" height="46" viewBox="0 0 250 46" fill="none" xmlns="http://www.w3.org/2000/svg">
<path d="M60.8678 12.3002H55.6016V9.46289H69.6964V12.3002H64.4077V25.7366H60.8678V12.3002Z" fill="white"/>
<path d="M78.4314 12.2905C77.1866 12.2905 76.2526 12.6006 75.6208 13.2244C74.989 13.8447 74.6369 14.7982 74.5726 16.0806L84.0598 16.0921V18.9179H74.5501C74.5573 20.3363 74.8602 21.3577 75.4537 21.9815C76.0479 22.6018 77.0391 22.9119 78.4314 22.9119H84.0598V25.7493H78.2644C76.9863 25.7493 75.9836 25.6394 75.2535 25.424C74.5234 25.2042 73.8352 24.8377 73.1919 24.3194C72.3598 23.6536 71.7359 22.7876 71.3159 21.7206C70.8995 20.65 70.6914 19.3755 70.6914 17.8885C70.6914 15.0064 71.316 12.8804 72.5644 11.5112C73.8085 10.1377 75.7414 9.45312 78.3634 9.45312H84.0598V12.2905H78.4314Z" fill="white"/>
<path d="M95.0403 12.3584H90.8374V16.4666H95.0403C96.1789 16.4666 96.9696 16.3112 97.412 16.0011C97.8544 15.691 98.0779 15.1575 98.0779 14.4013C98.0779 13.6517 97.8624 13.1261 97.4308 12.8196C96.9956 12.5131 96.2013 12.3584 95.0403 12.3584ZM87.4102 9.45312H95.8499C97.8169 9.45312 99.2584 9.85 100.174 10.6408C101.092 11.4317 101.551 12.6721 101.551 14.3558C101.551 15.6078 101.267 16.6293 100.703 17.4194C100.136 18.2102 99.3226 18.7206 98.2556 18.9519L102.322 25.7493H98.4676L94.874 19.3488H90.8374V25.7493H87.4102V9.45312Z" fill="white"/>
<path d="M112.423 12.3584H108.22V16.4666H112.423C113.562 16.4666 114.352 16.3112 114.795 16.0011C115.237 15.691 115.461 15.1575 115.461 14.4013C115.461 13.6517 115.245 13.1261 114.814 12.8196C114.379 12.5131 113.584 12.3584 112.423 12.3584ZM104.793 9.45312H113.233C115.2 9.45312 116.64 9.85 117.556 10.6408C118.475 11.4317 118.933 12.6721 118.933 14.3558C118.933 15.6078 118.649 16.6293 118.086 17.4194C117.518 18.2102 116.705 18.7206 115.639 18.9519L119.705 25.7493H115.85L112.257 19.3488H108.22V25.7493H104.793V9.45312Z" fill="white"/>
<path d="M128.528 12.691L126.145 18.9627H130.999L128.528 12.691ZM126.845 9.45312H130.477L137.426 25.7493H133.613L132.118 21.8681H125.037L123.585 25.7493H119.949L126.845 9.45312Z" fill="white"/>
<path d="M152.407 12.3584H143.945C143.038 12.3584 142.372 12.5283 141.944 12.8688C141.521 13.2093 141.309 13.7464 141.309 14.4881C141.309 15.0779 141.49 15.5247 141.85 15.8196C142.213 16.1146 142.754 16.262 143.469 16.262H148.001C149.877 16.262 151.216 16.6177 152.011 17.3247C152.805 18.036 153.202 19.2165 153.202 20.8734C153.202 22.549 152.744 23.7823 151.825 24.5688C150.91 25.356 149.468 25.7493 147.501 25.7493H138.381V22.844H146.957C147.933 22.844 148.617 22.7001 149.019 22.4167C149.415 22.1326 149.616 21.6642 149.616 21.0056C149.616 20.3247 149.434 19.8404 149.068 19.5534C148.7 19.2657 148.077 19.1218 147.191 19.1218H143.147C141.268 19.1218 139.894 18.7473 139.028 17.9948C138.158 17.2459 137.723 16.0618 137.723 14.4425C137.723 12.7141 138.181 11.4505 139.092 10.6524C140.008 9.85432 141.456 9.45312 143.446 9.45312H152.407V12.3584Z" fill="#F48234"/>
<path d="M156.121 9.45312H163.562C164.817 9.45312 165.82 9.51746 166.565 9.64613C167.314 9.77481 167.908 9.98302 168.351 10.2628C169.088 10.7355 169.648 11.3558 170.03 12.1199C170.412 12.884 170.601 13.7652 170.601 14.7642C170.601 15.7401 170.447 16.5758 170.136 17.2755C169.826 17.9717 169.353 18.5507 168.717 19.0083C168.184 19.3864 167.572 19.6553 166.883 19.8143C166.191 19.9726 165.131 20.0522 163.706 20.0522H159.548V25.7493H156.121V9.45312ZM163.516 12.3584H159.548V17.17H163.728C164.765 17.17 165.532 16.9734 166.036 16.5758C166.539 16.1825 166.788 15.5775 166.788 14.7642C166.788 13.8902 166.542 13.2736 166.051 12.9071C165.559 12.5399 164.715 12.3584 163.516 12.3584Z" fill="#F48234"/>
<path d="M172.281 17.4265C172.281 14.6274 172.951 12.5433 174.294 11.1778C175.633 9.81226 177.672 9.12695 180.414 9.12695C183.176 9.12695 185.219 9.8195 186.542 11.2002C187.87 12.5809 188.533 14.7106 188.533 17.5935C188.533 20.4756 187.87 22.6089 186.542 23.9975C185.219 25.3855 183.176 26.0816 180.414 26.0816C177.623 26.0816 175.569 25.3819 174.253 23.986C172.94 22.5901 172.281 20.4033 172.281 17.4265ZM180.414 11.9188C178.943 11.9188 177.846 12.3764 177.116 13.2923C176.39 14.2074 176.027 15.5961 176.027 17.4496C176.027 19.4578 176.379 20.9296 177.086 21.8636C177.789 22.7983 178.898 23.2674 180.414 23.2674C181.905 23.2674 183.01 22.8019 183.732 21.8751C184.45 20.9484 184.81 19.5221 184.81 17.5935C184.81 15.6561 184.45 14.2262 183.732 13.3031C183.01 12.3807 181.905 11.9188 180.414 11.9188Z" fill="#F48234"/>
<path d="M198.856 12.3584H194.653V16.4666H198.856C199.995 16.4666 200.785 16.3112 201.228 16.0011C201.67 15.691 201.894 15.1575 201.894 14.4013C201.894 13.6517 201.678 13.1261 201.247 12.8196C200.812 12.5131 200.018 12.3584 198.856 12.3584ZM191.227 9.45312H199.666C201.633 9.45312 203.074 9.85 203.989 10.6408C204.909 11.4317 205.366 12.6721 205.366 14.3558C205.366 15.6078 205.082 16.6293 204.519 17.4194C203.952 18.2102 203.138 18.7206 202.071 18.9519L206.138 25.7493H202.283L198.69 19.3488H194.653V25.7493H191.227V9.45312Z" fill="#F48234"/>
<path d="M212.172 12.3002H206.906V9.46289H221.001V12.3002H215.713V25.7366H212.172V12.3002Z" fill="#F48234"/>
<path fill-rule="evenodd" clip-rule="evenodd" d="M12.1582 22.3916C7.56991 21.9314 3.54149 19.707 0 15.949C1.0065 11.5741 2.91104 8.18294 5.62229 5.67626C6.25554 7.32598 7.32307 9.25683 7.33304 11.0381C7.33503 11.4561 6.4342 12.4514 5.93932 14.015C5.54614 15.2567 5.15374 18.6814 6.305 19.5519C6.61404 19.4359 6.49881 19.4841 6.4027 18.5522C6.31298 17.6793 6.0721 13.296 7.89887 13.6202C8.34031 13.6988 9.15104 14.4137 9.53146 14.9142C10.9407 16.7681 11.5501 19.784 12.1582 22.3916ZM20.4909 21.4397C18.8093 21.9553 17.1895 22.2755 15.6295 22.4091C16.0207 21.5167 16.8433 16.804 16.4697 16.0376C16.4019 15.898 16.2388 15.7572 16.0123 15.6168C15.9142 15.6168 15.8165 15.616 15.7188 15.6149C15.1294 15.6073 13.4251 15.5809 12.9541 15.2432C12.6626 15.0342 12.5103 14.5322 12.4178 14.1936C11.9759 14.0277 11.6294 13.8774 11.4743 13.7482C9.37314 11.6594 8.72594 9.41234 7.21898 6.88214C6.71294 6.46981 6.19493 6.03556 5.72876 5.57817L5.9461 5.38435C7.84106 7.27931 10.4008 8.47882 11.9767 10.7163C12.3165 11.3025 12.5003 14.5621 13.1228 15.0083C13.695 15.4187 17.3709 15.3664 18.2267 15.2224C18.7638 15.1319 19.1059 14.6853 18.3124 14.6482C17.1368 14.5928 15.9541 14.474 14.7785 14.395C14.1776 14.3547 14.0009 13.9919 14.0129 13.5345C14.02 13.2577 13.9742 12.382 14.0543 12.1639L21.5109 14.3874C21.5708 16.6504 21.2219 19.0032 20.4909 21.4397ZM6.40508 4.99516C8.74986 3.07666 11.6314 1.74557 15.0002 0.949219C18.6685 4.3643 21.1441 8.5821 21.4767 13.6545L19.6706 12.8222C17.5204 11.862 14.6549 10.9141 13.1698 9.32621C12.8225 8.95495 12.3627 8.21204 12.3603 7.84916C12.3583 7.56763 12.6116 7.33993 12.9019 7.1884C14.0292 6.59941 15.3595 7.01134 16.494 7.32676C17.2238 7.53014 17.1695 7.61508 17.3039 7.38459C16.9661 6.7334 15.0724 6.30592 14.2266 6.2804C12.9752 6.24331 10.4235 7.0552 10.3792 7.04762C8.9652 6.79839 7.62412 5.71813 6.40508 4.99516ZM10.0076 4.28255C10.9905 3.78408 11.8858 5.92709 10.9056 6.46224C9.91069 7.00497 8.94724 4.82049 10.0076 4.28255ZM4.03838 10.0105C3.22648 11.1055 5.6534 12.6424 6.50956 11.5581C7.37848 10.4579 4.91448 8.82895 4.03838 10.0105ZM14.9384 22.4566C14.4615 22.4809 13.9905 22.4873 13.5248 22.4761L12.8082 16.5823C13.0905 16.53 14.1484 16.7677 14.4878 16.8163C15.0477 16.8969 15.4536 17.1876 15.3778 17.9289C15.2706 19.3773 15.078 21.0613 14.9384 22.4566Z" fill="#F58634"/>
<path fill-rule="evenodd" clip-rule="evenodd" d="M23.5313 13.107C23.9915 8.5187 26.2158 4.49031 29.9738 0.949219C34.3487 1.95572 37.7399 3.85985 40.2466 6.5711C38.5969 7.20475 36.666 8.27186 34.8851 8.28183C34.4668 8.28382 33.4718 7.38299 31.9079 6.88812C30.6661 6.49533 27.2414 6.10294 26.3709 7.25419C26.487 7.56284 26.4387 7.44801 27.3706 7.3519C28.2435 7.26178 32.6269 7.02091 32.3027 8.84769C32.2241 9.28953 31.5091 10.0998 31.0086 10.4807C29.1547 11.8899 26.1388 12.4988 23.5313 13.107ZM24.4831 21.4397C23.9679 19.7581 23.6473 18.1387 23.5137 16.5783C24.4062 16.9699 29.1189 17.7921 29.8853 17.4185C30.0249 17.3507 30.1656 17.188 30.306 16.9611C30.306 16.863 30.3068 16.7653 30.308 16.6676C30.3156 16.0782 30.3419 14.3743 30.6796 13.9033C30.8886 13.6118 31.3906 13.4591 31.7292 13.3666C31.8951 12.9247 32.0455 12.5782 32.1747 12.4231C34.2634 10.322 36.5105 9.67475 39.0411 8.16779C39.453 7.66175 39.8873 7.14374 40.3446 6.67757L40.5389 6.89491C38.6435 8.78987 37.444 11.3496 35.2065 12.9255C34.6203 13.2657 31.3607 13.4495 30.9145 14.0716C30.5042 14.6442 30.5564 18.3197 30.7004 19.1755C30.7909 19.713 31.2375 20.0548 31.2746 19.2612C31.33 18.0856 31.4489 16.9029 31.5278 15.7273C31.5685 15.1263 31.931 14.9497 32.3884 14.9616C32.6651 14.9688 33.5408 14.9234 33.759 15.0031L31.5354 22.4598C29.2724 22.52 26.9196 22.1707 24.4831 21.4397ZM40.9277 7.35389C42.8466 9.69867 44.1772 12.5802 44.974 15.949C41.5585 19.6173 37.3407 22.0929 32.2687 22.4255L33.1006 20.6194C34.0612 18.4693 35.0087 15.6041 36.5966 14.1187C36.9679 13.7713 37.7108 13.3115 38.0737 13.3091C38.3552 13.3071 38.5829 13.5604 38.7344 13.8507C39.3234 14.9784 38.9115 16.3083 38.596 17.4428C38.3927 18.1726 38.3077 18.1183 38.5382 18.2527C39.1894 17.915 39.6169 16.0212 39.6424 15.1754C39.6795 13.9241 38.8676 11.3727 38.8752 11.3281C39.1244 9.91441 40.2047 8.57293 40.9277 7.35389ZM41.6403 10.9568C42.1387 11.9398 39.9958 12.8346 39.4606 11.8544C38.9179 10.8595 41.1027 9.89606 41.6403 10.9568ZM35.9123 4.98758C34.8173 4.17528 33.2808 6.60221 34.3647 7.45837C35.4649 8.32729 37.0939 5.86329 35.9123 4.98758ZM23.4662 15.8872C23.4419 15.4107 23.4356 14.9393 23.4467 14.4736L29.3406 13.757C29.3928 14.0397 29.1551 15.0976 29.1065 15.4366C29.0259 15.9969 28.7352 16.4024 27.9939 16.3267C26.5456 16.2194 24.8615 16.0268 23.4662 15.8872Z" fill="#A8CF45"/>
<path fill-rule="evenodd" clip-rule="evenodd" d="M23.5313 33.7911C23.9915 38.3794 26.2158 42.4077 29.9738 45.9492C34.3487 44.9427 37.7399 43.0382 40.2466 40.3269C38.5969 39.6937 36.666 38.6262 34.8851 38.6162C34.4668 38.6142 33.4718 39.5151 31.9079 40.0099C30.6661 40.4031 27.2414 40.7951 26.3709 39.6442C26.487 39.3352 26.4387 39.4505 27.3706 39.5466C28.2435 39.6363 32.6269 39.8771 32.3027 38.0504C32.2241 37.6085 31.5091 36.7982 31.0086 36.4178C29.1547 35.0085 26.1388 34.3992 23.5313 33.7911ZM24.4831 25.4584C23.9679 27.14 23.6473 28.7598 23.5137 30.3198C24.4062 29.9286 29.1189 29.1059 29.8853 29.4796C30.0249 29.5474 30.1656 29.71 30.306 29.9369C30.306 30.035 30.3068 30.1328 30.308 30.2305C30.3156 30.8198 30.3419 32.5242 30.6796 32.9951C30.8886 33.2866 31.3906 33.439 31.7292 33.5315C31.8951 33.9733 32.0455 34.3198 32.1747 34.475C34.2634 36.5761 36.5105 37.2233 39.0411 38.7302C39.453 39.2363 39.8873 39.7543 40.3446 40.2205L40.5389 40.0031C38.6435 38.1082 37.444 35.5485 35.2065 33.9725C34.6203 33.6324 31.3607 33.4485 30.9145 32.8264C30.5042 32.2538 30.5564 28.5783 30.7004 27.7226C30.7909 27.185 31.2375 26.8433 31.2746 27.6368C31.33 28.8124 31.4489 29.9952 31.5278 31.1708C31.5685 31.7717 31.931 31.9484 32.3884 31.9364C32.6651 31.9292 33.5408 31.9751 33.759 31.8949L31.5354 24.4383C29.2724 24.3781 26.9196 24.7274 24.4831 25.4584ZM40.9277 39.5441C42.8466 37.1994 44.1772 34.3178 44.974 30.949C41.5585 27.2807 37.3407 24.8052 32.2687 24.4726L33.1006 26.2786C34.0612 28.4288 35.0087 31.2944 36.5966 32.7794C36.9679 33.1267 37.7108 33.5865 38.0737 33.5889C38.3552 33.5909 38.5829 33.3377 38.7344 33.0474C39.3234 31.92 38.9115 30.5897 38.596 29.4552C38.3927 28.7255 38.3077 28.7797 38.5382 28.6453C39.1894 28.9831 39.6169 30.8769 39.6424 31.7227C39.6795 32.974 38.8676 35.5257 38.8752 35.57C39.1244 36.984 40.2047 38.3251 40.9277 39.5441ZM41.6403 35.9417C42.1387 34.9583 39.9958 34.0635 39.4606 35.0436C38.9179 36.0386 41.1027 37.002 41.6403 35.9417ZM35.9123 41.9109C34.8173 42.7228 33.2808 40.2958 34.3647 39.4397C35.4649 38.5707 37.0939 41.0348 35.9123 41.9109ZM23.4662 31.0108C23.4419 31.4878 23.4356 31.9587 23.4467 32.4245L29.3406 33.1411C29.3928 32.8588 29.1551 31.8004 29.1065 31.4615C29.0259 30.9016 28.7352 30.4956 27.9939 30.5714C26.5456 30.6787 24.8615 30.8713 23.4662 31.0108Z" fill="white"/>
<path fill-rule="evenodd" clip-rule="evenodd" d="M12.1582 24.5059C7.56991 24.9665 3.54149 27.1904 0 30.9484C1.0065 35.3233 2.91104 38.7145 5.62229 41.2212C6.25554 39.5715 7.32304 37.6406 7.33261 35.8597C7.335 35.4414 6.4342 34.4464 5.93932 32.8825C5.54614 31.6407 5.15374 28.2161 6.305 27.3455C6.61404 27.4616 6.49881 27.4133 6.4027 28.3457C6.31298 29.2182 6.0721 33.6015 7.89887 33.2773C8.34031 33.1987 9.15104 32.4837 9.53146 31.9832C10.9407 30.1293 11.5501 27.1134 12.1582 24.5059ZM20.4909 25.4578C18.8093 24.9425 17.1895 24.6219 15.6295 24.4883C16.0207 25.3808 16.8429 30.0935 16.4697 30.8603C16.4019 30.9995 16.2388 31.1402 16.0123 31.2806C15.9142 31.281 15.8165 31.2818 15.7188 31.283C15.1294 31.2902 13.4251 31.3165 12.9541 31.6543C12.6626 31.8632 12.5103 32.3653 12.4178 32.7042C11.9759 32.8697 11.6294 33.0201 11.4743 33.1493C9.37314 35.238 8.72594 37.4855 7.21898 40.0157C6.71294 40.4276 6.19493 40.8619 5.72876 41.3193L5.9461 41.5135C7.84106 39.6185 10.4008 38.4186 11.9767 36.1815C12.3165 35.5953 12.5003 32.3357 13.1228 31.8891C13.695 31.4788 17.3709 31.5311 18.2267 31.675C18.7638 31.7655 19.1059 32.2121 18.3124 32.2492C17.1368 32.3046 15.9541 32.4235 14.7785 32.5025C14.1776 32.5431 14.0009 32.9056 14.0129 33.363C14.02 33.6397 13.9742 34.5154 14.0543 34.7336L21.5109 32.51C21.5708 30.2474 21.2219 27.8942 20.4909 25.4578ZM6.40469 41.9023C8.74986 43.8212 11.6314 45.1519 15.0002 45.9486C18.6685 42.5331 21.1441 38.3153 21.4767 33.2433L19.6706 34.0752C17.5201 35.0358 14.6549 35.9837 13.1698 37.5712C12.8225 37.9425 12.3627 38.6854 12.3603 39.0483C12.3583 39.3298 12.6116 39.5575 12.9019 39.7091C14.0292 40.298 15.3595 39.8861 16.494 39.5707C17.2238 39.3677 17.1695 39.2824 17.3039 39.5129C16.9661 40.1641 15.0724 40.5915 14.2266 40.617C12.9752 40.6545 10.4235 39.8423 10.3792 39.8498C8.9652 40.0991 7.62413 41.1793 6.40469 41.9023ZM10.0076 42.6149C10.9905 43.1134 11.8858 40.9704 10.9056 40.4356C9.91069 39.8925 8.94724 42.0774 10.0076 42.6149ZM4.03838 36.8869C3.22648 35.7919 5.6534 34.2554 6.50956 35.3393C7.37848 36.4395 4.91448 38.0685 4.03838 36.8869ZM14.9384 24.4409C14.4615 24.4165 13.9905 24.4102 13.5248 24.4213L12.8082 30.3152C13.0905 30.3674 14.1484 30.1297 14.4878 30.0811C15.0477 30.0005 15.4536 29.7099 15.3778 28.9685C15.2706 27.5206 15.078 25.8362 14.9384 24.4409Z" fill="#9CA3A5"/>
<path d="M66.0586 36.9257C66.0586 38.0866 65.6757 38.377 63.9365 38.377C62.2568 38.377 61.8145 37.9925 61.8145 35.969C61.8145 33.9448 62.2663 33.5214 63.9365 33.5214C65.6459 33.5214 65.8224 33.8435 65.9597 34.8706H66.756C66.6579 33.5452 66.2939 32.9492 63.9365 32.9492C61.7069 32.9492 61 33.4905 61 35.969C61 38.4633 61.7163 38.9492 63.9365 38.9492C66.2452 38.9492 66.854 38.4475 66.854 36.9257H66.0586ZM71.4861 35.6081V33.5839H75.4048V33.0118H70.6711V38.8867H75.3859V38.3138H71.4861V36.1803H75.229V35.6081H71.4861ZM82.0616 33.5839H84.4388V33.0118H78.8695V33.5839H81.2458V38.8867H82.0616V33.5839ZM89.0119 33.0118H88.1961V38.8867H91.4864C93.0382 38.8867 93.6477 38.4 93.6477 37.2082C93.6477 35.992 93.068 35.6081 91.4675 35.6081H89.0119V33.0118ZM89.0119 36.1803H91.32C92.4882 36.1803 92.8325 36.3061 92.8325 37.2082C92.8325 37.9924 92.5964 38.3138 91.4282 38.3138H89.0119V36.1803ZM103.269 33.0118V33.7097H102.357C100.677 33.7097 99.8511 34.2669 99.8511 35.8669C99.8511 37.4591 100.677 38.0162 102.357 38.0162H103.269V38.8867H104.085V38.0162H105.028C106.688 38.0162 107.503 37.4591 107.503 35.8669C107.503 34.2827 106.679 33.7097 105.019 33.7097H104.085V33.0118H103.269ZM104.085 34.2668H104.93C106.206 34.2668 106.688 34.7607 106.688 35.8669C106.688 36.9725 106.217 37.4591 104.939 37.4591H104.085V34.2668ZM103.269 37.4591H102.415C101.089 37.4591 100.667 36.9725 100.667 35.8669C100.667 34.7607 101.089 34.2668 102.415 34.2668H103.269V37.4591ZM112.361 33.0118H111.546V38.8867H112.842L117.037 33.5135V38.8867H117.852V33.0118H116.546L112.361 38.4396V33.0118ZM124.763 33.5839H127.14V33.0118H121.571V33.5839H123.947V38.8867H124.763V33.5839ZM131.713 35.6081V33.0118H130.898V38.8867H131.713V36.1803H136.016V38.8867H136.831V33.0118H136.016V35.6081H131.713ZM141.905 35.6081V33.5839H145.824V33.0118H141.09V38.8867H145.805V38.3138H141.905V36.1803H145.648V35.6081H141.905ZM154.691 36.9257C154.691 38.0866 154.308 38.377 152.569 38.377C150.889 38.377 150.447 37.9925 150.447 35.969C150.447 33.9448 150.899 33.5214 152.569 33.5214C154.278 33.5214 154.455 33.8435 154.593 34.8706H155.388C155.29 33.5452 154.926 32.9492 152.569 32.9492C150.339 32.9492 149.632 33.4905 149.632 35.969C149.632 38.4633 150.349 38.9492 152.569 38.9492C154.878 38.9492 155.486 38.4475 155.486 36.9257H154.691ZM162.457 33.0118H161.641V38.8867H162.457V36.1803H163.184L166.553 38.8867H167.683L163.911 35.8511L167.289 33.0118H166.199L163.184 35.6081H162.457V33.0118ZM171.931 33.0118V37.2392C171.931 38.165 171.666 38.3138 171.038 38.3138H170.841V38.8867H171.362C172.403 38.8867 172.746 38.2828 172.746 37.1687V33.5839H176.303V38.8867H177.118V33.0118H171.931ZM180.885 33.0118L183.596 37.7653C183.42 38.1887 183.232 38.3138 182.722 38.3138H182.241V38.8867H183.007C183.616 38.8867 184.068 38.5883 184.382 37.9687L186.956 33.0118H186.111L184.038 37.0824L181.769 33.0118H180.885ZM190.773 33.0118V38.8867H194.063C195.615 38.8867 196.225 38.4 196.225 37.2082C196.225 35.992 195.645 35.6081 194.043 35.6081H191.588V33.5839H195.635V33.0118H190.773ZM191.588 36.1803H193.897C195.066 36.1803 195.409 36.3061 195.409 37.2082C195.409 37.9924 195.173 38.3138 194.005 38.3138H191.588V36.1803ZM200.14 35.9531C200.14 38.4474 200.758 38.9492 203.224 38.9492C205.709 38.9492 206.308 38.4474 206.308 35.9531C206.308 33.451 205.709 32.9492 203.244 32.9492C200.758 32.9492 200.14 33.451 200.14 35.9531ZM200.954 35.9531C200.954 33.8664 201.2 33.5214 203.233 33.5214C205.247 33.5214 205.493 33.8664 205.493 35.9531C205.493 38.0241 205.238 38.377 203.233 38.377C201.23 38.377 200.954 38.0241 200.954 35.9531ZM211.196 36.1803H213.809C214.88 36.1803 215.184 36.2745 215.184 37.2319C215.184 38.1966 214.722 38.3138 213.465 38.3138H211.196V36.1803ZM211.196 33.5839H213.838C214.722 33.5839 214.968 33.8039 214.968 34.5177C214.968 35.3573 214.624 35.6081 213.534 35.6081H211.196V33.5839ZM210.38 38.8867H214.133C215.548 38.8867 216 38.2354 216 37.1845C216 36.4082 215.842 36.0157 214.87 35.8044C215.704 35.5686 215.783 35.1136 215.783 34.4552C215.783 33.3963 215.184 33.0118 213.927 33.0118H210.38V38.8867Z" fill="white"/>
</svg>
