<svg width="64" height="64" viewBox="0 0 64 64" fill="none" xmlns="http://www.w3.org/2000/svg">
<path fill-rule="evenodd" clip-rule="evenodd" d="M50.1905 32.0328C53.7587 31.6047 56.3164 35.4656 58.8625 38.0156C61.0345 40.191 63.0233 42.5942 63.7303 45.5936C64.4015 48.4409 63.7367 51.3733 62.6512 54.0882C61.6271 56.6497 60.0708 59.0007 57.7686 60.505C55.5424 61.9596 52.8048 61.7651 50.1905 62.2301C46.857 62.823 43.5242 64.8526 40.3773 63.5981C36.9871 62.2467 34.6435 58.9478 33.3532 55.5181C32.0234 51.9831 31.2057 47.6767 33.1769 44.4588C35.0975 41.3236 39.9392 42.0945 42.9021 39.9305C45.8644 37.7669 46.555 32.469 50.1905 32.0328Z" fill="#A8CF45"/>
<path fill-rule="evenodd" clip-rule="evenodd" d="M54.9367 0.892909C54.653 1.13866 54.5971 1.31878 54.4946 2.31853C54.363 3.60041 53.981 4.77703 53.3679 5.78866C53.1299 6.18116 51.8836 7.53941 50.4144 9.00728L47.8726 11.5469L47.8707 10.1105C47.8676 7.64928 47.3316 6.18403 45.9216 4.78253C44.1605 3.03203 41.5771 2.45466 39.151 3.26941L38.318 3.54916L37.6742 2.90116C36.9102 2.13228 36.0039 1.79903 34.9201 1.88891C34.0766 1.95891 32.9544 2.52566 32.4704 3.12616C32.0281 3.67478 31.1268 6.06128 31.0359 6.92416C30.8506 8.68353 32.1194 10.2944 33.9669 10.6455L34.7184 10.7883L34.9114 11.7683C35.141 12.9334 35.6637 14.0997 36.451 15.2029L37.0256 16.0082L36.6844 17.2162C35.9159 19.9362 34.9189 22.3834 33.6065 24.7707C32.8787 26.0947 32.7429 26.4305 32.8106 26.7392C32.9577 27.4089 33.757 27.7038 34.3325 27.3007C35.0835 26.7747 37.4312 21.7432 38.3145 18.7669C38.4929 18.1659 38.6595 17.6092 38.6847 17.5298C38.7319 17.3817 40.5411 18.2538 40.6915 18.497C40.7339 18.5655 40.3983 19.0142 39.9456 19.494C39.0339 20.4604 38.9256 20.8275 39.3817 21.4073C39.5774 21.6562 39.7531 21.7368 40.1005 21.7373C40.5419 21.7378 40.8412 21.4555 47.6267 14.6435C53.9147 8.33078 54.7506 7.44591 55.2135 6.61166C56.0057 5.18391 56.3899 3.89728 56.4662 2.41516L56.5312 1.15628L56.1851 0.883909C55.7424 0.535784 55.3459 0.538659 54.9367 0.892909ZM59.3719 0.728409C58.6504 0.947909 57.8913 1.48466 57.641 1.95241C57.418 2.36903 57.4701 2.72053 57.8045 3.05478C58.2159 3.46628 58.6859 3.44191 59.3726 2.97341C59.8462 2.65041 60.0214 2.59928 60.4806 2.64953C61.4958 2.76053 62.1208 3.58428 61.9417 4.57503C61.8655 4.99766 60.8246 6.08178 52.3644 14.5503C43.2435 23.6802 42.8726 24.0693 42.8726 24.5099C42.8726 24.8564 42.9531 25.0318 43.202 25.2275C43.743 25.6532 44.142 25.5648 44.9294 24.8452C45.3154 24.4923 45.6715 24.2439 45.7207 24.293C45.7699 24.3423 45.8083 24.7857 45.806 25.2783C45.8011 26.3468 45.4531 27.1179 44.2669 28.6893C42.8027 30.6289 41.7346 31.4827 37.5609 34.0495L35.5617 35.2792L33.8109 35.0694C31.6061 34.8053 31.6702 34.8027 31.3045 35.1685C30.9088 35.5642 30.8988 36.1492 31.2813 36.5315C31.5246 36.775 31.8298 36.8469 33.4375 37.0393C34.4674 37.1624 36.0132 37.4294 36.8726 37.6324C37.732 37.8354 39.5499 38.2225 40.9122 38.4927C43.9805 39.1008 47.6876 40.2775 48.4081 40.8718C48.9642 41.3304 49.4744 42.2717 49.5717 43.0187C49.6291 43.459 48.9156 47.3793 48.3091 49.9554C48.2446 50.2294 48.2005 50.2367 46.606 50.2367H44.9692L45.0425 49.7054C45.2935 47.886 45.5117 45.4348 45.446 45.1729C45.4035 45.0034 45.237 44.7785 45.076 44.673C44.6463 44.3915 40.97 44.1199 35.9351 43.9975C31.856 43.8985 31.6409 43.881 30.5842 43.5639C29.9786 43.3823 29.2034 43.0918 28.8611 42.9184C27.1873 42.0702 26.236 40.2247 26.2572 37.8667C26.272 36.2278 26.3634 36.0545 27.8356 34.8752C28.5371 34.3132 29.2261 33.707 29.3669 33.5282C29.7144 33.0863 29.6943 32.5469 29.3158 32.1685C28.785 31.6377 28.4334 31.7488 27.1345 32.8582C26.4928 33.4063 25.6791 34.0194 25.3265 34.2209C23.4163 35.3117 20.8669 37.3432 12.0601 44.7927C9.89913 46.6207 8.68388 47.5172 5.18512 49.8647C0.816375 52.7958 0.556 53.0148 0.17725 54.0764C-0.13925 54.9638 -0.047875 55.6332 0.639625 57.4643C0.992875 58.4048 1.49275 59.6664 1.75063 60.2679L2.21938 61.3617H1.41537C0.72825 61.3617 0.566625 61.4063 0.3045 61.6685C-0.1015 62.0744 -0.1015 62.6489 0.3045 63.0548L0.61125 63.3617L31.9976 63.3617H63.384L63.6908 63.0548C63.8843 62.8614 63.9976 62.6052 63.9976 62.3617C63.9976 62.1182 63.8843 61.8619 63.6908 61.6685L63.384 61.3617H58.7H54.016L53.7086 60.6904C53.0569 59.2667 52.1132 58.5967 50.0601 58.0994C49.4414 57.9497 48.8959 57.7927 48.8479 57.7507C48.7999 57.7085 49.376 54.6929 50.1281 51.0492C50.8802 47.4054 51.5296 44.1708 51.5711 43.8612C51.824 41.9763 50.5406 39.6484 48.7476 38.7397C47.4408 38.0773 43.9191 37.0375 41.1226 36.4884C39.6445 36.1982 38.4217 35.9484 38.4054 35.9335C38.3891 35.9187 39.036 35.494 39.8429 34.99C42.2436 33.4904 43.6591 32.4319 44.5486 31.4713C47.54 28.2403 48.4352 25.7735 47.47 23.421L47.1636 22.6742L55.2616 14.5492C63.9507 5.83103 63.813 5.98928 63.9604 4.56166C64.0755 3.44653 63.7361 2.55553 62.876 1.71428C62.3325 1.18291 61.984 0.955159 61.4887 0.808034C60.7935 0.601659 59.8994 0.568034 59.3719 0.728409ZM35.9926 4.06616C36.4145 4.31528 36.7476 4.85178 36.7476 5.28216C36.7476 5.71878 35.9347 7.96078 35.6707 8.25253C35.3955 8.55678 34.6094 8.79178 34.2061 8.69053C33.6949 8.56228 33.1388 8.01203 33.0518 7.54866C32.9734 7.13091 33.4112 5.53503 33.8332 4.69991C34.2082 3.95778 35.2777 3.64378 35.9926 4.06616ZM42.391 5.03166C43.2284 5.22878 44.0291 5.67803 44.5974 6.26941L45.0097 6.69853L44.258 7.39453C43.3964 8.19216 42.5434 8.56566 41.1969 8.73478C40.1846 8.86191 39.8726 9.11591 39.8726 9.81303C39.8726 10.4525 40.2295 10.737 41.0289 10.7348C42.4347 10.7309 44.0938 10.137 45.2482 9.22441L45.8726 8.73078V11.1418V13.5528L44.2546 15.1672L42.6366 16.7815L41.8681 16.5679C41.0684 16.3455 40.0029 15.8535 39.5432 15.4944L39.2765 15.2859L39.6995 14.2372C39.9322 13.6603 40.1226 13.02 40.1226 12.8143C40.1226 11.9807 39.0872 11.5445 38.5286 12.1429C38.3841 12.2975 38.1594 12.6968 38.029 13.0299L37.7921 13.6357L37.5714 13.2988C37.2247 12.7698 36.8677 11.6215 36.7869 10.7755C36.714 10.013 36.7199 9.99403 37.199 9.44866C37.6467 8.93903 38.4117 7.14991 38.6949 5.95041C38.751 5.71291 38.9315 5.52291 39.2605 5.35503C40.2246 4.86328 41.2329 4.75916 42.391 5.03166ZM30.9773 28.8929C30.6631 29.1472 30.3726 29.6478 30.3726 29.9352C30.3726 30.0824 30.4893 30.3512 30.6318 30.5323C31.0171 31.0222 31.737 30.9964 32.174 30.477C32.5892 29.9837 32.5955 29.4482 32.1908 29.0435C31.8552 28.7079 31.2923 28.638 30.9773 28.8929ZM24.6235 40.5492C24.9884 41.7185 25.5304 42.6503 26.3454 43.5092L27.019 44.2192L26.6646 44.4023C26.4696 44.503 24.5664 45.3568 22.4351 46.2995C20.3039 47.2424 17.1451 48.7042 15.4156 49.548L12.271 51.0822L11.7648 49.7532C11.4863 49.0222 11.242 48.3633 11.2218 48.2889C11.1873 48.1614 19.0175 41.4864 22.5601 38.6233L24.1851 37.31L24.2677 38.492C24.3132 39.1422 24.4734 40.0679 24.6235 40.5492ZM30.5714 45.6258C31.4354 45.8565 32.0886 45.9028 35.7476 45.9919C39.5277 46.084 43.2204 46.2927 43.3491 46.4215C43.3764 46.4487 43.2774 47.5573 43.1292 48.885C42.4594 54.8888 42.1075 57.5664 41.8629 58.5204C41.6071 59.5174 41.5911 60.363 41.8142 61.0804L41.9017 61.3617H25.1373C15.9166 61.3617 8.37263 61.3323 8.37263 61.2964C8.37263 61.1998 7.63238 56.9687 7.56063 56.6552C7.50763 56.4238 7.76138 56.2175 9.37225 55.1825C13.1098 52.7815 15.1094 51.7715 23.8726 47.8588C25.6945 47.0454 27.6632 46.1539 28.2476 45.8778C28.832 45.6017 29.3715 45.3727 29.4464 45.3688C29.5214 45.3648 30.0276 45.4805 30.5714 45.6258ZM10.0031 50.7354C10.2788 51.4428 10.4725 52.0559 10.4336 52.0979C10.3948 52.1398 9.31088 52.8499 8.025 53.6759C6.552 54.6219 5.631 55.2942 5.53575 55.4928C5.3955 55.7855 5.62638 57.4522 6.30125 61.0179C6.3565 61.3095 6.32425 61.3615 6.08825 61.3609C5.21987 61.3588 4.19513 60.7312 3.79425 59.9559C3.387 59.1685 1.99762 55.4158 1.99762 55.1034C1.99762 54.4478 2.53187 53.991 5.99762 51.6829C7.88825 50.4239 9.45012 49.4063 9.4685 49.4215C9.48688 49.4368 9.7275 50.028 10.0031 50.7354ZM47.2367 55.1429C46.9036 56.7414 46.6291 58.2503 46.6267 58.4962C46.6202 59.1925 46.9567 59.3973 48.8726 59.8624C49.8007 60.0878 50.6726 60.3274 50.8101 60.3947C51.1235 60.5483 51.7476 61.1243 51.7476 61.26C51.7476 61.3159 50.1586 61.3597 48.2164 61.3573C44.3967 61.3524 44.3095 61.3385 43.8659 60.6658C43.5612 60.2035 43.5625 59.9512 43.8757 58.7245C44.0646 57.9845 44.7384 53.0378 44.7465 52.3304C44.7471 52.2788 45.444 52.2367 46.2951 52.2367H47.8426L47.2367 55.1429Z" fill="#393D46"/>
</svg>
