<svg width="64" height="64" viewBox="0 0 64 64" fill="none" xmlns="http://www.w3.org/2000/svg">
<path fill-rule="evenodd" clip-rule="evenodd" d="M50.1905 32.0328C53.7587 31.6047 56.3164 35.4656 58.8625 38.0156C61.0345 40.191 63.0233 42.5942 63.7303 45.5936C64.4015 48.4409 63.7367 51.3733 62.6512 54.0882C61.6271 56.6497 60.0708 59.0007 57.7686 60.505C55.5424 61.9596 52.8048 61.7651 50.1905 62.2301C46.857 62.823 43.5242 64.8526 40.3773 63.5981C36.9871 62.2467 34.6435 58.9478 33.3532 55.5181C32.0234 51.9831 31.2057 47.6767 33.1769 44.4588C35.0975 41.3236 39.9392 42.0945 42.9021 39.9305C45.8644 37.7669 46.555 32.469 50.1905 32.0328Z" fill="#A8CF45"/>
<path fill-rule="evenodd" clip-rule="evenodd" d="M23.625 0.182061C22.9859 0.408186 22.1241 1.31431 21.9494 1.94369C21.8749 2.21206 21.8136 3.37844 21.8132 4.53581L21.8125 6.64019L25.1875 26.7233C27.0438 37.7691 28.5625 46.8769 28.5625 46.9628C28.5625 47.0664 28.3575 47.1191 27.9544 47.1191C27.0851 47.1191 26.771 46.8304 26.5103 45.7926C25.8994 43.3608 24.1351 41.1637 21.8813 40.0281C20.4999 39.3319 19.5704 39.1046 17.8125 39.0327C16.3211 38.9717 16.2301 38.9822 15.8125 39.2652C14.879 39.8976 14.7527 40.7903 15.4435 41.8744C16.2171 43.0886 16.3586 44.0273 15.9377 45.1521C15.4724 46.3958 14.6165 46.9522 12.8956 47.1294C10.7566 47.3497 9.21638 48.3982 8.33488 50.2342C7.92362 51.0907 7.88538 51.2693 7.83575 52.5654L7.782 53.9691L7.10813 54.0533C6.18563 54.1686 4.83375 54.8699 4.19163 55.5667C3.90263 55.8802 3.48813 56.5124 3.27063 56.9716C2.91238 57.7277 2.875 57.9193 2.875 59.0006C2.875 60.1274 2.90125 60.2476 3.34188 61.1391C3.90363 62.2758 4.63138 62.9889 5.776 63.5246C6.46688 63.8478 6.79075 63.9181 7.81925 63.9676C9.0035 64.0247 9.0515 64.0164 9.3645 63.7034C9.77163 63.2963 9.77762 62.8228 9.38062 62.4259C9.1145 62.1597 8.96012 62.1191 8.2155 62.1191C7.07375 62.1191 6.26437 61.8276 5.62175 61.1848C4.399 59.9622 4.399 58.0259 5.62175 56.8033C6.17362 56.2513 7.05562 55.8691 7.77725 55.8691C8.43 55.8691 9.14725 55.4381 9.43587 54.8723C9.63837 54.4753 9.6875 54.1352 9.6875 53.1287C9.6875 51.5709 9.95087 50.7777 10.7175 50.0272C11.4029 49.3563 12.0122 49.1063 13.25 48.9882C15.3188 48.7908 16.7644 47.8318 17.5445 46.1393C18.2478 44.6136 18.2076 43.1653 17.4185 41.5878L17.0589 40.8691H17.7908C18.8066 40.8691 20.3212 41.2826 21.2901 41.8244C22.3109 42.3952 23.511 43.6009 24.0208 44.5676C24.2351 44.9741 24.559 45.7989 24.7406 46.4007C24.9629 47.1372 25.2019 47.6441 25.472 47.9517C25.9931 48.5453 26.955 48.9913 27.7174 48.9928C29.0842 48.9957 30.465 49.9474 30.9387 51.2134C31.1262 51.7146 31.1875 52.1866 31.1875 53.1287C31.1875 54.1352 31.2366 54.4753 31.4391 54.8723C31.7278 55.4381 32.445 55.8691 33.0978 55.8691C33.8194 55.8691 34.7014 56.2513 35.2533 56.8033C36.476 58.0259 36.476 59.9622 35.2533 61.1848C34.2766 62.1616 34.8261 62.1191 23.1595 62.1191H12.8011L12.4944 62.4259C12.1033 62.8169 12.1033 63.2962 12.4944 63.6872L12.8011 63.9941L31.743 63.9941C50.3015 63.9941 50.698 63.9891 51.3345 63.7472C52.193 63.4209 52.9979 62.6189 53.3138 61.7747C53.5466 61.1521 53.5625 60.7957 53.5625 56.1773V51.2449L57.3125 28.9441L61.0625 6.64319V4.55181C61.0625 3.25744 61.0039 2.26481 60.9086 1.94694C60.7011 1.25444 59.7721 0.309311 59.125 0.132186C58.7738 0.0361856 53.4917 -0.00306439 41.375 0.000185608C26.8255 0.00431061 24.0467 0.0326856 23.625 0.182061ZM28.3125 3.74406V5.61906L26 5.61906H23.6875V4.05094C23.6875 2.55256 23.7011 2.46906 23.9944 2.17594C24.2946 1.87556 24.344 1.86906 26.3069 1.86906L28.3125 1.86906V3.74406ZM36.4375 3.74406V5.61906H33.3125L30.1875 5.61906V3.74406V1.86906L33.3125 1.86906L36.4375 1.86906V3.74406ZM44.5625 3.74406V5.61906L41.4375 5.61906L38.3125 5.61906V3.74406V1.86906L41.4375 1.86906L44.5625 1.86906V3.74406ZM52.6875 3.74406V5.61906L49.5625 5.61906H46.4375V3.74406V1.86906L49.5625 1.86906L52.6875 1.86906V3.74406ZM58.8806 2.17594C59.1739 2.46906 59.1875 2.55256 59.1875 4.05094V5.61906H56.875L54.5625 5.61906V3.74406V1.86906L56.5681 1.86906C58.531 1.86906 58.5804 1.87556 58.8806 2.17594ZM58.9871 7.71281C58.9585 7.83306 57.3605 17.3253 55.4359 28.8066C53.5112 40.2878 51.9076 49.8081 51.8721 49.9628C51.811 50.2297 51.7484 50.2441 50.6463 50.2441C49.2856 50.2441 48.9375 50.4351 48.9375 51.1816C48.9375 51.9182 49.2907 52.1191 50.5861 52.1191H51.6875V53.0566V53.9941H42.375H33.0625V53.0566V52.1191H39.4139C45.633 52.1191 45.771 52.1138 46.0389 51.8642C46.4066 51.5216 46.4066 50.8416 46.0389 50.4989C45.7708 50.2491 45.6346 50.2441 39.1665 50.2441H32.5676L32.327 49.7753C32.1947 49.5176 31.7627 48.9864 31.3671 48.5952L30.6478 47.8838L27.3001 27.9702C25.459 17.0177 23.9289 7.92994 23.8999 7.77531L23.8471 7.49406L41.4431 7.49406C58.1376 7.49406 59.0364 7.50531 58.9871 7.71281ZM39.2211 18.9787C36.2338 19.8559 34.0111 22.1407 33.2474 25.1191C32.9279 26.3649 33.0331 28.6386 33.4665 29.8484C33.9373 31.1631 34.5006 32.0488 35.5042 33.0523C36.5034 34.0516 37.3851 34.6138 38.7081 35.0956C39.5439 35.3998 39.7855 35.4294 41.4375 35.4294C43.0895 35.4294 43.3311 35.3998 44.1669 35.0956C45.4899 34.6138 46.3716 34.0516 47.3708 33.0523C48.37 32.0532 48.9323 31.1714 49.414 29.8484C49.7183 29.0127 49.7479 28.7711 49.7479 27.1191C49.7479 25.4671 49.7183 25.2254 49.414 24.3897C48.9323 23.0667 48.37 22.1849 47.3708 21.1858C46.3679 20.1829 45.4827 19.6197 44.1669 19.1472C42.9384 18.7061 40.4394 18.6209 39.2211 18.9787ZM43.196 20.8184C45.3932 21.4638 47.0928 23.1633 47.7381 25.3606C47.8529 25.7512 47.9375 26.4978 47.9375 27.1191C47.9375 28.9387 47.3089 30.4777 46.0525 31.7341C44.7961 32.9904 43.2571 33.6191 41.4375 33.6191C39.6179 33.6191 38.0789 32.9904 36.8225 31.7341C35.5661 30.4777 34.9375 28.9387 34.9375 27.1191C34.9375 24.2121 36.6398 21.8608 39.4375 20.9036C40.4458 20.5586 42.1776 20.5193 43.196 20.8184ZM40.375 22.4858C39.009 22.8181 37.7822 23.8176 37.1569 25.1079C36.7983 25.8478 36.7577 26.0459 36.7584 27.0566C36.7592 28.5991 37.0856 29.4141 38.114 30.4426C40.0627 32.3912 43.076 32.3196 44.9399 30.2802C45.7833 29.3573 46.113 28.4688 46.113 27.1191C46.113 26.3103 46.0456 25.8863 45.831 25.3438C45.5001 24.5076 44.6335 23.4944 43.8623 23.0424C42.8676 22.4596 41.4279 22.2298 40.375 22.4858ZM42.5625 24.5046C42.8719 24.6448 43.259 24.8827 43.4227 25.0331C43.8737 25.4473 44.3102 26.4752 44.3085 27.1191C44.3069 27.7371 43.9496 28.6403 43.5235 29.1043C43.1107 29.5538 42.0814 29.9916 41.4375 29.9916C40.7936 29.9916 39.7643 29.5538 39.3515 29.1043C38.9244 28.6393 38.568 27.7362 38.568 27.1191C38.568 26.5019 38.9244 25.5988 39.3515 25.1338C39.7658 24.6828 40.7936 24.2463 41.4375 24.2481C41.7469 24.2488 42.2531 24.3643 42.5625 24.5046ZM35.1444 37.7227C34.8475 38.0507 34.8779 38.7763 35.2006 39.0684C35.4516 39.2956 35.7385 39.3066 41.4375 39.3066C47.1365 39.3066 47.4234 39.2956 47.6744 39.0684C48.0132 38.7618 48.0326 37.9939 47.7089 37.7009C47.5028 37.5144 46.8835 37.4941 41.4157 37.4941C35.6992 37.4941 35.3394 37.5072 35.1444 37.7227ZM51.6875 58.3753C51.6875 61.1584 51.626 61.4316 50.9001 61.8741C50.5796 62.0696 50.27 62.1182 49.3438 62.1186L48.1875 62.1191L48.1867 61.4628C48.1857 60.5304 48.0045 59.9923 47.488 59.3888C46.6601 58.4218 46.7514 58.4392 42.1387 58.3691L38.0274 58.3066L37.884 57.7412C37.8051 57.4302 37.588 56.9027 37.4015 56.5692C37.215 56.2356 37.0625 55.9416 37.0625 55.9158C37.0625 55.8901 40.3531 55.8691 44.375 55.8691H51.6875V58.3753ZM46.0056 60.5509C46.2504 60.7956 46.3125 60.9854 46.3125 61.4884V62.1191H41.6771C39.1276 62.1191 37.063 62.0769 37.089 62.0253C37.115 61.9737 37.3218 61.5518 37.5486 61.0878L37.9611 60.2441H41.83H45.6989L46.0056 60.5509Z" fill="#393D46"/>
</svg>
