<svg width="64" height="64" viewBox="0 0 64 64" fill="none" xmlns="http://www.w3.org/2000/svg">
<path fill-rule="evenodd" clip-rule="evenodd" d="M50.1905 32.0328C53.7587 31.6047 56.3164 35.4656 58.8625 38.0156C61.0345 40.191 63.0233 42.5942 63.7303 45.5936C64.4015 48.4409 63.7367 51.3733 62.6512 54.0882C61.6271 56.6497 60.0708 59.0007 57.7686 60.505C55.5424 61.9596 52.8048 61.7651 50.1905 62.2301C46.857 62.823 43.5242 64.8526 40.3773 63.5981C36.9871 62.2467 34.6435 58.9478 33.3532 55.5181C32.0234 51.9831 31.2057 47.6767 33.1769 44.4588C35.0975 41.3236 39.9392 42.0945 42.9021 39.9305C45.8644 37.7669 46.555 32.469 50.1905 32.0328Z" fill="#245990"/>
<path fill-rule="evenodd" clip-rule="evenodd" d="M30.739 0.164864C29.5507 0.553114 28.4965 1.42624 27.97 2.45811C27.6447 3.09574 27.4535 4.18961 27.4522 5.42024L27.4512 6.42849L26.7111 7.01861C25.805 7.74111 24.9423 8.92424 24.4871 10.0689C24.1692 10.8679 24.1452 11.0564 24.1472 12.741C24.1492 14.6132 24.2522 15.3207 24.7796 17.0882C25.1312 18.2667 26.2738 20.8875 26.8166 21.7606C27.017 22.0829 27.1483 22.3791 27.1087 22.4189C27.069 22.4585 26.8068 22.4922 26.5261 22.4937C25.0988 22.5012 22.4307 23.3927 20.688 24.4444C19.6801 25.0525 19.6713 25.0624 15.4096 30.3969C13.0617 33.3356 10.9835 36.0371 10.7915 36.4002C9.54133 38.7625 10.7651 41.9916 13.2973 43.0131C13.9907 43.2929 14.1606 43.3042 18.1755 43.3407L22.3352 43.3785L22.3005 45.0881L22.2657 46.7976L16.7032 48.4289C13.3965 49.3986 10.862 50.2097 10.4532 50.429C9.54008 50.919 8.23858 52.2451 7.73133 53.2025C6.31146 55.8825 6.63533 59.1762 8.53183 61.3442L9.09758 61.991H4.86571C0.224334 61.991 0.178959 61.998 0.0177093 62.732C-0.0734157 63.1466 0.201084 63.7905 0.521334 63.9134C0.866834 64.046 63.1957 64.0037 63.4443 63.8707C63.5678 63.8046 63.7397 63.5796 63.8262 63.3707C64.0103 62.9262 63.825 62.315 63.4443 62.1112C63.3132 62.0411 61.4673 61.991 59.0142 61.991H54.8088L55.3746 61.3442C58.1502 58.1712 57.4161 53.0637 53.843 50.6882C53.0807 50.1815 52.594 50.0049 49.3148 49.0442C47.2941 48.4522 44.7407 47.7026 43.6407 47.3784L41.6407 46.789L41.606 45.0775L41.5712 43.366L45.481 43.3645C49.6921 43.3629 50.2116 43.3029 51.2435 42.6981C51.9826 42.265 52.7862 41.3596 53.1832 40.5129C53.4771 39.8859 53.5157 39.651 53.5157 38.491C53.5157 36.8267 53.3958 36.5562 51.7385 34.4786C50.2427 32.6039 49.9842 32.4482 49.2826 33.0001C49.0327 33.1966 48.9536 33.37 48.9547 33.7189C48.9561 34.1089 49.1292 34.396 50.0985 35.616C51.4196 37.2786 51.5786 37.5975 51.5771 38.5807C51.5755 39.5656 51.0668 40.4652 50.2352 40.954L49.6407 41.3035L41.5651 41.3382C33.9811 41.3709 33.473 41.3594 33.2185 41.1507C32.948 40.9289 32.9475 40.9196 32.9816 36.1785L33.0157 31.4285L33.4067 31.8317C34.18 32.6289 34.7536 34.3715 34.9056 36.3846C34.9752 37.3074 35.0446 37.5832 35.2738 37.85L35.5563 38.1785L39.9735 38.2161C42.403 38.2367 44.5767 38.2196 44.804 38.1779C45.3682 38.0744 45.7032 37.7084 45.7032 37.1956C45.7032 36.8396 45.338 36.3085 43.3173 33.7269C42.0052 32.0502 40.8141 30.552 40.6706 30.3972C40.2883 29.9852 39.5552 30.0095 39.2123 30.4454C38.7556 31.026 38.8496 31.3145 39.9341 32.658L40.6238 33.5125L40.4663 34.283C40.3797 34.7067 40.2523 35.3206 40.1832 35.6472L40.0575 36.241H38.5138C36.7692 36.241 36.9091 36.3341 36.7661 35.078C36.4741 32.5129 35.2162 30.2906 33.6675 29.604C32.744 29.1945 31.1625 29.1945 30.239 29.604C28.6902 30.2906 27.4323 32.5129 27.1403 35.078C26.9973 36.3341 27.1372 36.241 25.3926 36.241H23.849L23.7232 35.6472C23.6541 35.3206 23.5267 34.7067 23.4401 34.283L23.2826 33.5125L23.9723 32.658C25.0568 31.3145 25.1508 31.026 24.6941 30.4454C24.3512 30.0095 23.6181 29.9852 23.2358 30.3972C23.0923 30.552 21.9012 32.0502 20.5891 33.7269C18.5685 36.3085 18.2032 36.8396 18.2032 37.1956C18.2032 37.7084 18.5382 38.0744 19.1025 38.1779C19.3297 38.2196 21.5035 38.2367 23.933 38.2161L28.3501 38.1785L28.6326 37.85C28.8618 37.5832 28.9312 37.3074 29.0008 36.3846C29.1547 34.3467 29.7147 32.6416 30.4943 31.8374L30.8907 31.4285L30.9248 36.1785C30.959 40.9196 30.9585 40.9289 30.688 41.1507C30.4335 41.3594 29.9253 41.3709 22.3413 41.3382L14.2657 41.3035L13.6712 40.954C12.532 40.2844 11.9915 38.664 12.5008 37.4449C12.698 36.9731 20.5237 27.1057 21.1106 26.5889C21.633 26.129 23.0151 25.4156 24.1128 25.0394C25.7362 24.4829 27.02 24.3675 31.5962 24.3667C37.5747 24.3657 39.1197 24.569 41.2956 25.6431C42.3792 26.1781 42.7662 26.4941 43.8335 27.716C44.5195 28.5012 44.8993 28.5641 45.4756 27.9879C45.7816 27.6819 45.8375 27.5449 45.7685 27.27C45.6276 26.7085 44.3633 25.1747 43.6523 24.7026C42.0406 23.6325 39.9773 22.8485 38.1407 22.6082C37.522 22.5272 36.9451 22.4412 36.8587 22.4171C36.7528 22.3875 36.8375 22.1585 37.119 21.7134C37.9807 20.3504 39.1741 17.2695 39.5776 15.366C39.8442 14.1081 39.8846 11.773 39.6552 10.881C39.2612 9.34924 38.3093 7.86199 37.148 6.96336L36.4895 6.45386L36.4162 4.99686C36.3248 3.17861 36.051 2.37986 35.1996 1.44836C34.1091 0.255239 32.1701 -0.302761 30.739 0.164864ZM33.3197 2.42261C33.9832 2.88236 34.3075 3.53586 34.4077 4.61561L34.4926 5.52799L34.1705 5.44711C32.7885 5.10024 31.118 5.10024 29.736 5.44711L29.4138 5.52799L29.4896 4.62536C29.5432 3.98486 29.6573 3.56536 29.8823 3.18136C30.5557 2.03236 32.225 1.66386 33.3197 2.42261ZM34.0157 7.51061C35.2343 7.91649 36.4271 8.81961 37.1222 9.86261C37.4736 10.3896 37.4012 10.4311 36.2035 10.3884C34.4935 10.3274 33.7392 10.5977 31.0906 12.221C30.5131 12.575 29.8381 12.9209 29.5906 12.9896C28.8521 13.1947 27.8241 13.13 26.9532 12.8232L26.1407 12.5372L26.1586 11.9204C26.2091 10.1806 27.6382 8.38061 29.5753 7.61711C30.9587 7.07186 32.5812 7.03299 34.0157 7.51061ZM37.2886 12.5097L37.8596 12.6536L37.7742 13.7054C37.6685 15.0079 37.3473 16.2865 36.7507 17.7805C35.9841 19.7001 35.4765 20.6757 34.9847 21.1746C33.2877 22.8959 29.9847 22.7026 28.5957 20.8007C27.907 19.8576 26.3282 15.8594 26.3282 15.0584C26.3282 14.764 26.329 14.7639 26.9845 14.9384C27.3453 15.0344 28.0626 15.1125 28.5782 15.1119C29.783 15.1104 30.7441 14.775 32.3907 13.7812C33.824 12.9162 34.3846 12.6175 34.8275 12.4827C35.3117 12.3355 36.6547 12.3501 37.2886 12.5097ZM46.6576 29.7501C46.1787 30.1267 46.1978 30.8194 46.7006 31.301C47.1967 31.7764 47.7602 31.7827 48.1605 31.3174C48.573 30.8379 48.5337 30.4215 48.0282 29.916C47.5357 29.4235 47.1345 29.375 46.6576 29.7501ZM21.7427 36.1472C21.6798 36.2559 21.3282 36.2755 21.3282 36.1702C21.3282 36.1314 21.3933 35.978 21.4728 35.8294C21.614 35.5656 21.6196 35.565 21.7072 35.8062C21.7566 35.9422 21.7725 36.0956 21.7427 36.1472ZM42.5782 36.1399C42.5782 36.2544 42.2813 36.2775 42.1751 36.1712C42.1368 36.1329 42.1361 35.984 42.1737 35.8402C42.2392 35.5897 42.249 35.5885 42.4101 35.8089C42.5026 35.9354 42.5782 36.0842 42.5782 36.1399ZM32.4148 43.0222C32.8713 43.292 33.0272 43.3051 36.2345 43.3422L39.5782 43.3809V45.5956C39.5782 47.3886 39.615 47.8627 39.771 48.0855C39.995 48.4054 40.6712 48.6254 47.3282 50.5444C49.8376 51.2677 52.134 51.9876 52.4313 52.1441C53.0808 52.4857 54.0805 53.5101 54.4256 54.1876C55.5396 56.3746 55.1708 58.8135 53.4771 60.4595C52.8123 61.1056 51.7777 61.654 50.8533 61.8504C50.489 61.9277 49.405 61.991 48.4443 61.991H46.6977L46.7317 59.6599L46.7657 57.3289L47.428 57.1131C47.7922 56.9944 48.1702 56.7917 48.2678 56.6629C48.7121 56.076 48.2567 55.1131 47.5378 55.1195C47.3195 55.1215 44.2582 55.8459 40.7352 56.7292L34.3296 58.3354L33.902 57.7401C33.0603 56.5686 31.9225 55.991 30.4562 55.991C29.3562 55.991 28.6318 56.2379 27.51 56.9949L26.619 57.5961L21.6923 56.3596C18.9827 55.6795 16.587 55.1214 16.3686 55.1195C15.6497 55.1131 15.1943 56.0761 15.6386 56.6629C15.7362 56.7917 16.1142 56.9944 16.4785 57.1131L17.1407 57.3289L17.1747 59.6599L17.2087 61.991H15.4621C13.4738 61.991 12.6877 61.8589 11.6882 61.3567C9.81008 60.4131 8.70383 58.418 8.86596 56.2667C8.98283 54.7166 9.94858 53.0977 11.2457 52.2772C11.518 52.105 13.3841 51.4875 15.5582 50.8502C17.6661 50.2324 20.3331 49.4487 21.4847 49.109L23.5788 48.491H29.1467H34.7146L35.0213 48.1841C35.3542 47.8514 35.4202 47.3087 35.168 46.9801C34.807 46.51 34.5826 46.491 29.399 46.491H24.3282V44.936V43.3809L27.672 43.3422C30.8478 43.3055 31.0377 43.2899 31.4532 43.0326C31.6938 42.8836 31.9016 42.757 31.9148 42.7514C31.9281 42.7456 32.1531 42.8675 32.4148 43.0222ZM21.547 58.3909C22.733 58.6826 23.702 58.951 23.7003 58.9874C23.6987 59.0237 23.2995 59.2774 22.813 59.5511C21.8251 60.1067 21.2826 60.6547 20.9293 61.4534L20.6915 61.991H19.9473H19.2032V59.9285C19.2032 58.7941 19.2455 57.8647 19.297 57.8632C19.3485 57.8617 20.361 58.0991 21.547 58.3909ZM44.7032 59.9285V61.991H33.8088H22.9145L23.1442 61.7371C23.2706 61.5975 24.2768 61.0266 25.3803 60.4685C26.484 59.9104 27.8535 59.1431 28.4238 58.7635C29.2871 58.189 29.5743 58.064 30.1387 58.0172C30.5116 57.9862 30.9588 57.9967 31.1326 58.0402C31.625 58.1639 32.3358 58.8631 32.6032 59.4867C32.9341 60.259 33.1727 60.4916 33.6288 60.4874C33.8416 60.4854 36.322 59.8999 39.1407 59.1862C41.9595 58.4726 44.3642 57.8836 44.4845 57.8774C44.6845 57.867 44.7032 58.0432 44.7032 59.9285Z" fill="#393D46"/>
</svg>
