<svg width="64" height="64" viewBox="0 0 64 64" fill="none" xmlns="http://www.w3.org/2000/svg">
<path fill-rule="evenodd" clip-rule="evenodd" d="M50.1905 32.0328C53.7587 31.6047 56.3164 35.4656 58.8625 38.0156C61.0345 40.191 63.0233 42.5942 63.7303 45.5936C64.4015 48.4409 63.7367 51.3733 62.6512 54.0882C61.6271 56.6497 60.0708 59.0007 57.7686 60.505C55.5424 61.9596 52.8048 61.7651 50.1905 62.2301C46.857 62.823 43.5242 64.8526 40.3773 63.5981C36.9871 62.2467 34.6435 58.9478 33.3532 55.5181C32.0234 51.9831 31.2057 47.6767 33.1769 44.4588C35.0975 41.3236 39.9392 42.0945 42.9021 39.9305C45.8644 37.7669 46.555 32.469 50.1905 32.0328Z" fill="#A8CF45"/>
<path fill-rule="evenodd" clip-rule="evenodd" d="M31.4264 0.0313259C28.2195 0.548951 25.3597 2.23733 23.4925 4.7152C21.8957 6.83445 21.2542 8.70258 21.1331 11.586L21.0514 13.5342L20.6271 14.0171C19.8947 14.8505 19.6827 15.4796 19.6807 16.8251C19.6792 17.8436 19.7249 18.1105 20.002 18.7001C20.3912 19.5287 21.1722 20.3351 21.9505 20.7118C22.2969 20.8794 22.9872 21.0432 23.6965 21.1258L24.8696 21.2626L25.2602 21.9501C26.0977 23.4241 27.1089 24.4878 28.4659 25.3228C29.0885 25.7058 29.1139 25.7432 29.1139 26.2733V26.8251H25.0699C21.0797 26.8251 21.0202 26.8288 20.6011 27.1075C20.3675 27.2628 20.092 27.5669 19.9889 27.7833C19.8527 28.0691 19.6645 28.2176 19.3014 28.3256C18.4614 28.5757 17.1162 29.3416 16.4415 29.9541C15.8579 30.4838 15.7682 30.5248 15.4264 30.4187C14.7974 30.2232 12.7507 30.2661 11.8639 30.4932C10.5295 30.8351 9.0736 31.6245 8.12173 32.5225C7.45123 33.1551 6.97098 33.4656 5.84698 33.9938C4.35748 34.6936 3.76098 35.1923 3.41073 36.0307C3.20098 36.5327 3.19535 37.7688 3.40073 38.2138C3.4836 38.3932 5.5526 41.4307 7.9986 44.9638L12.446 51.3876L12.649 52.6527C13.0145 54.9308 13.959 56.7012 15.6495 58.2772C17.0089 59.5447 18.8712 60.4475 20.7701 60.7595L21.2389 60.8365L21.2394 61.7995C21.2397 62.5341 21.2977 62.8576 21.4839 63.1627C21.989 63.9913 21.3857 63.9501 32.9866 63.9501C44.3139 63.9501 44.105 63.9617 44.5354 63.3043C44.6404 63.1438 44.7632 62.7811 44.8084 62.4981L44.8905 61.9835L45.7617 61.9026C46.8037 61.8057 47.2339 61.6037 47.7011 60.9917C48.032 60.5585 48.0537 60.4507 48.0931 59.0501C48.1295 57.7599 48.1025 57.5048 47.8854 57.0882L47.6357 56.6093L49.2066 55.311C50.0705 54.5968 50.9375 53.8635 51.1331 53.6812C51.804 53.0562 51.4641 52.0751 50.5767 52.0751C50.2259 52.0751 49.7669 52.4072 47.483 54.3138C46.0081 55.5452 44.7677 56.5155 44.7266 56.4701C44.5995 56.3297 43.9696 53.953 44.0116 53.7725C44.0335 53.6788 45.957 51.6413 48.2861 49.2448C50.6151 46.8483 52.577 44.7652 52.6457 44.6156C52.7144 44.466 52.737 44.2128 52.6959 44.0531C52.6499 43.8743 51.3969 42.7287 49.4387 41.0751L46.2562 38.3876L46.2475 34.0355L46.2389 29.6832L46.5201 29.7643C48.4834 30.3306 50.3066 32.371 50.7356 34.4817C50.9019 35.2996 51.011 35.39 52.1565 35.6572C53.2296 35.9075 54.0594 36.3961 54.9886 37.3251C55.8745 38.2107 56.385 39.1173 56.6589 40.2915C56.7957 40.8782 57.0355 41.3026 57.8467 42.3946C58.8592 43.7573 59.0176 44.1539 58.7882 44.7516C58.7467 44.86 57.5514 45.9113 56.132 47.0878C54.7126 48.2645 53.4249 49.3648 53.2701 49.5331C52.9039 49.9315 52.9132 50.3858 53.2957 50.7682C53.8817 51.3543 54.0871 51.2492 56.8639 48.9401C58.2732 47.7682 59.616 46.6301 59.8479 46.411C60.4495 45.8423 60.7329 45.1538 60.7361 44.2525C60.7395 43.329 60.5005 42.8136 59.344 41.25C58.7964 40.5097 58.4921 39.9703 58.4342 39.6376C58.3864 39.3626 58.1206 38.6656 57.8435 38.0887C56.9587 36.2468 54.9429 34.5105 53.0354 33.9471C52.5839 33.8137 52.5002 33.7301 52.3669 33.2786C51.6582 30.8793 49.2365 28.5345 46.819 27.9068C46.3807 27.7931 46.0141 27.6133 45.9062 27.4593C45.6465 27.0883 45.2605 26.9065 44.5707 26.8298C43.9689 26.7629 43.9634 26.7582 43.6609 26.0393C43.1899 24.9201 42.3925 23.6657 41.5784 22.7637C40.8742 21.9836 40.8442 21.9242 40.9841 21.5866C41.126 21.2441 41.1727 21.2277 42.2462 21.1437C44.032 21.0041 45.2382 20.2537 46.0147 18.7994C46.2659 18.3291 46.3014 18.0844 46.3014 16.8251C46.3014 15.2576 46.1622 14.8193 45.38 13.9223C45.0306 13.5217 45.0212 13.4722 44.9557 11.7001C44.9017 10.2387 44.8242 9.6697 44.556 8.76258C44.1326 7.33095 43.6366 6.22108 43.3522 6.06883C42.9266 5.84108 42.3962 5.93195 42.123 6.27945C41.7861 6.70758 41.7937 6.81095 42.2361 7.81895C42.773 9.04208 42.9941 9.97233 43.0771 11.3563L43.1502 12.5751H42.4585C41.7752 12.5751 41.7657 12.57 41.6895 12.1637C41.6471 11.9375 41.4176 11.346 41.1795 10.8492C40.4084 9.2402 38.9499 8.1082 37.4967 7.99108C36.8665 7.94033 36.2954 8.09908 31.4016 9.68595C28.4317 10.6491 25.8442 11.5193 25.6516 11.6198C25.459 11.7205 25.1361 11.9766 24.9342 12.189C24.5996 12.541 24.4972 12.5751 23.778 12.5751H22.9889V11.5326C22.9889 8.94783 24.3492 6.09045 26.4305 4.30395C30.0205 1.22233 35.0477 1.01083 38.9487 3.77733C39.8695 4.4302 40.3424 4.4882 40.7297 3.9957C41.265 3.31533 41.0067 2.85033 39.5671 1.9017C37.7375 0.696076 35.7042 0.0772009 33.3639 0.0134509C32.5045 -0.0100491 31.6326 -0.00192409 31.4264 0.0313259ZM38.372 10.2682C38.973 10.6847 39.558 11.5447 39.8041 12.3733C40.0567 13.2242 40.0604 18.0297 39.8092 19.2145C39.0014 23.0257 35.0759 25.4706 31.3194 24.5021C30.1417 24.1985 29.1404 23.6082 28.1625 22.6413C27.1929 21.6827 26.6324 20.7273 26.3102 19.4846C26.0402 18.4422 26.0254 13.8691 26.291 13.5052C26.5539 13.145 36.752 9.82145 37.4042 9.88333C37.6671 9.90833 38.1026 10.0816 38.372 10.2682ZM28.373 13.2795C28.1587 13.5517 28.1139 13.7861 28.1139 14.6327C28.1139 15.5412 28.1465 15.6871 28.4031 15.9283C28.8125 16.3128 29.4021 16.2873 29.7297 15.8707C29.9411 15.6021 29.9889 15.3633 29.9889 14.5751C29.9889 13.3942 29.7326 12.9501 29.0514 12.9501C28.7472 12.9501 28.5609 13.0406 28.373 13.2795ZM36.3639 13.2001C36.1509 13.4131 36.1139 13.6167 36.1139 14.5751C36.1139 15.8762 36.2969 16.2001 37.032 16.2001C37.7436 16.2001 37.9264 15.8631 37.9264 14.551C37.9264 13.5216 37.9017 13.4081 37.6312 13.1891C37.2487 12.8792 36.6797 12.8842 36.3639 13.2001ZM24.2389 16.7626C24.2389 18.0345 24.2247 19.1173 24.2076 19.1688C24.1594 19.3137 23.1065 19.2028 22.7471 19.0151C21.6762 18.4553 21.1939 17.0231 21.6824 15.8541C22.066 14.936 22.7494 14.4638 23.7076 14.455L24.2389 14.4501V16.7626ZM43.3584 14.6972C43.6247 14.8332 43.9741 15.1285 44.1346 15.3535C44.3859 15.7057 44.4264 15.9116 44.4264 16.8348C44.4264 17.8238 44.3984 17.9437 44.0661 18.3793C43.6636 18.9071 43.2185 19.1327 42.3135 19.2677L41.7006 19.3592L41.7809 18.8733C41.825 18.6062 41.8617 17.5016 41.8625 16.4188L41.8639 14.4501L42.3689 14.4501C42.6466 14.4501 43.0919 14.5613 43.3584 14.6972ZM32.6437 14.7833C32.4039 14.88 31.1212 16.5646 31.0395 16.8903C30.9347 17.3077 31.1577 17.6322 31.953 18.2197C32.807 18.8506 33.2684 18.8987 33.6961 18.4014C34.072 17.9646 34.0655 17.6853 33.6689 17.2139L33.349 16.8337L33.6689 16.3629C34.028 15.8344 34.0479 15.7162 33.8501 15.2822C33.6506 14.8445 33.079 14.608 32.6437 14.7833ZM30.2389 19.9877C29.8126 20.2021 29.5785 20.7158 29.728 21.1091C29.896 21.5508 30.6926 22.1641 31.4889 22.4646C32.4646 22.8328 34.0365 22.7553 34.9336 22.2947C36.256 21.616 36.6816 20.8702 36.1334 20.1931C35.7977 19.7786 35.2655 19.8256 34.5605 20.3319C34.0601 20.6913 33.8444 20.7626 33.1357 20.8026C32.3507 20.847 32.2615 20.8233 31.6447 20.4083C30.8157 19.8505 30.6251 19.7934 30.2389 19.9877ZM40.4831 24.3545C40.83 24.7832 41.3137 25.5145 41.5581 25.9795L42.0025 26.8251H39.4957H36.9889V26.2722C36.9889 25.7286 37.003 25.7098 37.8326 25.1562C38.2966 24.8466 38.8987 24.3641 39.1705 24.0841C39.4422 23.8042 39.7069 23.5751 39.7586 23.5751C39.8102 23.5751 40.1362 23.9258 40.4831 24.3545ZM35.1139 27.3473C35.1139 28.1163 35.1421 28.2048 35.4737 28.4723L35.8336 28.7626L34.6731 31.3251L33.5126 33.8876L33.032 33.9205L32.5514 33.9533L31.3984 31.3738L30.2454 28.7943L30.6171 28.4471C30.954 28.1325 30.9889 28.0252 30.9889 27.3062V26.5126H33.0514H35.1139V27.3473ZM26.01 31.4435C26.9644 34.4855 27.2204 34.9516 28.224 35.476C28.825 35.7898 29.0176 35.8251 30.1345 35.8251H31.3766L31.5637 36.2728L31.7507 36.7206L31.1771 37.2256C30.1584 38.1223 29.8212 39.1847 30.1724 40.3926C30.6889 42.169 32.7146 43.0407 34.3639 42.1961C36.4924 41.1059 36.5395 38.2142 34.4505 36.8876C34.2722 36.7743 34.2736 36.7215 34.4657 36.3251L34.6777 35.8876L36.052 35.822C37.5597 35.75 37.9154 35.6238 38.5686 34.9295C39.1206 34.3428 39.2319 34.077 40.117 31.2313L40.9042 28.7001H42.6386H44.373L44.3371 34.7313L44.3014 40.7626L43.9506 41.4768C43.5204 42.3531 42.6914 43.1063 41.7839 43.446C41.1327 43.6895 40.834 43.7001 34.6005 43.7001H28.0964L27.5739 43.3417C26.2791 42.4536 24.246 41.7026 23.1251 41.6983C22.3576 41.6954 22.1431 41.5805 21.935 41.0602C21.7665 40.639 21.7389 39.735 21.7389 34.6316L21.7389 28.6931L23.4539 28.7278L25.1689 28.7626L26.01 31.4435ZM29.3289 31.3173C29.9669 32.7225 30.4889 33.8896 30.4889 33.9111C30.4889 33.9326 30.1901 33.9501 29.825 33.9501C28.84 33.9501 28.7319 33.7963 27.912 31.2293C27.5225 30.0101 27.1762 28.9387 27.1425 28.8483C27.0962 28.725 27.2165 28.6938 27.625 28.7233L28.1689 28.7626L29.3289 31.3173ZM38.8639 28.8395C38.8639 28.9161 38.5506 29.9708 38.1676 31.1832C37.3596 33.7415 37.2137 33.9501 36.2319 33.9501C35.892 33.9501 35.6139 33.9126 35.6139 33.8668C35.6139 33.821 36.1297 32.6397 36.7604 31.2418L37.9069 28.7001H38.3854C38.654 28.7001 38.8639 28.7612 38.8639 28.8395ZM19.8639 33.8251C19.8639 35.8188 19.8337 37.4501 19.7969 37.4501C19.6916 37.4501 13.3282 38.825 13.0755 38.9023C12.9512 38.9403 12.7626 39.154 12.6562 39.377C12.4644 39.7793 12.4721 39.8037 13.6105 42.4152L14.758 45.0478L14.3197 45.6578C13.8742 46.278 13.0821 47.83 12.9466 48.3482C12.8999 48.527 12.8301 48.5875 12.7596 48.5105C12.6979 48.4428 10.9522 45.934 8.88048 42.9352C6.22073 39.0851 5.11385 37.3837 5.11385 37.1457C5.11385 36.5186 5.3591 36.31 7.03223 35.5136C8.31698 34.9021 8.76198 34.624 9.06835 34.2406C9.6201 33.5502 10.657 32.8725 11.7459 32.4903C12.8545 32.1012 14.4136 32.0518 15.4264 32.3737C15.7701 32.483 16.1494 32.573 16.2692 32.5737C16.3891 32.5745 16.872 32.1909 17.3424 31.7216C18.1149 30.9506 19.2782 30.2001 19.7009 30.2001C19.8311 30.2001 19.8639 30.9288 19.8639 33.8251ZM33.807 38.757C34.3972 39.3471 34.0665 40.4558 33.2465 40.636C32.4417 40.8127 31.6847 39.9375 31.9772 39.1682C32.2569 38.4326 33.2577 38.2077 33.807 38.757ZM19.8639 40.0626C19.8639 40.3913 19.9411 40.9171 20.0356 41.2308L20.2072 41.8015L19.6294 41.9576C18.8547 42.1668 17.5704 42.7467 16.8315 43.2208C16.5004 43.4333 16.2074 43.5852 16.1804 43.5582C16.0187 43.3966 14.8571 40.5401 14.925 40.4713C15.0351 40.36 19.6499 39.3558 19.7701 39.4171C19.8216 39.4433 19.8639 39.7338 19.8639 40.0626ZM48.3674 42.6163L50.3812 44.3451L49.7195 45.0538C48.0576 46.8338 43.3589 51.6113 43.3159 51.5646C43.2896 51.5359 43.149 51.0378 43.0035 50.4576C42.7024 49.2568 42.6757 48.3426 42.8854 46.4067L43.0322 45.051L43.6669 44.5818C44.8524 43.7056 45.6035 42.6641 45.9956 41.3528C46.0836 41.0587 46.2001 40.8337 46.2545 40.8528C46.309 40.872 47.2597 41.6655 48.3674 42.6163ZM24.5254 43.9075C28.2136 45.0692 30.4911 49.0316 29.6776 52.8715C29.3746 54.3015 28.7025 55.4947 27.5554 56.6393C26.4052 57.787 25.4659 58.3383 24.0394 58.7032C20.0187 59.7315 15.87 57.3548 14.693 53.349C13.7329 50.0817 15.1729 46.4242 18.1254 44.6306C20.0595 43.4557 22.2907 43.2036 24.5254 43.9075ZM20.236 45.4768C18.0059 46.2584 16.4397 48.1146 16.1272 50.3462C15.8434 52.3743 16.483 54.1911 17.9859 55.6245C19.603 57.1671 21.9737 57.7053 24.0514 57.0017C25.072 56.6561 26.328 55.7496 26.9424 54.915C27.6357 53.9731 27.7216 53.6544 27.399 53.2205C27.0345 52.7302 26.3295 52.694 25.955 53.1462C25.0514 54.2375 24.5086 54.7333 23.8795 55.0423C23.2749 55.3392 23.0275 55.3868 22.1139 55.3822C20.8301 55.3757 20.1645 55.1163 19.2591 54.2695C16.9812 52.1387 17.7992 48.2997 20.7532 47.2576C21.0376 47.1572 21.6549 47.0751 22.1249 47.0751C23.7581 47.0751 25.0754 47.8646 25.842 49.303C26.2584 50.0842 26.4066 50.2001 26.99 50.2001C27.3716 50.2001 27.8639 49.7115 27.8639 49.3327C27.8639 48.9225 27.194 47.791 26.5204 47.0632C26.0129 46.5151 25.5617 46.1875 24.7836 45.802C23.78 45.3046 23.6717 45.2789 22.3919 45.236C21.2422 45.1974 20.9352 45.2317 20.236 45.4768ZM41.0216 46.1063C40.9692 46.3985 40.9265 47.4251 40.9266 48.3876L40.927 50.1376L41.7704 53.0878C42.2344 54.7103 42.6139 56.0745 42.6139 56.1191C42.6139 56.1636 39.8857 56.2001 36.5514 56.2001C32.463 56.2001 30.4889 56.1581 30.4889 56.071C30.4889 55.9998 30.6279 55.6673 30.7979 55.332C31.5527 53.8423 31.8979 51.5178 31.6156 49.8248C31.4245 48.6778 30.8802 47.145 30.3697 46.3152C30.1602 45.9748 29.9889 45.6691 29.9889 45.6357C29.9889 45.6023 32.4926 45.5751 35.5529 45.5751H41.1169L41.0216 46.1063ZM34.1957 48.4287C33.9212 48.732 33.9281 49.4818 34.2076 49.7326C34.3279 49.8406 34.6426 49.9691 34.9069 50.0181C35.1711 50.0672 35.5367 50.2356 35.7194 50.3925C36.0439 50.6712 36.0527 50.7182 36.1139 52.4886C36.1859 54.5745 36.2931 54.8251 37.1139 54.8251C37.9219 54.8251 37.9892 54.6409 37.9861 52.4402C37.9839 50.8279 37.9454 50.4308 37.751 50.0126C37.4619 49.3905 36.6997 48.6491 36.0866 48.3937C35.4315 48.1207 34.4581 48.1387 34.1957 48.4287ZM20.8894 48.8411C19.205 49.6748 18.9567 52.0811 20.4297 53.2953C21.5648 54.2309 22.9676 54.1478 23.9999 53.084C24.9674 52.0868 25.0824 50.8603 24.3146 49.7256C23.571 48.6266 22.0935 48.2451 20.8894 48.8411ZM22.6592 50.6383C22.97 50.9491 23.0249 51.3139 22.8101 51.6417C22.3681 52.3163 21.3639 52.0796 21.3639 51.3008C21.3639 51.0843 21.457 50.8045 21.5707 50.6787C21.8214 50.4017 22.4011 50.3802 22.6592 50.6383ZM46.088 59.9687C45.9991 60.0251 45.6872 60.0721 45.3951 60.0732L44.8639 60.0751L44.8704 59.4813C44.8765 58.9191 44.9114 58.8597 45.5266 58.3642L46.1764 57.8408L46.213 58.8535C46.2392 59.5787 46.2037 59.8953 46.088 59.9687ZM42.9889 60.0751V62.0751H33.0514L23.1139 62.0751V61.4635C23.1139 60.8276 23.2221 60.7001 23.7619 60.7001C24.2165 60.7001 26.172 59.9813 26.9362 59.5335C27.3475 59.2924 27.9354 58.8681 28.2426 58.5903L28.8014 58.0853L35.8951 58.0802L42.9889 58.0751V60.0751Z" fill="#393D46"/>
</svg>
