<svg width="64" height="64" viewBox="0 0 64 64" fill="none" xmlns="http://www.w3.org/2000/svg">
<path fill-rule="evenodd" clip-rule="evenodd" d="M50.1905 32.0328C53.7587 31.6047 56.3164 35.4656 58.8625 38.0156C61.0345 40.191 63.0233 42.5942 63.7303 45.5936C64.4015 48.4409 63.7367 51.3733 62.6512 54.0882C61.6271 56.6497 60.0708 59.0007 57.7686 60.505C55.5424 61.9596 52.8048 61.7651 50.1905 62.2301C46.857 62.823 43.5242 64.8526 40.3773 63.5981C36.9871 62.2467 34.6435 58.9478 33.3532 55.5181C32.0234 51.9831 31.2057 47.6767 33.1769 44.4588C35.0975 41.3236 39.9392 42.0945 42.9021 39.9305C45.8644 37.7669 46.555 32.469 50.1905 32.0328Z" fill="#F58634"/>
<path fill-rule="evenodd" clip-rule="evenodd" d="M29.2543 1.80687L28.9474 2.11363V9.18188C28.9474 16.0219 28.9398 16.25 28.7119 16.25C28.2492 16.25 26.4797 17.255 25.5653 18.0373C23.5114 19.7943 21.2628 22.8621 18.7669 27.3125C17.8354 28.9734 15.3663 33.9347 14.5989 35.6875L14.1063 36.8125L13.2516 36.8984C12.6141 36.9624 12.1267 37.1181 11.3341 37.5107C9.41269 38.4629 7.04857 41.1017 4.62569 44.9985C2.90369 47.7679 0.700315 51.9224 0.24919 53.25C-0.0996846 54.2766 -0.0793096 56.2786 0.29194 57.4594C0.655315 58.615 1.64282 60.0894 2.55094 60.832C3.39069 61.5187 4.60632 62.1247 5.14444 62.1249C5.80107 62.1251 6.23807 61.452 5.99407 60.8164C5.95107 60.704 5.52032 60.4131 5.03707 60.1696C2.61244 58.9486 1.35732 56.4302 1.99332 54.0625C2.35932 52.6999 4.98269 47.8619 7.02869 44.7767C9.72232 40.7146 11.8744 38.75 13.6303 38.75C15.7021 38.75 18.4234 41.5983 21.8211 47.3226L23.0526 49.3974L22.3634 50.8549C21.7318 52.1908 19.0863 57.9871 18.2607 59.8438L17.9133 60.625H13.6317C8.87494 60.625 8.90882 60.6192 8.74632 61.4605C8.68431 61.7819 8.73157 61.9205 8.99219 62.181L9.31482 62.5036L33.7873 62.4706L58.2599 62.4375L59.0874 62.1151C60.2308 61.6698 60.9519 61.2261 61.6712 60.5255C63.5636 58.6823 64.3332 56.0801 63.7122 53.6245C63.2763 51.9006 58.9201 43.2555 56.2171 38.75C54.3409 35.6227 52.2378 32.6136 50.5822 30.6875L49.9374 29.9375L52.5362 29.864C55.4842 29.7806 55.9668 29.6769 57.1828 28.865C58.5541 27.9492 59.4553 26.5635 59.7206 24.963C60.2657 21.6731 57.4682 18.375 54.1327 18.375C53.7537 18.375 53.6573 18.3005 53.2844 17.7187C52.7583 16.898 52.5299 16.7084 52.0674 16.7084C51.5777 16.7084 51.1974 17.0718 51.1974 17.5396C51.1974 18.125 52.2558 19.6912 52.8797 20.0291C53.0144 20.102 53.5701 20.2066 54.1144 20.2615C55.7973 20.4311 56.9889 21.2313 57.6116 22.6098C57.9914 23.4506 57.9723 24.8479 57.5697 25.6822C57.1731 26.5036 56.4562 27.2009 55.5909 27.6065C54.8883 27.9359 54.8684 27.9376 51.4287 27.9759L47.9724 28.0144L47.1162 27.3905C46.1222 26.6664 45.0428 26.1099 44.0809 25.8256C43.2296 25.574 41.6786 25.567 40.8736 25.8111C40.3408 25.9726 40.2434 25.9735 40.1349 25.8175C40.0662 25.7187 39.6518 25.0519 39.2139 24.3356C38.7762 23.6194 38.0326 22.5094 37.5613 21.8689C36.9148 20.9901 36.7376 20.6648 36.8389 20.5426C37.1513 20.1663 38.3028 19.7413 39.3268 19.6245C40.4068 19.5014 40.9162 19.2635 41.3167 18.6952C41.8084 17.9975 42.9076 16.9896 43.5461 16.6509C44.7696 16.0017 45.5757 15.831 46.9399 15.9315C48.7822 16.0673 48.8449 16.0621 49.0952 15.753C49.6366 15.0844 49.1974 14.3599 48.1194 14.1434C45.1932 13.5556 42.2109 14.6465 40.2701 17.0142C39.7026 17.7066 39.6844 17.7169 38.9149 17.7809C37.9173 17.8639 36.8448 18.2458 36.0938 18.7851L35.5026 19.21L34.4919 18.3237C33.3628 17.3337 32.2047 16.6035 31.3748 16.3585L30.8224 16.1954V14.8046V13.4137L35.4787 12.0808C38.8858 11.1054 40.2676 10.6552 40.6296 10.403C41.7899 9.59412 42.1868 7.73637 41.4758 6.44212C40.8978 5.39012 40.6112 5.26363 35.4787 3.79425C32.2257 2.86287 30.8224 2.40887 30.8224 2.28737C30.8224 1.99775 30.2298 1.5 29.8849 1.5C29.7068 1.5 29.4231 1.63812 29.2543 1.80687ZM39.6428 7.13237C40.0659 7.52987 40.0691 8.34212 39.6491 8.73675C39.4328 8.93987 38.1779 9.353 35.0866 10.2388L30.8224 11.4604V7.93437V4.40825L35.0803 5.62725C38.2161 6.525 39.4184 6.92162 39.6428 7.13237ZM8.82244 13.2968C8.51307 13.3819 8.04144 13.5569 7.77419 13.6856C7.21669 13.9541 5.86757 15.1608 5.76569 15.482C5.71882 15.6295 5.41969 15.763 4.82219 15.9032C3.31569 16.2569 2.27382 17.2061 1.87082 18.5926C1.32157 20.4819 2.39082 22.54 4.29107 23.2509C4.95807 23.5005 5.17982 23.5087 10.2469 23.4737L15.5099 23.4375L16.3017 23.0082C17.6881 22.2566 18.4474 20.9929 18.4474 19.4375C18.4474 17.447 17.1431 15.877 15.1631 15.4844C14.6062 15.374 14.3668 15.2522 14.1153 14.9519C12.8847 13.4815 10.6684 12.7885 8.82244 13.2968ZM11.6572 15.3542C11.9444 15.5009 12.4442 15.9275 12.7677 16.3022C13.4054 17.041 13.6831 17.1902 14.6287 17.3032C14.9691 17.3439 15.4301 17.5022 15.6533 17.6551C16.9773 18.5624 16.8387 20.6713 15.4097 21.363C14.8888 21.6153 14.6871 21.625 10.0206 21.625C4.64644 21.625 4.61832 21.6211 3.99694 20.8065C3.56894 20.2454 3.48969 19.6276 3.75632 18.9296C4.03657 18.1959 4.62519 17.8032 5.69744 17.6349C6.40644 17.5236 6.55769 17.4496 6.88494 17.055C7.75032 16.0114 8.43956 15.3975 8.96157 15.2059C9.70394 14.9333 10.9692 15.0029 11.6572 15.3542ZM30.9354 18.1833C32.0863 18.5894 33.8062 20.0828 35.3309 22C35.9167 22.7366 37.6239 25.2595 38.3011 26.3892L38.5718 26.841L37.7284 27.4684C34.0762 30.1849 29.1719 37.2041 24.7073 46.1046L24.0592 47.3969L23.2096 45.9668C20.8196 41.9439 18.3508 38.965 16.4156 37.7689C16.1581 37.6097 15.9474 37.433 15.9474 37.376C15.9474 36.8596 19.8074 29.1965 21.4542 26.4438C25.3922 19.8606 28.3603 17.2748 30.9354 18.1833ZM44.7072 28.0868C48.7389 30.0946 53.8127 37.2526 59.7703 49.3381C61.7837 53.4224 61.9471 53.8226 62.0363 54.8869C62.2188 57.0641 60.9484 59.1705 58.8548 60.1624L58.0099 60.5625L38.9893 60.5957L19.9686 60.6289L21.1291 58.0332C25.2714 48.7685 29.0051 41.6091 32.2609 36.6875C34.4189 33.4254 36.0116 31.4704 37.9374 29.719C39.7581 28.0634 41.0192 27.4767 42.6447 27.5296C43.5454 27.559 43.7679 27.619 44.7072 28.0868ZM34.0582 46.1114C33.8082 46.3139 33.7592 46.4854 33.7179 47.3021C33.6628 48.3934 33.8193 48.9015 34.2743 49.1087C34.7082 49.3065 34.8663 49.2873 35.2431 48.9909C35.5573 48.7438 35.5724 48.6776 35.5724 47.5534C35.5724 46.5416 35.5371 46.3396 35.3224 46.125C35.0074 45.81 34.4379 45.8039 34.0582 46.1114ZM49.6293 46.1819C49.3581 46.453 49.3224 46.5975 49.3224 47.4259C49.3224 48.492 49.4676 48.9121 49.9046 49.1113C50.3556 49.3166 50.5503 49.2835 50.8906 48.9431C51.1703 48.6635 51.1974 48.5381 51.1974 47.5275C51.1974 46.53 51.1683 46.3913 50.9082 46.1468C50.5243 45.7863 50.0108 45.8004 49.6293 46.1819ZM40.1063 47.3869C39.7147 47.5317 39.4091 48.0544 39.5136 48.4001C39.6451 48.8349 40.1884 49.3606 40.8849 49.7272C41.7973 50.2074 43.1021 50.2014 44.0979 49.7124C45.3053 49.1195 45.7578 48.286 45.2277 47.6314C44.8988 47.2251 44.3259 47.2607 43.7444 47.7236C42.9049 48.3919 42.0312 48.4061 41.2886 47.7635C40.8172 47.3556 40.4807 47.2485 40.1063 47.3869Z" fill="#393D46"/>
</svg>
