<svg width="221" height="45" viewBox="0 0 221 45" fill="none" xmlns="http://www.w3.org/2000/svg">
<path d="M60.8678 11.351H55.6016V8.51367H69.6964V11.351H64.4077V24.7874H60.8678V11.351Z" fill="#245990"/>
<path d="M78.4334 11.3413C77.1886 11.3413 76.2545 11.6514 75.6227 12.2752C74.9909 12.8955 74.6389 13.849 74.5745 15.1314L84.0618 15.1429V17.9687H74.5521C74.5593 19.387 74.8622 20.4085 75.4557 21.0323C76.0499 21.6526 77.0411 21.9627 78.4334 21.9627H84.0618V24.8H78.2663C76.9883 24.8 75.9856 24.6902 75.2555 24.4747C74.5254 24.255 73.8372 23.8885 73.1938 23.3701C72.3618 22.7044 71.7378 21.8384 71.3178 20.7714C70.9015 19.7008 70.6934 18.4263 70.6934 16.9393C70.6934 14.0571 71.3179 11.9311 72.5664 10.562C73.8105 9.1885 75.7434 8.50391 78.3653 8.50391H84.0618V11.3413H78.4334Z" fill="#245990"/>
<path d="M95.0423 11.4092H90.8393V15.5174H95.0423C96.1808 15.5174 96.9716 15.362 97.414 15.0519C97.8564 14.7417 98.0798 14.2083 98.0798 13.4521C98.0798 12.7025 97.8643 12.1769 97.4328 11.8704C96.9976 11.5639 96.2032 11.4092 95.0423 11.4092ZM87.4121 8.50391H95.8519C97.8188 8.50391 99.2603 8.90079 100.176 9.69163C101.094 10.4825 101.553 11.7229 101.553 13.4065C101.553 14.6586 101.269 15.6801 100.705 16.4702C100.138 17.261 99.3246 17.7714 98.2576 18.0027L102.324 24.8H98.4695L94.876 18.3996H90.8393V24.8H87.4121V8.50391Z" fill="#245990"/>
<path d="M112.421 11.4092H108.218V15.5174H112.421C113.56 15.5174 114.35 15.362 114.793 15.0519C115.235 14.7417 115.459 14.2083 115.459 13.4521C115.459 12.7025 115.243 12.1769 114.812 11.8704C114.377 11.5639 113.582 11.4092 112.421 11.4092ZM104.791 8.50391H113.231C115.198 8.50391 116.639 8.90079 117.554 9.69163C118.473 10.4825 118.931 11.7229 118.931 13.4065C118.931 14.6586 118.647 15.6801 118.084 16.4702C117.516 17.261 116.703 17.7714 115.637 18.0027L119.703 24.8H115.848L112.255 18.3996H108.218V24.8H104.791V8.50391Z" fill="#245990"/>
<path d="M128.527 11.7417L126.143 18.0135H130.997L128.527 11.7417ZM126.843 8.50391H130.475L137.424 24.8H133.611L132.116 20.9188H125.035L123.583 24.8H119.947L126.843 8.50391Z" fill="#245990"/>
<path d="M152.409 11.4092H143.947C143.04 11.4092 142.374 11.5791 141.946 11.9196C141.523 12.26 141.311 12.7971 141.311 13.5388C141.311 14.1287 141.492 14.5755 141.852 14.8704C142.215 15.1653 142.756 15.3128 143.471 15.3128H148.003C149.879 15.3128 151.218 15.6685 152.013 16.3755C152.807 17.0868 153.204 18.2673 153.204 19.9241C153.204 21.5998 152.746 22.8331 151.827 23.6196C150.912 24.4068 149.47 24.8 147.503 24.8H138.383V21.8948H146.959C147.935 21.8948 148.619 21.7509 149.02 21.4675C149.417 21.1834 149.618 20.715 149.618 20.0564C149.618 19.3755 149.436 18.8911 149.07 18.6042C148.702 18.3164 148.079 18.1726 147.193 18.1726H143.149C141.27 18.1726 139.896 17.7981 139.03 17.0456C138.16 16.2967 137.725 15.1126 137.725 13.4933C137.725 11.7649 138.183 10.5012 139.094 9.70317C140.01 8.9051 141.458 8.50391 143.448 8.50391H152.409V11.4092Z" fill="#F48234"/>
<path d="M156.121 8.50391H163.562C164.817 8.50391 165.82 8.56824 166.565 8.69691C167.314 8.82559 167.908 9.0338 168.351 9.31356C169.088 9.78633 169.648 10.4066 170.03 11.1707C170.412 11.9348 170.601 12.816 170.601 13.815C170.601 14.7909 170.447 15.6265 170.136 16.3263C169.826 17.0224 169.353 17.6015 168.717 18.0591C168.184 18.4372 167.572 18.7061 166.883 18.8651C166.191 19.0234 165.131 19.1029 163.706 19.1029H159.548V24.8H156.121V8.50391ZM163.516 11.4092H159.548V16.2208H163.728C164.765 16.2208 165.532 16.0242 166.036 15.6266C166.539 15.2333 166.788 14.6283 166.788 13.815C166.788 12.941 166.542 12.3244 166.051 11.9579C165.559 11.5907 164.715 11.4092 163.516 11.4092Z" fill="#F48234"/>
<path d="M172.279 16.4772C172.279 13.6782 172.949 11.5941 174.292 10.2286C175.631 8.86304 177.67 8.17773 180.413 8.17773C183.174 8.17773 185.217 8.87028 186.54 10.251C187.868 11.6317 188.531 13.7614 188.531 16.6442C188.531 19.5264 187.868 21.6596 186.54 23.0483C185.217 24.4363 183.174 25.1324 180.413 25.1324C177.621 25.1324 175.567 24.4326 174.251 23.0367C172.938 21.6408 172.279 19.4541 172.279 16.4772ZM180.413 10.9695C178.941 10.9695 177.844 11.4271 177.114 12.343C176.388 13.2582 176.025 14.6469 176.025 16.5004C176.025 18.5086 176.377 19.9804 177.084 20.9143C177.787 21.849 178.896 22.3182 180.413 22.3182C181.903 22.3182 183.008 21.8527 183.73 20.9259C184.448 19.9992 184.808 18.5729 184.808 16.6442C184.808 14.7069 184.448 13.277 183.73 12.3539C183.008 11.4315 181.903 10.9695 180.413 10.9695Z" fill="#F48234"/>
<path d="M198.856 11.4092H194.653V15.5174H198.856C199.995 15.5174 200.785 15.362 201.228 15.0519C201.67 14.7417 201.894 14.2083 201.894 13.4521C201.894 12.7025 201.678 12.1769 201.247 11.8704C200.812 11.5639 200.018 11.4092 198.856 11.4092ZM191.227 8.50391H199.666C201.633 8.50391 203.074 8.90079 203.989 9.69163C204.909 10.4825 205.366 11.7229 205.366 13.4065C205.366 14.6586 205.082 15.6801 204.519 16.4702C203.952 17.261 203.138 17.7714 202.071 18.0027L206.138 24.8H202.283L198.69 18.3996H194.653V24.8H191.227V8.50391Z" fill="#F48234"/>
<path d="M212.17 11.351H206.904V8.51367H220.999V11.351H215.711V24.7874H212.17V11.351Z" fill="#F48234"/>
<path fill-rule="evenodd" clip-rule="evenodd" d="M12.1582 21.4424C7.56991 20.9822 3.54149 18.7578 0 14.9998C1.0065 10.6249 2.91104 7.23372 5.62229 4.72704C6.25554 6.37676 7.32307 8.30761 7.33304 10.0889C7.33503 10.5068 6.4342 11.5022 5.93932 13.0658C5.54614 14.3075 5.15374 17.7322 6.305 18.6027C6.61404 18.4867 6.49881 18.5349 6.4027 17.603C6.31298 16.7301 6.0721 12.3468 7.89887 12.671C8.34031 12.7495 9.15104 13.4645 9.53146 13.965C10.9407 15.8189 11.5501 18.8348 12.1582 21.4424ZM20.4909 20.4905C18.8093 21.0061 17.1895 21.3263 15.6295 21.4599C16.0207 20.5674 16.8433 15.8548 16.4697 15.0883C16.4019 14.9488 16.2388 14.808 16.0123 14.6676C15.9142 14.6676 15.8165 14.6668 15.7188 14.6656C15.1294 14.6581 13.4251 14.6317 12.9541 14.294C12.6626 14.085 12.5103 13.583 12.4178 13.2444C11.9759 13.0785 11.6294 12.9282 11.4743 12.799C9.37314 10.7102 8.72594 8.46313 7.21898 5.93292C6.71294 5.52059 6.19493 5.08634 5.72876 4.62895L5.9461 4.43513C7.84106 6.33009 10.4008 7.5296 11.9767 9.76711C12.3165 10.3533 12.5003 13.6129 13.1228 14.0591C13.695 14.4694 17.3709 14.4172 18.2267 14.2732C18.7638 14.1827 19.1059 13.7361 18.3124 13.699C17.1368 13.6436 15.9541 13.5247 14.7785 13.4458C14.1776 13.4055 14.0009 13.0426 14.0129 12.5852C14.02 12.3085 13.9742 11.4328 14.0543 11.2147L21.5109 13.4382C21.5708 15.7012 21.2219 18.054 20.4909 20.4905ZM6.40508 4.04594C8.74986 2.12745 11.6314 0.796347 15.0002 0C18.6685 3.41508 21.1441 7.63289 21.4767 12.7053L19.6706 11.873C17.5204 10.9128 14.6549 9.9649 13.1698 8.37699C12.8225 8.00574 12.3627 7.26282 12.3603 6.89994C12.3583 6.61841 12.6116 6.39072 12.9019 6.23918C14.0292 5.6502 15.3595 6.06212 16.494 6.37754C17.2238 6.58092 17.1695 6.66586 17.3039 6.43537C16.9661 5.78418 15.0724 5.3567 14.2266 5.33118C12.9752 5.29409 10.4235 6.10598 10.3792 6.0984C8.9652 5.84917 7.62412 4.76891 6.40508 4.04594ZM10.0076 3.33333C10.9905 2.83486 11.8858 4.97787 10.9056 5.51302C9.91069 6.05575 8.94724 3.87127 10.0076 3.33333ZM4.03838 9.06129C3.22648 10.1563 5.6534 11.6932 6.50956 10.6089C7.37848 9.50871 4.91448 7.87973 4.03838 9.06129ZM14.9384 21.5074C14.4615 21.5317 13.9905 21.5381 13.5248 21.5269L12.8082 15.633C13.0905 15.5808 14.1484 15.8185 14.4878 15.8671C15.0477 15.9477 15.4536 16.2384 15.3778 16.9797C15.2706 18.428 15.078 20.112 14.9384 21.5074Z" fill="#F58634"/>
<path fill-rule="evenodd" clip-rule="evenodd" d="M23.5332 12.1578C23.9934 7.56948 26.2177 3.54109 29.9758 0C34.3507 1.0065 37.7419 2.91063 40.2485 5.62188C38.5988 6.25553 36.668 7.32264 34.887 7.33261C34.4687 7.33461 33.4738 6.43377 31.9098 5.9389C30.668 5.54611 27.2434 5.15372 26.3729 6.30498C26.4889 6.61363 26.4406 6.49879 27.3726 6.40268C28.2455 6.31256 32.6288 6.07169 32.3046 7.89847C32.2261 8.34031 31.511 9.15062 31.0106 9.53145C29.1567 10.9407 26.1408 11.5496 23.5332 12.1578ZM24.4851 20.4905C23.9698 18.8089 23.6493 17.1894 23.5157 15.6291C24.4081 16.0206 29.1208 16.8429 29.8873 16.4693C30.0268 16.4015 30.1676 16.2388 30.3079 16.0119C30.3079 15.9138 30.3087 15.8161 30.3099 15.7184C30.3175 15.129 30.3438 13.4251 30.6816 12.9541C30.8906 12.6626 31.3926 12.5099 31.7311 12.4173C31.897 11.9755 32.0474 11.629 32.1766 11.4739C34.2654 9.37273 36.5124 8.72553 39.043 7.21857C39.455 6.71253 39.8892 6.19452 40.3466 5.72835L40.5408 5.94569C38.6455 7.84066 37.4459 10.4004 35.2084 11.9763C34.6222 12.3165 31.3627 12.5003 30.9165 13.1224C30.5061 13.695 30.5584 17.3705 30.7023 18.2263C30.7928 18.7638 31.2395 19.1056 31.2766 18.312C31.332 17.1364 31.4508 15.9537 31.5298 14.7781C31.5704 14.1771 31.9329 14.0005 32.3903 14.0124C32.6671 14.0196 33.5428 13.9741 33.7609 14.0539L31.5374 21.5105C29.2743 21.5708 26.9216 21.2214 24.4851 20.4905ZM40.9296 6.40467C42.8485 8.74945 44.1792 11.631 44.9759 14.9998C41.5605 18.6681 37.3427 21.1437 32.2707 21.4763L33.1025 19.6702C34.0632 17.52 35.0107 14.6549 36.5986 13.1694C36.9698 12.8221 37.7127 12.3623 38.0756 12.3599C38.3572 12.3579 38.5849 12.6112 38.7364 12.9015C39.3254 14.0292 38.9134 15.3591 38.598 16.4936C38.3946 17.2233 38.3097 17.1691 38.5402 17.3035C39.1914 16.9657 39.6189 15.072 39.6444 14.2262C39.6815 12.9748 38.8696 10.4235 38.8771 10.3788C39.1264 8.96519 40.2067 7.62371 40.9296 6.40467ZM41.6422 10.0076C42.1407 10.9905 39.9977 11.8854 39.4626 10.9052C38.9198 9.91027 41.1047 8.94684 41.6422 10.0076ZM35.9143 4.03836C34.8192 3.22606 33.2828 5.65299 34.3667 6.50915C35.4669 7.37808 37.0958 4.91407 35.9143 4.03836ZM23.4682 14.938C23.4439 14.4615 23.4375 13.9901 23.4487 13.5243L29.3425 12.8077C29.3948 13.0905 29.1571 14.1484 29.1084 14.4874C29.0279 15.0476 28.7372 15.4532 27.9958 15.3774C26.5475 15.2702 24.8635 15.0776 23.4682 14.938Z" fill="#A8CF45"/>
<path fill-rule="evenodd" clip-rule="evenodd" d="M23.5332 32.8419C23.9934 37.4301 26.2177 41.4585 29.9758 45C34.3507 43.9935 37.7419 42.089 40.2485 39.3777C38.5988 38.7445 36.668 37.677 34.887 37.667C34.4687 37.665 33.4738 38.5658 31.9098 39.0607C30.668 39.4539 27.2434 39.8459 26.3729 38.695C26.4889 38.386 26.4406 38.5012 27.3726 38.5973C28.2455 38.6871 32.6288 38.9279 32.3046 37.1011C32.2261 36.6593 31.511 35.849 31.0106 35.4686C29.1567 34.0593 26.1408 33.45 23.5332 32.8419ZM24.4851 24.5091C23.9698 26.1908 23.6493 27.8106 23.5157 29.3706C24.4081 28.9794 29.1208 28.1567 29.8873 28.5303C30.0268 28.5981 30.1676 28.7608 30.3079 28.9877C30.3079 29.0858 30.3087 29.1835 30.3099 29.2812C30.3175 29.8706 30.3438 31.575 30.6816 32.0459C30.8906 32.3374 31.3926 32.4898 31.7311 32.5823C31.897 33.0241 32.0474 33.3706 32.1766 33.5257C34.2654 35.6269 36.5124 36.2741 39.043 37.781C39.455 38.2871 39.8892 38.8051 40.3466 39.2712L40.5408 39.0539C38.6455 37.1589 37.4459 34.5992 35.2084 33.0233C34.6222 32.6831 31.3627 32.4993 30.9165 31.8772C30.5061 31.3046 30.5584 27.6291 30.7023 26.7733C30.7928 26.2358 31.2395 25.8941 31.2766 26.6876C31.332 27.8632 31.4508 29.046 31.5298 30.2215C31.5704 30.8225 31.9329 30.9992 32.3903 30.9872C32.6671 30.98 33.5428 31.0259 33.7609 30.9457L31.5374 23.4891C29.2743 23.4289 26.9216 23.7782 24.4851 24.5091ZM40.9296 38.5949C42.8485 36.2502 44.1792 33.3686 44.9759 29.9998C41.5605 26.3315 37.3427 23.8559 32.2707 23.5234L33.1025 25.3294C34.0632 27.4796 35.0107 30.3452 36.5986 31.8302C36.9698 32.1775 37.7127 32.6373 38.0756 32.6397C38.3572 32.6417 38.5849 32.3884 38.7364 32.0981C39.3254 30.9708 38.9134 29.6405 38.598 28.506C38.3946 27.7763 38.3097 27.8305 38.5402 27.6961C39.1914 28.0339 39.6189 29.9276 39.6444 30.7734C39.6815 32.0248 38.8696 34.5765 38.8771 34.6208C39.1264 36.0348 40.2067 37.3759 40.9296 38.5949ZM41.6422 34.9924C42.1407 34.0091 39.9977 33.1142 39.4626 34.0944C38.9198 35.0894 41.1047 36.0528 41.6422 34.9924ZM35.9143 40.9617C34.8192 41.7736 33.2828 39.3466 34.3667 38.4904C35.4669 37.6215 37.0958 40.0856 35.9143 40.9617ZM23.4682 30.0616C23.4439 30.5385 23.4375 31.0095 23.4487 31.4753L29.3425 32.1919C29.3948 31.9095 29.1571 30.8512 29.1084 30.5122C29.0279 29.9524 28.7372 29.5464 27.9958 29.6222C26.5475 29.7294 24.8635 29.922 23.4682 30.0616Z" fill="#245990"/>
<path fill-rule="evenodd" clip-rule="evenodd" d="M12.1582 23.5567C7.56991 24.0172 3.54149 26.2412 0 29.9992C1.0065 34.3741 2.91104 37.7653 5.62229 40.272C6.25554 38.6223 7.32304 36.6914 7.33261 34.9105C7.335 34.4922 6.4342 33.4972 5.93932 31.9332C5.54614 30.6915 5.15374 27.2668 6.305 26.3963C6.61404 26.5124 6.49881 26.4641 6.4027 27.3964C6.31298 28.2689 6.0721 32.6522 7.89887 32.328C8.34031 32.2495 9.15104 31.5345 9.53146 31.034C10.9407 29.1801 11.5501 26.1642 12.1582 23.5567ZM20.4909 24.5085C18.8093 23.9933 17.1895 23.6727 15.6295 23.5391C16.0207 24.4316 16.8429 29.1442 16.4697 29.9111C16.4019 30.0502 16.2388 30.191 16.0123 30.3314C15.9142 30.3318 15.8165 30.3326 15.7188 30.3338C15.1294 30.341 13.4251 30.3673 12.9541 30.705C12.6626 30.914 12.5103 31.416 12.4178 31.755C11.9759 31.9205 11.6294 32.0708 11.4743 32.2C9.37314 34.2888 8.72594 36.5363 7.21898 39.0665C6.71294 39.4784 6.19493 39.9127 5.72876 40.3701L5.9461 40.5643C7.84106 38.6693 10.4008 37.4694 11.9767 35.2323C12.3165 34.6461 12.5003 31.3865 13.1228 30.9399C13.695 30.5296 17.3709 30.5818 18.2267 30.7258C18.7638 30.8163 19.1059 31.2629 18.3124 31.3C17.1368 31.3554 15.9541 31.4743 14.7785 31.5532C14.1776 31.5939 14.0009 31.9564 14.0129 32.4138C14.02 32.6905 13.9742 33.5662 14.0543 33.7843L21.5109 31.5608C21.5708 29.2982 21.2219 26.945 20.4909 24.5085ZM6.40469 40.9531C8.74986 42.872 11.6314 44.2027 15.0002 44.9994C18.6685 41.5839 21.1441 37.3661 21.4767 32.2941L19.6706 33.126C17.5201 34.0866 14.6549 35.0345 13.1698 36.622C12.8225 36.9933 12.3627 37.7362 12.3603 38.0991C12.3583 38.3806 12.6116 38.6083 12.9019 38.7598C14.0292 39.3488 15.3595 38.9369 16.494 38.6215C17.2238 38.4185 17.1695 38.3332 17.3039 38.5636C16.9661 39.2148 15.0724 39.6423 14.2266 39.6678C12.9752 39.7053 10.4235 38.893 10.3792 38.9006C8.9652 39.1498 7.62413 40.2301 6.40469 40.9531ZM10.0076 41.6657C10.9905 42.1642 11.8858 40.0211 10.9056 39.4864C9.91069 38.9433 8.94724 41.1281 10.0076 41.6657ZM4.03838 35.9377C3.22648 34.8427 5.6534 33.3062 6.50956 34.3901C7.37848 35.4903 4.91448 37.1193 4.03838 35.9377ZM14.9384 23.4916C14.4615 23.4673 13.9905 23.4609 13.5248 23.4721L12.8082 29.366C13.0905 29.4182 14.1484 29.1805 14.4878 29.1319C15.0477 29.0513 15.4536 28.7606 15.3778 28.0193C15.2706 26.5714 15.078 24.8869 14.9384 23.4916Z" fill="#9CA3A5"/>
<path d="M66.0586 35.9765C66.0586 37.1374 65.6757 37.4278 63.9365 37.4278C62.2568 37.4278 61.8145 37.0433 61.8145 35.0198C61.8145 32.9956 62.2663 32.5722 63.9365 32.5722C65.6459 32.5722 65.8224 32.8942 65.9597 33.9214H66.756C66.6579 32.5959 66.2939 32 63.9365 32C61.7069 32 61 32.5413 61 35.0198C61 37.5141 61.7163 38 63.9365 38C66.2452 38 66.854 37.4982 66.854 35.9765H66.0586ZM71.4861 34.6589V32.6347H75.4048V32.0625H70.6711V37.9375H75.3859V37.3646H71.4861V35.2311H75.229V34.6589H71.4861ZM82.0616 32.6347H84.4388V32.0625H78.8695V32.6347H81.2458V37.9375H82.0616V32.6347ZM89.0119 32.0625H88.1961V37.9375H91.4864C93.0382 37.9375 93.6477 37.4508 93.6477 36.259C93.6477 35.0427 93.068 34.6589 91.4675 34.6589H89.0119V32.0625ZM89.0119 35.2311H91.32C92.4882 35.2311 92.8325 35.3569 92.8325 36.259C92.8325 37.0432 92.5964 37.3646 91.4282 37.3646H89.0119V35.2311ZM103.269 32.0625V32.7605H102.357C100.677 32.7605 99.8511 33.3176 99.8511 34.9177C99.8511 36.5099 100.677 37.0669 102.357 37.0669H103.269V37.9375H104.085V37.0669H105.028C106.688 37.0669 107.503 36.5099 107.503 34.9177C107.503 33.3335 106.679 32.7605 105.019 32.7605H104.085V32.0625H103.269ZM104.085 33.3176H104.93C106.206 33.3176 106.688 33.8115 106.688 34.9177C106.688 36.0233 106.217 36.5099 104.939 36.5099H104.085V33.3176ZM103.269 36.5099H102.415C101.089 36.5099 100.667 36.0233 100.667 34.9177C100.667 33.8115 101.089 33.3176 102.415 33.3176H103.269V36.5099ZM112.361 32.0625H111.546V37.9375H112.842L117.037 32.5643V37.9375H117.852V32.0625H116.546L112.361 37.4904V32.0625ZM124.763 32.6347H127.14V32.0625H121.571V32.6347H123.947V37.9375H124.763V32.6347ZM131.713 34.6589V32.0625H130.898V37.9375H131.713V35.2311H136.016V37.9375H136.831V32.0625H136.016V34.6589H131.713ZM141.905 34.6589V32.6347H145.824V32.0625H141.09V37.9375H145.805V37.3646H141.905V35.2311H145.648V34.6589H141.905ZM154.691 35.9765C154.691 37.1374 154.308 37.4278 152.569 37.4278C150.889 37.4278 150.447 37.0433 150.447 35.0198C150.447 32.9956 150.899 32.5722 152.569 32.5722C154.278 32.5722 154.455 32.8942 154.593 33.9214H155.388C155.29 32.5959 154.926 32 152.569 32C150.339 32 149.632 32.5413 149.632 35.0198C149.632 37.5141 150.349 38 152.569 38C154.878 38 155.486 37.4982 155.486 35.9765H154.691ZM162.457 32.0625H161.641V37.9375H162.457V35.2311H163.184L166.553 37.9375H167.683L163.911 34.9019L167.289 32.0625H166.199L163.184 34.6589H162.457V32.0625ZM171.931 32.0625V36.2899C171.931 37.2158 171.666 37.3646 171.038 37.3646H170.841V37.9375H171.362C172.403 37.9375 172.746 37.3336 172.746 36.2195V32.6347H176.303V37.9375H177.118V32.0625H171.931ZM180.885 32.0625L183.596 36.8161C183.42 37.2394 183.232 37.3646 182.722 37.3646H182.241V37.9375H183.007C183.616 37.9375 184.068 37.6391 184.382 37.0195L186.956 32.0625H186.111L184.038 36.1332L181.769 32.0625H180.885ZM190.773 32.0625V37.9375H194.063C195.615 37.9375 196.225 37.4508 196.225 36.259C196.225 35.0427 195.645 34.6589 194.043 34.6589H191.588V32.6347H195.635V32.0625H190.773ZM191.588 35.2311H193.897C195.066 35.2311 195.409 35.3569 195.409 36.259C195.409 37.0432 195.173 37.3646 194.005 37.3646H191.588V35.2311ZM200.14 35.0039C200.14 37.4982 200.758 38 203.224 38C205.709 38 206.308 37.4982 206.308 35.0039C206.308 32.5017 205.709 32 203.244 32C200.758 32 200.14 32.5017 200.14 35.0039ZM200.954 35.0039C200.954 32.9172 201.2 32.5722 203.233 32.5722C205.247 32.5722 205.493 32.9172 205.493 35.0039C205.493 37.0748 205.238 37.4278 203.233 37.4278C201.23 37.4278 200.954 37.0748 200.954 35.0039ZM211.196 35.2311H213.809C214.88 35.2311 215.184 35.3252 215.184 36.2827C215.184 37.2474 214.722 37.3646 213.465 37.3646H211.196V35.2311ZM211.196 32.6347H213.838C214.722 32.6347 214.968 32.8547 214.968 33.5685C214.968 34.4081 214.624 34.6589 213.534 34.6589H211.196V32.6347ZM210.38 37.9375H214.133C215.548 37.9375 216 37.2862 216 36.2353C216 35.459 215.842 35.0665 214.87 34.8552C215.704 34.6194 215.783 34.1644 215.783 33.5059C215.783 32.4471 215.184 32.0625 213.927 32.0625H210.38V37.9375Z" fill="#245990" stroke="#245990" stroke-width="0.0762" stroke-miterlimit="22.9256"/>
</svg>
