<svg width="37" height="48" viewBox="0 0 37 48" fill="none" xmlns="http://www.w3.org/2000/svg">
<path fill-rule="evenodd" clip-rule="evenodd" d="M3.19059 0.0941744C1.68609 0.387987 0.391969 1.71614 0.0975938 3.26874C-0.0325313 3.95489 -0.0325313 44.0276 0.0975938 44.7137C0.399656 46.3066 1.69191 47.6018 3.27366 47.897C3.96666 48.0263 32.0437 48.0261 32.7256 47.8967C34.3185 47.5947 35.6137 46.3024 35.9089 44.7207C35.9697 44.3942 36.0031 38.3154 36.0031 27.5317C36.0031 12.8839 35.9859 10.8115 35.8623 10.5509C35.6734 10.1528 25.7156 0.215487 25.3798 0.0899557C25.0519 -0.0326693 3.81937 -0.0286381 3.19059 0.0941744ZM24.0031 5.08786C24.0031 6.80808 24.0455 8.44289 24.0973 8.72067C24.3925 10.3024 25.6877 11.5947 27.2806 11.8967C27.5545 11.9488 29.1862 11.9912 30.9065 11.9912H34.0343V27.971C34.0343 39.3988 34.0044 44.09 33.9295 44.4397C33.8467 44.8256 33.7314 45.0218 33.3826 45.3707C33.0337 45.7196 32.8374 45.8349 32.4516 45.9177C31.7594 46.0661 4.24678 46.0661 3.55463 45.9177C2.86388 45.7695 2.22487 45.1305 2.07666 44.4397C1.92769 43.7447 1.92769 4.23774 2.07666 3.54277C2.21569 2.89449 2.87184 2.20805 3.48281 2.07174C3.735 2.01549 7.77787 1.97621 13.9484 1.97002L24.0031 1.95999V5.08786ZM30.3083 10.0008C27.5391 10.0321 27.2328 9.97992 26.6252 9.37224C26.0243 8.77139 25.9718 8.47486 25.9718 5.68242V3.41414L29.2537 6.69483L32.5356 9.97561L30.3083 10.0008ZM16.0079 16.1512C14.8268 16.5926 14.2283 17.5753 14.0617 19.3466C13.8959 21.11 14.4166 22.6022 15.9818 24.8492L16.445 25.5141L15.8542 27.3074C15.1018 29.5917 14.3608 31.6017 14.2211 31.7374C14.1613 31.7955 12.9945 32.3796 11.6281 33.0355C8.67094 34.455 7.62534 35.0535 6.96253 35.706C6.36178 36.2975 6.09741 36.7923 6.02925 37.4528C5.84747 39.2141 8.27925 40.548 10.1489 39.7124C11.9266 38.9179 13.8066 36.8475 15.406 33.923L15.7425 33.3078L16.8962 32.9205C18.2359 32.4707 19.7173 32.0749 21.3961 31.7183L22.586 31.4655L23.2242 31.933C24.2708 32.6997 24.9436 33.1308 25.7602 33.5582C26.4691 33.9293 26.5866 33.9616 27.1851 33.9506C28.0268 33.935 28.4738 33.81 29.0287 33.4352C29.5913 33.0553 29.9149 32.4413 29.98 31.6302C30.0867 30.3004 29.4307 29.4965 27.955 29.1488C27.2557 28.984 25.2561 29.0023 24.1906 29.1831C23.7007 29.2662 23.2513 29.3344 23.1918 29.3346C22.8875 29.3356 20.3419 26.9901 19.1625 25.622L18.6862 25.0694L19.0951 23.7569C19.8688 21.2738 19.998 20.613 19.947 19.3975C19.877 17.7267 19.4698 16.8169 18.5662 16.3122C18.2356 16.1275 17.9978 16.0801 17.2622 16.0525C16.6424 16.0292 16.2521 16.0599 16.0079 16.1512ZM17.737 18.273C17.9669 18.5821 18.0675 19.8227 17.9195 20.5249C17.86 20.8072 17.6777 21.4958 17.5144 22.0553C17.1787 23.2048 17.1997 23.2021 16.6701 22.1635C16.1959 21.2338 16.0342 20.6515 16.0349 19.875C16.0355 19.0075 16.164 18.5093 16.4647 18.2085C16.7818 17.8915 17.4796 17.9268 17.737 18.273ZM19.2584 28.62L20.5312 29.8738L19.9582 29.9865C19.6431 30.0484 18.8108 30.2615 18.1088 30.4598C17.4068 30.6582 16.8222 30.8103 16.8098 30.798C16.7804 30.7685 17.9164 27.3662 17.9556 27.3662C17.9722 27.3662 18.5584 27.9304 19.2584 28.62ZM27.5797 31.1186C27.9441 31.2198 28.0663 31.3888 27.968 31.6553C27.8798 31.894 27.7504 31.957 27.3443 31.9586C26.9861 31.96 26.192 31.6002 25.6906 31.2093L25.4562 31.0266L26.3468 31.0251C26.8367 31.0243 27.3915 31.0663 27.5797 31.1186ZM12.4148 34.9834C12.1908 35.3689 11.3385 36.3493 10.7497 36.8986C9.68306 37.894 9.04078 38.1349 8.29041 37.8214L7.95881 37.6829L8.12475 37.4019C8.21606 37.2474 8.47969 36.9853 8.71069 36.8194C9.11531 36.5288 12.252 34.8734 12.4071 34.8686C12.4488 34.8673 12.4522 34.919 12.4148 34.9834Z" fill="white"/>
</svg>
