<svg width="98" height="98" viewBox="0 0 98 98" fill="none" xmlns="http://www.w3.org/2000/svg">
<path fill-rule="evenodd" clip-rule="evenodd" d="M49 2C36.5348 2 24.5802 6.95177 15.766 15.766C6.95177 24.5802 2 36.5348 2 49C2 55.1721 3.21569 61.2838 5.57766 66.9861C7.93963 72.6884 11.4016 77.8697 15.766 82.234C20.1303 86.5984 25.3116 90.0604 31.0139 92.4223C36.7162 94.7843 42.8279 96 49 96C55.1721 96 61.2838 94.7843 66.9861 92.4223C72.6884 90.0604 77.8697 86.5984 82.234 82.234C86.5984 77.8697 90.0604 72.6884 92.4223 66.9861C94.7843 61.2838 96 55.1721 96 49C96 36.5348 91.0482 24.5802 82.234 15.766C73.4198 6.95177 61.4652 2 49 2ZM14.3518 14.3518C23.541 5.16249 36.0044 0 49 0C61.9956 0 74.4589 5.16249 83.6482 14.3518C92.8375 23.541 98 36.0044 98 49C98 55.4348 96.7326 61.8065 94.2701 67.7515C91.8076 73.6964 88.1983 79.0982 83.6482 83.6482C79.0982 88.1983 73.6964 91.8076 67.7515 94.2701C61.8065 96.7326 55.4348 98 49 98C42.5652 98 36.1935 96.7326 30.2485 94.2701C24.3036 91.8076 18.9018 88.1983 14.3518 83.6482C9.8017 79.0982 6.19238 73.6964 3.7299 67.7515C1.26742 61.8065 -1.19209e-07 55.4348 0 49C1.78814e-07 36.0044 5.16248 23.5411 14.3518 14.3518ZM49 23.3333C39.9794 23.3333 32.5055 27.658 29.7873 33.4263C29.5518 33.9259 28.956 34.14 28.4564 33.9046C27.9568 33.6692 27.7426 33.0733 27.9781 32.5737C31.1158 25.9154 39.4392 21.3333 49 21.3333C55.0887 21.3333 60.6375 23.1821 64.6867 26.2194C68.7363 29.2569 71.3333 33.5295 71.3333 38.3333C71.3333 46.4701 63.9607 52.9998 54.49 54.8194L54.4898 54.8194C51.952 55.3064 50 57.3079 50 59.6667C50 60.219 49.5523 60.6667 49 60.6667C48.4477 60.6667 48 60.219 48 59.6667C48 56.1268 50.8693 53.4776 54.1129 52.8552C63.0741 51.1334 69.3333 45.1298 69.3333 38.3333C69.3333 34.2998 67.1571 30.5724 63.4866 27.8193C59.8158 25.0659 54.698 23.3333 49 23.3333ZM48 75.6667C48 75.1144 48.4477 74.6667 49 74.6667H49.0533C49.6056 74.6667 50.0533 75.1144 50.0533 75.6667C50.0533 76.219 49.6056 76.6667 49.0533 76.6667H49C48.4477 76.6667 48 76.219 48 75.6667Z" fill="#A8CF45"/>
</svg>
